<svg id="svg" version="1.1" xmlns="http://www.w3.org/2000/svg" xmlns:xlink="http://www.w3.org/1999/xlink" width="400" height="387.8787878787879" viewBox="0, 0, 400,387.8787878787879"><g id="svgg"><path id="path0" d="M133.939 104.630 L 131.523 106.059 131.523 127.929 C 131.523 152.250,131.416 153.520,129.066 157.036 C 127.107 159.967,119.494 163.433,109.602 165.897 C 108.109 166.269,105.839 167.133,104.559 167.817 C 102.337 169.003,99.700 169.990,93.695 171.883 C 92.202 172.354,90.718 172.953,90.398 173.215 C 88.322 174.914,83.326 177.029,77.997 178.464 C 77.175 178.685,75.704 179.526,74.728 180.332 C 73.753 181.138,72.296 182.024,71.492 182.301 C 66.343 184.074,64.037 185.145,62.744 186.365 C 61.953 187.110,60.339 188.083,59.157 188.525 C 56.543 189.503,55.444 190.180,53.070 192.273 C 52.064 193.159,49.874 194.596,48.202 195.466 C 46.022 196.600,44.893 197.463,44.211 198.515 C 43.687 199.322,42.233 200.685,40.979 201.543 C 39.162 202.787,38.552 203.480,37.975 204.956 C 37.577 205.975,36.980 207.222,36.649 207.728 C 36.317 208.233,35.651 210.127,35.168 211.936 L 34.290 215.225 35.142 216.294 C 35.611 216.882,36.407 218.257,36.911 219.351 C 37.990 221.691,38.766 222.420,41.125 223.306 C 42.085 223.666,43.482 224.329,44.229 224.779 C 47.524 226.762,50.295 227.776,53.898 228.317 C 55.961 228.627,59.823 229.230,62.481 229.656 C 75.153 231.690,76.774 231.792,96.605 231.803 C 114.972 231.814,120.205 231.601,134.627 230.262 C 137.934 229.955,142.936 229.519,145.742 229.293 C 148.547 229.067,154.396 228.371,158.739 227.746 C 163.081 227.120,167.856 226.493,169.350 226.352 C 170.844 226.210,173.806 225.681,175.932 225.176 C 181.274 223.906,188.261 222.807,196.508 221.937 C 202.334 221.323,204.167 220.968,207.565 219.792 C 213.223 217.835,216.817 217.047,224.346 216.112 C 231.197 215.262,231.932 215.084,234.724 213.601 C 237.002 212.392,239.805 211.693,247.139 210.505 C 251.987 209.721,253.678 209.272,255.868 208.191 C 259.685 206.307,261.812 205.671,266.500 205.013 C 272.679 204.145,275.273 203.439,277.078 202.131 C 278.674 200.975,282.414 199.679,287.525 198.511 C 290.644 197.799,292.168 197.122,294.558 195.388 C 296.285 194.136,298.225 193.534,306.023 191.832 C 306.509 191.726,307.556 191.055,308.351 190.342 C 310.234 188.652,312.361 187.597,315.445 186.823 C 319.056 185.917,320.129 185.459,321.435 184.267 C 322.979 182.859,325.846 181.460,329.285 180.437 C 331.287 179.842,332.621 179.143,333.941 177.998 C 334.958 177.115,337.446 175.607,339.468 174.647 C 341.491 173.687,343.679 172.337,344.331 171.646 C 344.983 170.955,346.526 169.911,347.761 169.327 C 349.703 168.407,355.737 163.422,359.709 159.456 C 365.353 153.821,365.107 142.283,359.303 140.404 C 357.641 139.866,353.645 137.907,352.279 136.960 C 348.607 134.415,318.072 130.760,299.965 130.699 C 288.486 130.660,285.936 127.278,285.936 112.094 L 285.936 105.925 283.850 104.539 L 281.764 103.154 262.414 103.295 C 241.861 103.444,239.703 103.631,238.431 105.370 C 238.023 105.928,237.862 108.712,237.725 117.547 C 237.611 124.854,237.380 129.532,237.084 130.466 C 235.526 135.397,229.854 137.854,216.295 139.473 C 204.509 140.880,202.050 141.328,194.063 143.523 C 192.505 143.951,189.669 144.419,187.760 144.563 L 184.290 144.825 183.006 143.465 C 180.359 140.657,180.246 139.811,180.106 121.769 C 179.985 106.248,179.950 105.586,179.213 104.919 C 177.687 103.538,173.372 103.243,154.404 103.221 L 136.355 103.201 133.939 104.630 M302.619 144.756 C 311.301 146.098,319.454 149.697,321.654 153.160 C 325.134 158.637,323.306 166.115,317.387 170.613 C 315.773 171.839,313.439 173.651,312.199 174.641 C 310.959 175.630,309.125 176.736,308.124 177.097 C 304.446 178.426,303.996 178.645,302.830 179.669 C 297.747 184.131,291.326 184.534,287.464 180.634 L 285.936 179.090 285.944 166.655 C 285.955 150.895,286.962 147.032,291.685 144.638 C 294.012 143.459,294.247 143.462,302.619 144.756 M231.426 146.434 C 234.270 147.100,236.338 149.151,237.245 152.205 C 238.085 155.035,238.117 196.574,237.280 198.176 C 235.009 202.524,226.507 205.965,215.005 207.191 C 206.112 208.139,203.145 208.708,200.143 210.038 C 195.177 212.240,185.857 213.015,183.307 211.439 C 180.195 209.515,179.964 207.337,180.101 181.178 L 180.213 159.651 181.110 157.669 C 183.051 153.382,185.234 152.255,193.792 151.121 C 199.676 150.341,209.299 148.677,211.639 148.034 C 213.260 147.589,217.591 146.787,221.920 146.131 C 224.269 145.774,229.290 145.935,231.426 146.434 M129.182 172.053 C 131.336 174.117,131.586 176.514,131.450 193.801 L 131.329 209.311 130.065 211.812 C 127.398 217.085,125.996 217.785,118.138 217.764 C 110.760 217.744,105.626 217.117,100.910 215.661 C 98.862 215.029,95.092 214.165,92.532 213.740 C 86.065 212.667,85.717 212.516,81.989 209.175 C 77.773 205.396,77.109 204.162,77.417 200.674 C 77.770 196.669,78.516 195.030,80.918 192.978 C 82.071 191.992,83.371 190.610,83.806 189.906 C 84.346 189.033,85.531 188.153,87.537 187.136 C 89.153 186.316,91.200 184.974,92.086 184.153 C 93.956 182.420,95.624 181.502,98.398 180.680 C 100.940 179.926,102.422 179.154,103.396 178.077 C 104.526 176.827,107.254 175.572,110.572 174.776 C 113.819 173.997,116.105 173.051,117.556 171.882 C 120.676 169.371,126.471 169.456,129.182 172.053 M278.758 213.614 C 274.732 214.382,273.029 214.928,272.158 215.731 C 270.365 217.384,266.668 218.417,256.883 219.995 C 255.087 220.285,253.105 220.943,251.567 221.759 C 250.218 222.474,246.967 223.699,244.344 224.481 C 241.720 225.263,239.180 226.260,238.700 226.695 L 237.827 227.487 237.829 248.661 C 237.830 268.867,237.864 269.891,238.576 271.059 C 239.853 273.152,240.886 273.254,262.559 273.412 L 282.054 273.554 283.995 271.739 L 285.936 269.923 285.936 242.438 L 285.936 214.953 284.481 214.219 C 282.289 213.113,281.710 213.052,278.758 213.614 M168.472 238.691 C 166.282 239.059,163.488 239.615,162.264 239.926 C 158.127 240.976,149.981 241.958,141.397 242.440 C 136.011 242.743,135.921 242.764,133.735 244.162 L 131.523 245.577 131.523 257.770 L 131.523 269.963 133.523 271.556 C 136.207 273.693,134.760 273.574,156.159 273.412 C 177.231 273.253,178.433 273.135,179.472 271.126 C 180.290 269.544,180.147 239.885,179.317 238.885 C 178.560 237.974,173.298 237.879,168.472 238.691 " stroke="none" fill="#f8edee" fill-rule="evenodd"></path><path id="path1" d="M33.948 5.847 C 31.567 6.111,30.147 6.354,29.486 6.612 C 29.379 6.653,29.161 6.667,29.001 6.641 C 28.841 6.616,28.710 6.770,28.710 6.984 C 28.710 7.197,28.579 7.351,28.419 7.326 C 27.684 7.210,27.131 7.402,27.320 7.708 C 27.435 7.894,25.619 9.945,23.284 12.267 C 19.093 16.436,19.027 16.530,17.995 19.787 C 16.917 23.186,15.232 26.770,14.712 26.770 C 14.550 26.770,14.118 27.687,13.753 28.807 C 13.387 29.927,12.893 31.089,12.655 31.388 C 11.922 32.309,11.887 348.889,12.620 350.921 C 12.928 351.775,13.182 352.703,13.185 352.984 C 13.188 353.265,13.803 354.138,14.550 354.924 C 15.409 355.827,16.416 357.657,17.288 359.895 C 18.610 363.292,19.601 364.697,21.031 365.200 C 21.395 365.328,22.114 366.099,22.627 366.912 C 23.810 368.786,29.486 372.220,29.486 371.062 C 29.486 370.744,32.698 372.919,33.518 373.793 C 33.968 374.272,34.859 374.781,35.500 374.924 C 36.140 375.067,37.187 375.312,37.827 375.468 C 39.349 375.839,360.651 375.839,362.173 375.468 C 362.813 375.312,363.860 375.067,364.500 374.924 C 365.141 374.781,366.032 374.272,366.482 373.793 C 367.253 372.971,370.094 371.014,370.514 371.015 C 372.238 371.020,375.936 368.961,376.948 367.431 C 377.498 366.600,378.627 365.471,379.458 364.921 C 380.963 363.925,381.430 363.132,383.284 358.434 C 383.759 357.231,384.518 355.849,384.970 355.364 C 386.312 353.924,387.122 351.989,387.557 349.186 C 387.839 347.367,387.966 296.918,387.965 186.728 L 387.964 26.908 386.813 25.093 C 386.180 24.095,385.418 23.278,385.119 23.278 C 384.821 23.278,384.184 22.362,383.704 21.242 C 382.102 17.504,372.942 7.754,369.738 6.376 C 367.896 5.584,40.962 5.068,33.948 5.847 M179.250 97.050 C 180.000 97.382,181.200 98.322,181.917 99.138 C 184.489 102.068,184.459 101.858,184.674 118.526 C 184.906 136.492,184.875 136.342,188.425 136.785 C 191.437 137.162,195.281 136.641,197.711 135.529 C 200.319 134.335,203.014 133.831,216.101 132.092 C 221.756 131.341,226.748 130.647,227.196 130.550 C 227.775 130.425,228.419 129.467,229.427 127.230 L 230.844 124.086 230.844 114.794 C 230.844 103.514,232.021 100.336,237.171 97.708 C 240.519 96.000,280.643 95.532,285.548 97.144 C 290.890 98.899,292.137 101.683,292.522 112.706 C 292.707 117.979,293.004 121.470,293.365 122.599 L 293.923 124.345 309.037 124.587 C 330.660 124.934,343.687 126.349,350.143 129.052 C 351.425 129.589,353.870 130.471,355.577 131.013 C 360.339 132.524,361.851 133.480,366.116 137.673 L 370.060 141.550 370.728 144.552 C 371.986 150.209,370.815 156.151,367.944 158.671 C 367.225 159.303,366.179 160.785,365.620 161.965 C 364.693 163.925,362.440 166.440,361.614 166.440 C 361.428 166.440,360.651 167.309,359.889 168.371 C 358.887 169.765,357.844 170.633,356.136 171.495 C 354.835 172.152,353.232 173.304,352.572 174.055 C 351.416 175.371,345.919 178.468,344.737 178.468 C 344.420 178.468,343.097 179.417,341.797 180.577 C 339.482 182.643,337.780 183.435,333.054 184.648 C 332.189 184.870,330.793 185.638,329.950 186.355 C 327.929 188.076,327.124 188.476,323.614 189.502 C 321.989 189.977,320.699 190.557,320.748 190.791 C 320.847 191.270,318.336 192.215,317.817 191.894 C 317.632 191.780,316.989 192.199,316.389 192.825 C 315.171 194.096,311.753 195.364,308.438 195.774 C 305.760 196.106,304.209 196.641,305.820 196.678 C 307.274 196.711,307.182 197.478,305.723 197.478 C 305.082 197.478,304.559 197.304,304.559 197.090 C 304.559 196.413,303.935 196.667,302.702 197.845 C 300.889 199.577,298.674 200.548,294.538 201.420 C 290.474 202.278,290.161 202.404,290.926 202.877 C 291.581 203.281,290.620 203.686,289.006 203.686 L 287.871 203.686 289.040 205.300 C 289.683 206.187,290.688 208.326,291.273 210.052 L 292.338 213.191 292.449 240.931 C 292.580 273.405,292.448 275.073,289.505 278.118 C 287.082 280.626,286.284 280.698,260.912 280.698 L 238.797 280.698 236.860 279.728 C 231.157 276.872,230.844 275.255,230.844 248.624 C 230.844 224.512,230.636 226.311,233.776 223.212 L 235.808 221.206 234.638 220.721 C 232.720 219.927,225.951 220.778,224.012 222.057 C 221.116 223.969,218.400 224.618,209.117 225.615 C 200.948 226.493,198.724 226.928,196.120 228.155 C 194.840 228.759,191.697 229.801,189.137 230.471 C 186.576 231.141,183.939 232.052,183.277 232.496 L 182.072 233.303 182.962 234.615 C 184.611 237.044,184.747 238.898,184.592 256.838 C 184.433 275.368,184.296 276.549,182.065 278.630 C 179.827 280.718,180.486 280.656,158.699 280.824 C 123.280 281.097,125.121 282.348,125.121 258.002 L 125.121 243.453 126.171 241.417 L 127.222 239.382 125.977 238.702 C 124.860 238.091,123.802 238.041,115.616 238.215 C 80.743 238.957,56.946 237.584,51.299 234.504 C 49.960 233.773,47.134 232.747,45.019 232.224 C 40.199 231.031,38.324 230.094,35.934 227.680 C 34.893 226.628,33.304 225.261,32.404 224.642 C 27.149 221.026,26.550 208.801,31.399 204.126 C 32.424 203.137,33.642 201.581,34.104 200.669 C 34.583 199.721,35.728 198.441,36.773 197.682 C 37.780 196.952,39.350 195.478,40.263 194.406 C 41.473 192.987,42.456 192.271,43.888 191.768 C 44.968 191.388,46.032 190.727,46.253 190.301 C 47.084 188.692,48.389 187.648,51.153 186.380 C 52.720 185.662,54.340 184.645,54.752 184.121 C 55.782 182.811,59.166 180.938,61.709 180.270 C 64.631 179.502,65.845 178.888,66.540 177.827 C 67.309 176.653,70.972 174.813,74.470 173.844 C 76.322 173.330,77.745 172.636,78.810 171.724 C 80.349 170.407,83.222 169.220,88.400 167.763 C 89.754 167.382,91.500 166.562,92.279 165.941 C 94.600 164.090,96.137 163.487,101.843 162.189 C 105.910 161.263,107.518 160.722,108.244 160.035 C 109.563 158.788,113.028 157.233,115.616 156.728 C 120.727 155.731,122.583 154.801,123.703 152.680 L 124.733 150.727 124.927 127.421 L 125.121 104.114 126.285 101.853 C 127.936 98.644,129.481 97.533,133.269 96.827 C 137.891 95.965,177.228 96.156,179.250 97.050 M293.190 152.670 C 292.224 154.697,292.264 173.467,293.241 176.226 L 293.889 178.058 295.115 176.808 C 296.005 175.900,297.416 175.196,300.264 174.238 C 303.623 173.109,304.552 172.598,306.715 170.688 C 308.105 169.461,309.716 168.341,310.295 168.199 C 312.059 167.765,313.061 166.890,313.942 165.015 C 314.405 164.030,315.368 162.640,316.081 161.927 L 317.378 160.630 315.659 158.519 C 314.714 157.359,313.825 156.047,313.685 155.605 C 313.139 153.886,307.718 152.617,296.197 151.513 L 293.849 151.288 293.190 152.670 M219.787 153.847 C 216.586 154.336,212.786 155.089,211.343 155.521 C 208.435 156.392,203.783 157.171,196.017 158.088 C 191.506 158.621,186.615 159.998,186.615 160.736 C 186.615 160.824,186.178 162.098,185.645 163.569 L 184.675 166.243 184.675 184.738 L 184.675 203.234 186.324 203.832 C 189.541 205.000,190.811 205.171,193.680 204.826 C 195.235 204.638,200.015 204.226,204.301 203.910 L 212.093 203.335 214.970 201.788 C 217.646 200.349,223.931 198.642,226.556 198.642 C 227.011 198.642,228.048 198.303,228.860 197.889 L 230.336 197.135 230.590 193.561 C 230.730 191.596,230.844 182.018,230.844 172.278 L 230.844 154.568 229.088 153.715 C 227.023 152.712,227.244 152.708,219.787 153.847 M116.392 178.512 C 113.770 179.013,112.457 179.631,110.998 181.050 C 109.648 182.365,106.836 183.611,103.460 184.390 C 102.138 184.695,100.983 185.349,99.653 186.545 C 98.534 187.551,96.596 188.729,94.971 189.390 C 93.288 190.075,91.495 191.177,90.408 192.194 C 89.423 193.115,88.450 193.939,88.246 194.025 C 86.607 194.714,85.068 197.458,84.801 200.166 L 84.525 202.975 86.006 204.307 C 86.821 205.039,88.361 206.091,89.428 206.645 C 90.495 207.198,91.774 208.024,92.270 208.480 C 93.295 209.420,94.714 209.569,109.216 210.260 C 117.415 210.650,123.525 210.261,124.499 209.287 C 124.914 208.871,124.765 179.311,124.345 178.925 C 123.778 178.402,118.422 178.124,116.392 178.512 M273.327 209.117 C 273.179 209.356,273.840 209.505,275.050 209.505 C 276.129 209.505,277.013 209.331,277.013 209.117 C 277.013 208.904,276.237 208.729,275.290 208.729 C 274.342 208.729,273.459 208.904,273.327 209.117 M206.014 227.304 C 206.014 227.797,203.877 228.147,202.522 227.876 C 200.562 227.484,201.226 226.964,203.686 226.964 C 204.966 226.964,206.014 227.117,206.014 227.304 M9.579 374.558 C 9.848 377.678,10.232 378.079,13.238 378.383 C 14.173 378.477,14.541 378.479,14.057 378.388 C 13.574 378.296,13.268 378.074,13.379 377.895 C 13.490 377.716,13.222 377.664,12.785 377.778 C 11.678 378.067,9.979 376.429,10.198 375.282 C 10.289 374.806,10.225 374.503,10.056 374.607 C 9.888 374.711,9.674 374.313,9.582 373.722 C 9.490 373.131,9.488 373.507,9.579 374.558 M390.301 373.576 C 390.301 374.264,390.151 374.735,389.969 374.622 C 389.786 374.510,389.711 374.806,389.802 375.282 C 390.021 376.429,388.322 378.067,387.215 377.778 C 386.778 377.664,386.518 377.728,386.637 377.922 C 386.757 378.115,386.379 378.274,385.797 378.274 C 385.216 378.274,384.840 378.374,384.963 378.497 C 385.394 378.927,388.860 378.163,389.534 377.488 C 390.211 376.811,390.983 373.007,390.534 372.558 C 390.406 372.430,390.301 372.888,390.301 373.576 " stroke="none" fill="#e32c2c" fill-rule="evenodd"></path><path id="path2" d="M133.269 96.827 C 129.481 97.533,127.936 98.644,126.285 101.853 L 125.121 104.114 124.927 127.421 L 124.733 150.727 123.703 152.680 C 122.583 154.801,120.727 155.731,115.616 156.728 C 113.028 157.233,109.563 158.788,108.244 160.035 C 107.518 160.722,105.910 161.263,101.843 162.189 C 96.137 163.487,94.600 164.090,92.279 165.941 C 91.500 166.562,89.754 167.382,88.400 167.763 C 83.222 169.220,80.349 170.407,78.810 171.724 C 77.745 172.636,76.322 173.330,74.470 173.844 C 70.972 174.813,67.309 176.653,66.540 177.827 C 65.845 178.888,64.631 179.502,61.709 180.270 C 59.166 180.938,55.782 182.811,54.752 184.121 C 54.340 184.645,52.720 185.662,51.153 186.380 C 48.389 187.648,47.084 188.692,46.253 190.301 C 46.032 190.727,44.968 191.388,43.888 191.768 C 42.456 192.271,41.473 192.987,40.263 194.406 C 39.350 195.478,37.780 196.952,36.773 197.682 C 35.728 198.441,34.583 199.721,34.104 200.669 C 33.642 201.581,32.424 203.137,31.399 204.126 C 26.550 208.801,27.149 221.026,32.404 224.642 C 33.304 225.261,34.893 226.628,35.934 227.680 C 38.324 230.094,40.199 231.031,45.019 232.224 C 47.134 232.747,49.960 233.773,51.299 234.504 C 56.946 237.584,80.743 238.957,115.616 238.215 C 123.802 238.041,124.860 238.091,125.977 238.702 L 127.222 239.382 126.171 241.417 L 125.121 243.453 125.121 258.002 C 125.121 282.348,123.280 281.097,158.699 280.824 C 180.486 280.656,179.827 280.718,182.065 278.630 C 184.296 276.549,184.433 275.368,184.592 256.838 C 184.747 238.898,184.611 237.044,182.962 234.615 L 182.072 233.303 183.277 232.496 C 183.939 232.052,186.576 231.141,189.137 230.471 C 191.697 229.801,194.840 228.759,196.120 228.155 C 198.724 226.928,200.948 226.493,209.117 225.615 C 218.400 224.618,221.116 223.969,224.012 222.057 C 225.951 220.778,232.720 219.927,234.638 220.721 L 235.808 221.206 233.776 223.212 C 230.636 226.311,230.844 224.512,230.844 248.624 C 230.844 275.255,231.157 276.872,236.860 279.728 L 238.797 280.698 260.912 280.698 C 291.011 280.698,290.600 280.823,292.170 271.239 C 292.785 267.484,292.616 215.977,291.979 212.997 C 291.173 209.227,289.966 206.329,288.482 204.595 L 287.154 203.044 291.298 202.162 C 298.553 200.617,303.007 198.850,303.007 197.518 C 303.007 197.032,306.176 196.045,308.804 195.712 C 313.026 195.178,317.362 193.010,317.362 191.434 C 317.362 190.892,318.223 190.498,319.430 190.487 C 322.150 190.460,327.678 188.290,329.950 186.355 C 330.793 185.638,332.189 184.870,333.054 184.648 C 337.780 183.435,339.482 182.643,341.797 180.577 C 343.097 179.417,344.420 178.468,344.737 178.468 C 345.919 178.468,351.416 175.371,352.572 174.055 C 353.232 173.304,354.835 172.152,356.136 171.495 C 357.844 170.633,358.887 169.765,359.889 168.371 C 360.651 167.309,361.428 166.440,361.614 166.440 C 362.440 166.440,364.693 163.925,365.620 161.965 C 366.179 160.785,367.225 159.303,367.944 158.671 C 370.815 156.151,371.986 150.209,370.728 144.552 L 370.060 141.550 366.116 137.673 C 361.851 133.480,360.339 132.524,355.577 131.013 C 353.870 130.471,351.425 129.589,350.143 129.052 C 343.687 126.349,330.660 124.934,309.037 124.587 L 293.923 124.345 293.365 122.599 C 293.004 121.470,292.707 117.979,292.522 112.706 C 292.137 101.683,290.890 98.899,285.548 97.144 C 280.643 95.532,240.519 96.000,237.171 97.708 C 232.021 100.336,230.844 103.514,230.844 114.794 L 230.844 124.086 229.427 127.230 C 228.419 129.467,227.775 130.425,227.196 130.550 C 226.748 130.647,221.756 131.341,216.101 132.092 C 203.014 133.831,200.319 134.335,197.711 135.529 C 195.281 136.641,191.437 137.162,188.425 136.785 C 184.875 136.342,184.906 136.492,184.674 118.526 C 184.370 94.927,186.308 96.488,157.129 96.348 C 140.061 96.266,135.821 96.351,133.269 96.827 M177.584 100.680 C 178.968 100.988,180.527 102.370,181.510 104.163 C 182.069 105.181,182.179 107.391,182.347 121.048 L 182.541 136.760 183.517 138.506 L 184.493 140.252 187.280 140.366 C 189.167 140.443,192.169 140.090,196.585 139.274 C 200.170 138.610,205.897 137.641,209.311 137.119 C 220.744 135.371,227.623 133.772,230.722 132.143 C 234.373 130.223,234.422 130.025,234.704 116.133 L 234.918 105.592 236.087 103.930 C 238.619 100.331,240.317 100.097,263.894 100.097 C 288.965 100.097,289.428 100.314,289.428 112.063 C 289.428 120.240,290.104 123.761,292.065 125.800 L 293.465 127.255 299.303 127.265 C 313.984 127.289,327.134 128.173,333.666 129.576 C 335.485 129.967,339.239 130.662,342.008 131.120 C 356.663 133.547,363.896 137.698,366.953 145.433 L 368.197 148.582 366.864 151.983 C 363.859 159.650,358.525 165.826,350.814 170.569 C 349.166 171.583,347.248 172.898,346.552 173.492 C 345.856 174.086,343.848 175.286,342.090 176.158 C 340.333 177.029,338.242 178.261,337.445 178.895 C 335.931 180.098,331.497 182.346,330.637 182.347 C 330.027 182.347,327.249 183.748,324.201 185.592 C 322.948 186.350,320.313 187.507,318.344 188.163 C 316.375 188.819,313.821 189.950,312.669 190.677 C 309.681 192.560,308.362 193.114,303.925 194.352 C 301.732 194.963,298.557 196.226,296.747 197.205 C 294.764 198.278,291.788 199.432,289.095 200.173 C 284.478 201.443,282.167 202.424,281.283 203.489 C 280.360 204.601,278.881 205.104,273.909 205.996 C 267.071 207.224,263.227 208.285,261.775 209.347 C 259.894 210.722,259.043 211.012,254.353 211.879 C 251.986 212.317,248.377 212.988,246.333 213.370 C 242.950 214.003,241.140 214.655,238.126 216.325 C 237.543 216.648,234.837 217.164,232.112 217.473 C 224.564 218.328,220.670 219.117,214.914 220.960 C 210.902 222.244,207.944 222.881,202.446 223.645 C 190.318 225.330,183.816 226.785,180.213 228.621 C 177.909 229.796,176.630 230.025,168.834 230.661 C 164.923 230.980,160.035 231.490,157.971 231.795 C 155.908 232.100,152.037 232.554,149.370 232.803 C 144.170 233.290,144.120 233.301,144.497 233.911 C 145.193 235.037,148.230 235.263,163.337 235.312 C 180.298 235.367,179.533 235.263,181.171 237.737 L 182.347 239.512 182.347 254.756 C 182.347 271.641,182.230 272.553,179.698 275.325 C 178.195 276.971,176.144 277.095,153.055 276.941 L 134.821 276.819 132.493 275.655 C 130.579 274.698,129.977 274.146,129.107 272.551 L 128.049 270.611 128.040 257.712 L 128.031 244.813 129.396 243.303 C 130.931 241.603,135.205 239.771,137.656 239.762 C 138.444 239.759,139.479 239.652,139.956 239.524 L 140.824 239.291 140.057 238.214 C 139.579 237.543,138.814 237.061,138.025 236.934 C 137.330 236.823,135.800 236.466,134.627 236.141 C 129.538 234.734,126.745 234.616,110.684 235.128 C 84.549 235.962,70.090 235.090,56.450 231.857 C 41.430 228.298,35.530 224.976,32.121 218.161 L 30.748 215.417 31.304 212.199 C 31.698 209.916,32.135 208.654,32.808 207.854 C 33.329 207.235,34.444 205.563,35.285 204.140 C 36.962 201.303,43.116 195.280,46.169 193.487 C 47.129 192.923,48.714 191.801,49.691 190.993 C 50.667 190.186,52.562 188.914,53.901 188.167 C 55.240 187.420,57.496 186.035,58.915 185.089 C 60.333 184.143,63.327 182.558,65.567 181.567 C 67.808 180.575,70.742 179.047,72.088 178.170 C 73.434 177.294,75.966 176.107,77.714 175.533 C 79.462 174.958,82.297 173.731,84.013 172.805 C 85.729 171.878,88.872 170.497,90.997 169.736 C 93.121 168.974,96.256 167.667,97.963 166.831 C 99.670 165.995,103.249 164.680,105.917 163.908 C 108.584 163.136,112.512 161.753,114.646 160.835 C 116.780 159.918,119.738 158.770,121.221 158.285 C 127.950 156.083,128.028 155.724,128.030 126.726 L 128.031 105.828 128.900 104.282 C 129.839 102.611,130.928 101.904,134.239 100.813 C 136.459 100.081,174.371 99.965,177.584 100.680 M292.590 147.634 C 291.762 148.331,291.123 149.519,290.384 151.739 L 289.344 154.862 289.483 166.197 C 289.639 178.936,289.638 178.931,292.539 180.411 C 294.308 181.314,294.948 181.120,298.351 178.654 C 299.311 177.958,301.232 176.920,302.619 176.347 C 306.442 174.768,308.129 173.852,309.408 172.660 C 310.048 172.064,311.334 171.104,312.265 170.527 C 319.624 165.969,322.139 159.771,318.737 154.578 C 317.090 152.066,308.025 148.597,300.097 147.446 C 293.409 146.476,293.984 146.461,292.590 147.634 M221.920 149.752 C 219.467 150.138,212.134 151.253,205.626 152.232 C 187.709 154.926,185.764 155.500,183.631 158.722 L 182.541 160.369 182.423 181.476 C 182.296 203.996,182.398 205.368,184.397 208.097 C 185.196 209.188,189.361 209.338,193.016 208.408 C 198.105 207.113,201.627 206.486,207.565 205.820 C 214.440 205.049,220.876 203.812,222.696 202.912 C 223.443 202.542,225.015 201.930,226.188 201.551 C 228.980 200.649,233.195 198.530,234.013 197.618 C 234.598 196.966,234.670 194.827,234.767 175.358 C 234.896 149.560,235.375 151.818,229.328 149.712 C 228.175 149.310,227.040 148.997,226.806 149.017 C 226.573 149.036,224.374 149.367,221.920 149.752 M302.037 152.144 C 308.919 152.943,313.248 154.230,313.685 155.605 C 313.825 156.047,314.714 157.359,315.659 158.519 L 317.378 160.630 316.081 161.927 C 315.368 162.640,314.405 164.030,313.942 165.015 C 313.061 166.890,312.059 167.765,310.295 168.199 C 309.716 168.341,308.105 169.461,306.715 170.688 C 304.552 172.598,303.623 173.109,300.264 174.238 C 297.416 175.196,296.005 175.900,295.115 176.808 L 293.889 178.058 293.241 176.226 C 292.264 173.467,292.224 154.697,293.190 152.670 L 293.849 151.288 296.197 151.513 C 297.489 151.637,300.116 151.921,302.037 152.144 M229.088 153.715 L 230.844 154.568 230.844 172.278 C 230.844 182.018,230.730 191.596,230.590 193.561 L 230.336 197.135 228.860 197.889 C 228.048 198.303,227.011 198.642,226.556 198.642 C 223.931 198.642,217.646 200.349,214.970 201.788 L 212.093 203.335 204.301 203.910 C 200.015 204.226,195.235 204.638,193.680 204.826 C 190.811 205.171,189.541 205.000,186.324 203.832 L 184.675 203.234 184.675 184.738 L 184.675 166.243 185.645 163.569 C 186.178 162.098,186.615 160.824,186.615 160.736 C 186.615 159.998,191.506 158.621,196.017 158.088 C 203.783 157.171,208.435 156.392,211.343 155.521 C 213.619 154.840,223.988 153.050,226.469 152.910 C 226.943 152.883,228.122 153.245,229.088 153.715 M122.845 173.282 C 122.233 173.613,119.527 174.493,116.831 175.238 C 110.170 177.077,108.946 177.562,106.651 179.275 C 105.562 180.087,103.203 181.283,101.409 181.932 C 98.019 183.159,97.143 183.630,94.362 185.725 C 93.448 186.413,91.306 187.702,89.602 188.589 C 87.683 189.587,86.193 190.662,85.686 191.414 C 85.236 192.082,83.843 193.608,82.589 194.806 C 80.402 196.896,80.310 197.061,80.310 198.928 C 80.310 199.998,80.205 201.400,80.076 202.045 C 79.821 203.318,79.954 203.475,85.206 208.103 C 88.006 210.569,90.278 211.202,101.261 212.574 C 119.936 214.906,124.144 214.561,126.820 210.475 L 127.837 208.923 127.837 193.792 C 127.837 177.210,127.859 177.384,125.303 173.795 C 124.367 172.480,124.337 172.473,122.845 173.282 M124.345 178.925 C 124.765 179.311,124.914 208.871,124.499 209.287 C 123.525 210.261,117.415 210.650,109.216 210.260 C 94.714 209.569,93.295 209.420,92.270 208.480 C 91.774 208.024,90.495 207.198,89.428 206.645 C 88.361 206.091,86.821 205.039,86.006 204.307 L 84.525 202.975 84.801 200.166 C 85.068 197.458,86.607 194.714,88.246 194.025 C 88.450 193.939,89.423 193.115,90.408 192.194 C 91.495 191.177,93.288 190.075,94.971 189.390 C 96.596 188.729,98.534 187.551,99.653 186.545 C 100.983 185.349,102.138 184.695,103.460 184.390 C 106.836 183.611,109.648 182.365,110.998 181.050 C 113.559 178.557,122.416 177.147,124.345 178.925 M277.013 209.117 C 277.013 209.331,276.129 209.505,275.050 209.505 C 273.840 209.505,273.179 209.356,273.327 209.117 C 273.459 208.904,274.342 208.729,275.290 208.729 C 276.237 208.729,277.013 208.904,277.013 209.117 M287.018 211.316 C 289.446 211.920,289.428 211.680,289.428 242.289 C 289.428 273.471,289.603 271.536,286.530 274.234 C 283.218 277.142,284.294 277.016,262.964 276.980 C 237.678 276.937,238.422 277.063,235.984 272.383 L 234.724 269.961 234.724 248.582 L 234.724 227.202 236.795 225.196 C 238.366 223.674,239.485 222.983,241.421 222.339 C 242.827 221.871,244.208 221.208,244.491 220.866 C 245.449 219.705,248.092 218.871,252.764 218.255 C 259.571 217.359,264.336 216.213,265.834 215.112 C 267.850 213.630,269.388 213.035,272.438 212.555 C 273.994 212.311,276.576 211.796,278.177 211.411 C 280.946 210.745,284.568 210.706,287.018 211.316 " stroke="none" fill="#e47276" fill-rule="evenodd"></path><path id="path3" d="M134.239 100.813 C 130.928 101.904,129.839 102.611,128.900 104.282 L 128.031 105.828 128.030 126.726 C 128.028 155.724,127.950 156.083,121.221 158.285 C 119.738 158.770,116.780 159.918,114.646 160.835 C 112.512 161.753,108.584 163.136,105.917 163.908 C 103.249 164.680,99.670 165.995,97.963 166.831 C 96.256 167.667,93.121 168.974,90.997 169.736 C 88.872 170.497,85.729 171.878,84.013 172.805 C 82.297 173.731,79.462 174.958,77.714 175.533 C 75.966 176.107,73.434 177.294,72.088 178.170 C 70.742 179.047,67.808 180.575,65.567 181.567 C 63.327 182.558,60.333 184.143,58.915 185.089 C 57.496 186.035,55.240 187.420,53.901 188.167 C 52.562 188.914,50.667 190.186,49.691 190.993 C 48.714 191.801,47.129 192.923,46.169 193.487 C 43.116 195.280,36.962 201.303,35.285 204.140 C 34.444 205.563,33.329 207.235,32.808 207.854 C 32.135 208.654,31.698 209.916,31.304 212.199 L 30.748 215.417 32.121 218.161 C 35.530 224.976,41.430 228.298,56.450 231.857 C 70.090 235.090,84.549 235.962,110.684 235.128 C 126.745 234.616,129.538 234.734,134.627 236.141 C 135.800 236.466,137.330 236.823,138.025 236.934 C 138.814 237.061,139.579 237.543,140.057 238.214 L 140.824 239.291 139.956 239.524 C 139.479 239.652,138.444 239.759,137.656 239.762 C 135.205 239.771,130.931 241.603,129.396 243.303 L 128.031 244.813 128.040 257.712 L 128.049 270.611 129.107 272.551 C 129.977 274.146,130.579 274.698,132.493 275.655 L 134.821 276.819 153.055 276.941 C 176.144 277.095,178.195 276.971,179.698 275.325 C 182.230 272.553,182.347 271.641,182.347 254.756 L 182.347 239.512 181.171 237.737 C 179.533 235.263,180.298 235.367,163.337 235.312 C 148.230 235.263,145.193 235.037,144.497 233.911 C 144.120 233.301,144.170 233.290,149.370 232.803 C 152.037 232.554,155.908 232.100,157.971 231.795 C 160.035 231.490,164.923 230.980,168.834 230.661 C 176.630 230.025,177.909 229.796,180.213 228.621 C 183.816 226.785,190.318 225.330,202.446 223.645 C 207.944 222.881,210.902 222.244,214.914 220.960 C 220.670 219.117,224.564 218.328,232.112 217.473 C 234.837 217.164,237.543 216.648,238.126 216.325 C 241.140 214.655,242.950 214.003,246.333 213.370 C 248.377 212.988,251.986 212.317,254.353 211.879 C 259.043 211.012,259.894 210.722,261.775 209.347 C 263.227 208.285,267.071 207.224,273.909 205.996 C 278.881 205.104,280.360 204.601,281.283 203.489 C 282.167 202.424,284.478 201.443,289.095 200.173 C 291.788 199.432,294.764 198.278,296.747 197.205 C 298.557 196.226,301.732 194.963,303.925 194.352 C 308.362 193.114,309.681 192.560,312.669 190.677 C 313.821 189.950,316.375 188.819,318.344 188.163 C 320.313 187.507,322.948 186.350,324.201 185.592 C 327.249 183.748,330.027 182.347,330.637 182.347 C 331.497 182.346,335.931 180.098,337.445 178.895 C 338.242 178.261,340.333 177.029,342.090 176.158 C 343.848 175.286,345.856 174.086,346.552 173.492 C 347.248 172.898,349.166 171.583,350.814 170.569 C 358.525 165.826,363.859 159.650,366.864 151.983 L 368.197 148.582 366.953 145.433 C 363.896 137.698,356.663 133.547,342.008 131.120 C 339.239 130.662,335.485 129.967,333.666 129.576 C 327.134 128.173,313.984 127.289,299.303 127.265 L 293.465 127.255 292.065 125.800 C 290.104 123.761,289.428 120.240,289.428 112.063 C 289.428 100.314,288.965 100.097,263.894 100.097 C 240.317 100.097,238.619 100.331,236.087 103.930 L 234.918 105.592 234.704 116.133 C 234.422 130.025,234.373 130.223,230.722 132.143 C 227.623 133.772,220.744 135.371,209.311 137.119 C 205.897 137.641,200.170 138.610,196.585 139.274 C 192.169 140.090,189.167 140.443,187.280 140.366 L 184.493 140.252 183.517 138.506 L 182.541 136.760 182.347 121.048 C 182.066 98.304,184.766 100.463,156.353 100.256 C 137.874 100.121,136.212 100.163,134.239 100.813 M175.449 103.733 C 180.361 104.538,179.960 102.986,180.106 121.769 C 180.246 139.811,180.359 140.657,183.006 143.465 L 184.290 144.825 187.760 144.563 C 189.669 144.419,192.505 143.951,194.063 143.523 C 202.050 141.328,204.509 140.880,216.295 139.473 C 229.854 137.854,235.526 135.397,237.084 130.466 C 237.380 129.532,237.611 124.854,237.725 117.547 C 237.862 108.712,238.023 105.928,238.431 105.370 C 239.703 103.631,241.861 103.444,262.414 103.295 L 281.764 103.154 283.850 104.539 L 285.936 105.925 285.936 112.094 C 285.936 127.278,288.486 130.660,299.965 130.699 C 318.072 130.760,348.607 134.415,352.279 136.960 C 353.645 137.907,357.641 139.866,359.303 140.404 C 365.107 142.283,365.353 153.821,359.709 159.456 C 355.737 163.422,349.703 168.407,347.761 169.327 C 346.526 169.911,344.983 170.955,344.331 171.646 C 343.679 172.337,341.491 173.687,339.468 174.647 C 337.446 175.607,334.958 177.115,333.941 177.998 C 332.621 179.143,331.287 179.842,329.285 180.437 C 325.846 181.460,322.979 182.859,321.435 184.267 C 320.129 185.459,319.056 185.917,315.445 186.823 C 312.361 187.597,310.234 188.652,308.351 190.342 C 307.556 191.055,306.509 191.726,306.023 191.832 C 298.225 193.534,296.285 194.136,294.558 195.388 C 292.168 197.122,290.644 197.799,287.525 198.511 C 282.414 199.679,278.674 200.975,277.078 202.131 C 275.273 203.439,272.679 204.145,266.500 205.013 C 261.812 205.671,259.685 206.307,255.868 208.191 C 253.678 209.272,251.987 209.721,247.139 210.505 C 239.805 211.693,237.002 212.392,234.724 213.601 C 231.932 215.084,231.197 215.262,224.346 216.112 C 216.817 217.047,213.223 217.835,207.565 219.792 C 204.167 220.968,202.334 221.323,196.508 221.937 C 188.261 222.807,181.274 223.906,175.932 225.176 C 173.806 225.681,170.844 226.210,169.350 226.352 C 167.856 226.493,163.081 227.120,158.739 227.746 C 154.396 228.371,148.547 229.067,145.742 229.293 C 142.936 229.519,137.934 229.955,134.627 230.262 C 120.205 231.601,114.972 231.814,96.605 231.803 C 76.774 231.792,75.153 231.690,62.481 229.656 C 59.823 229.230,55.961 228.627,53.898 228.317 C 50.295 227.776,47.524 226.762,44.229 224.779 C 43.482 224.329,42.085 223.666,41.125 223.306 C 38.766 222.420,37.990 221.691,36.911 219.351 C 36.407 218.257,35.611 216.882,35.142 216.294 L 34.290 215.225 35.168 211.936 C 35.651 210.127,36.317 208.233,36.649 207.728 C 36.980 207.222,37.577 205.975,37.975 204.956 C 38.552 203.480,39.162 202.787,40.979 201.543 C 42.233 200.685,43.687 199.322,44.211 198.515 C 44.893 197.463,46.022 196.600,48.202 195.466 C 49.874 194.596,52.064 193.159,53.070 192.273 C 55.444 190.180,56.543 189.503,59.157 188.525 C 60.339 188.083,61.953 187.110,62.744 186.365 C 64.037 185.145,66.343 184.074,71.492 182.301 C 72.296 182.024,73.753 181.138,74.728 180.332 C 75.704 179.526,77.175 178.685,77.997 178.464 C 83.326 177.029,88.322 174.914,90.398 173.215 C 90.718 172.953,92.202 172.354,93.695 171.883 C 99.700 169.990,102.337 169.003,104.559 167.817 C 105.839 167.133,108.109 166.269,109.602 165.897 C 119.494 163.433,127.107 159.967,129.066 157.036 C 131.416 153.520,131.523 152.250,131.523 127.929 L 131.523 106.059 133.939 104.630 L 136.355 103.201 154.404 103.221 C 167.035 103.236,173.353 103.389,175.449 103.733 M291.685 144.638 C 286.962 147.032,285.955 150.895,285.944 166.655 L 285.936 179.090 287.464 180.634 C 291.326 184.534,297.747 184.131,302.830 179.669 C 303.996 178.645,304.446 178.426,308.124 177.097 C 309.125 176.736,310.959 175.630,312.199 174.641 C 313.439 173.651,315.773 171.839,317.387 170.613 C 323.306 166.115,325.134 158.637,321.654 153.160 C 319.454 149.697,311.301 146.098,302.619 144.756 C 294.247 143.462,294.012 143.459,291.685 144.638 M221.920 146.131 C 217.591 146.787,213.260 147.589,211.639 148.034 C 209.299 148.677,199.676 150.341,193.792 151.121 C 185.234 152.255,183.051 153.382,181.110 157.669 L 180.213 159.651 180.101 181.178 C 179.964 207.337,180.195 209.515,183.307 211.439 C 185.857 213.015,195.177 212.240,200.143 210.038 C 203.145 208.708,206.112 208.139,215.005 207.191 C 226.507 205.965,235.009 202.524,237.280 198.176 C 238.117 196.574,238.085 155.035,237.245 152.205 C 235.719 147.066,230.193 144.876,221.920 146.131 M300.097 147.446 C 306.104 148.318,311.574 150.034,315.691 152.336 C 323.026 156.438,321.443 164.843,312.265 170.527 C 311.334 171.104,310.048 172.064,309.408 172.660 C 308.129 173.852,306.442 174.768,302.619 176.347 C 301.232 176.920,299.311 177.958,298.351 178.654 C 294.948 181.120,294.308 181.314,292.539 180.411 C 289.638 178.931,289.639 178.936,289.483 166.197 L 289.344 154.862 290.384 151.739 C 291.123 149.519,291.762 148.331,292.590 147.634 C 293.984 146.461,293.409 146.476,300.097 147.446 M229.328 149.712 C 235.375 151.818,234.896 149.560,234.767 175.358 C 234.670 194.827,234.598 196.966,234.013 197.618 C 233.195 198.530,228.980 200.649,226.188 201.551 C 225.015 201.930,223.443 202.542,222.696 202.912 C 220.876 203.812,214.440 205.049,207.565 205.820 C 201.627 206.486,198.105 207.113,193.016 208.408 C 189.361 209.338,185.196 209.188,184.397 208.097 C 182.398 205.368,182.296 203.996,182.423 181.476 L 182.541 160.369 183.631 158.722 C 185.764 155.500,187.709 154.926,205.626 152.232 C 212.134 151.253,219.467 150.138,221.920 149.752 C 224.374 149.367,226.573 149.036,226.806 149.017 C 227.040 148.997,228.175 149.310,229.328 149.712 M121.435 170.364 C 119.835 170.770,118.089 171.453,117.556 171.882 C 116.105 173.051,113.819 173.997,110.572 174.776 C 107.254 175.572,104.526 176.827,103.396 178.077 C 102.422 179.154,100.940 179.926,98.398 180.680 C 95.624 181.502,93.956 182.420,92.086 184.153 C 91.200 184.974,89.153 186.316,87.537 187.136 C 85.531 188.153,84.346 189.033,83.806 189.906 C 83.371 190.610,82.071 191.992,80.918 192.978 C 78.516 195.030,77.770 196.669,77.417 200.674 C 77.109 204.162,77.773 205.396,81.989 209.175 C 85.717 212.516,86.065 212.667,92.532 213.740 C 95.092 214.165,98.862 215.029,100.910 215.661 C 105.626 217.117,110.760 217.744,118.138 217.764 C 125.996 217.785,127.398 217.085,130.065 211.812 L 131.329 209.311 131.450 193.801 C 131.609 173.562,131.322 172.267,126.249 170.347 C 124.390 169.644,124.277 169.644,121.435 170.364 M125.303 173.795 C 127.859 177.384,127.837 177.210,127.837 193.792 L 127.837 208.923 126.820 210.475 C 124.144 214.561,119.936 214.906,101.261 212.574 C 90.278 211.202,88.006 210.569,85.206 208.103 C 79.954 203.475,79.821 203.318,80.076 202.045 C 80.205 201.400,80.310 199.998,80.310 198.928 C 80.310 197.061,80.402 196.896,82.589 194.806 C 83.843 193.608,85.236 192.082,85.686 191.414 C 86.193 190.662,87.683 189.587,89.602 188.589 C 91.306 187.702,93.448 186.413,94.362 185.725 C 97.143 183.630,98.019 183.159,101.409 181.932 C 103.203 181.283,105.562 180.087,106.651 179.275 C 108.946 177.562,110.170 177.077,116.831 175.238 C 119.527 174.493,122.233 173.613,122.845 173.282 C 124.337 172.473,124.367 172.480,125.303 173.795 M278.177 211.411 C 276.576 211.796,273.994 212.311,272.438 212.555 C 269.388 213.035,267.850 213.630,265.834 215.112 C 264.336 216.213,259.571 217.359,252.764 218.255 C 248.092 218.871,245.449 219.705,244.491 220.866 C 244.208 221.208,242.827 221.871,241.421 222.339 C 239.485 222.983,238.366 223.674,236.795 225.196 L 234.724 227.202 234.724 248.582 L 234.724 269.961 235.984 272.383 C 238.422 277.063,237.678 276.937,262.964 276.980 C 291.941 277.029,289.428 280.324,289.428 242.289 C 289.428 208.656,289.934 211.384,283.608 210.903 C 281.914 210.774,280.132 210.941,278.177 211.411 M284.481 214.219 L 285.936 214.953 285.936 242.438 L 285.936 269.923 283.995 271.739 L 282.054 273.554 262.559 273.412 C 240.886 273.254,239.853 273.152,238.576 271.059 C 237.864 269.891,237.830 268.867,237.829 248.661 L 237.827 227.487 238.700 226.695 C 239.180 226.260,241.720 225.263,244.344 224.481 C 246.967 223.699,250.218 222.474,251.567 221.759 C 253.105 220.943,255.087 220.285,256.883 219.995 C 266.668 218.417,270.365 217.384,272.158 215.731 C 273.029 214.928,274.732 214.382,278.758 213.614 C 281.710 213.052,282.289 213.113,284.481 214.219 M179.317 238.885 C 180.147 239.885,180.290 269.544,179.472 271.126 C 178.433 273.135,177.231 273.253,156.159 273.412 C 134.760 273.574,136.207 273.693,133.523 271.556 L 131.523 269.963 131.523 257.770 L 131.523 245.577 133.735 244.162 C 135.921 242.764,136.011 242.743,141.397 242.440 C 149.981 241.958,158.127 240.976,162.264 239.926 C 169.549 238.076,178.206 237.548,179.317 238.885 " stroke="none" fill="#f4a4a4" fill-rule="evenodd"></path><path id="path4" d="M15.519 1.497 L 15.519 2.993 13.256 3.230 C 9.511 3.621,9.327 3.827,9.317 7.628 L 9.311 9.631 7.771 9.891 C 5.072 10.347,2.583 14.122,3.743 15.999 C 3.894 16.244,3.817 16.302,3.554 16.140 C 2.790 15.667,3.115 365.777,3.880 366.380 C 4.200 366.632,4.811 367.535,5.238 368.385 C 5.717 369.342,6.532 370.190,7.371 370.608 C 9.380 371.608,9.787 372.346,9.566 374.588 C 9.462 375.655,9.465 376.178,9.575 375.752 C 9.867 374.616,10.409 374.177,10.206 375.241 C 9.972 376.465,11.652 378.074,12.840 377.763 C 13.311 377.640,13.536 377.688,13.344 377.870 C 13.153 378.050,12.648 378.284,12.221 378.388 C 11.794 378.492,12.318 378.553,13.385 378.523 C 15.274 378.469,15.328 378.498,15.425 379.631 C 15.726 383.155,16.805 384.481,19.368 384.481 C 22.223 384.481,22.890 384.858,22.890 386.469 L 22.890 387.973 200.000 387.973 L 377.110 387.973 377.110 386.472 C 377.110 384.855,377.853 384.497,381.237 384.485 C 383.234 384.478,384.142 383.423,384.431 380.776 L 384.683 378.468 386.619 378.523 C 387.684 378.553,388.206 378.492,387.779 378.388 C 386.650 378.112,386.198 377.563,387.268 377.767 C 388.493 378.001,390.101 376.321,389.791 375.132 C 389.667 374.662,389.715 374.437,389.897 374.629 C 390.077 374.820,390.315 375.325,390.425 375.752 C 390.535 376.178,390.532 375.633,390.419 374.540 C 390.193 372.347,390.259 372.257,392.822 371.281 C 394.380 370.688,394.750 370.186,396.292 366.574 C 396.943 365.050,397.250 15.257,396.600 15.655 C 396.443 15.751,396.314 14.872,396.314 13.701 C 396.314 11.045,395.075 9.699,392.630 9.699 C 390.768 9.699,390.559 9.376,390.641 6.628 C 390.684 5.202,390.506 4.175,390.128 3.675 C 389.810 3.254,389.544 2.255,389.537 1.455 L 389.525 0.000 202.522 0.000 L 15.519 0.000 15.519 1.497 M369.738 6.376 C 372.942 7.754,382.102 17.504,383.704 21.242 C 384.184 22.362,384.821 23.278,385.119 23.278 C 385.418 23.278,386.180 24.095,386.813 25.093 L 387.964 26.908 387.965 186.728 C 387.966 296.918,387.839 347.367,387.557 349.186 C 387.122 351.989,386.312 353.924,384.970 355.364 C 384.518 355.849,383.759 357.231,383.284 358.434 C 381.430 363.132,380.963 363.925,379.458 364.921 C 378.627 365.471,377.498 366.600,376.948 367.431 C 375.936 368.961,372.238 371.020,370.514 371.015 C 370.094 371.014,367.253 372.971,366.482 373.793 C 366.032 374.272,365.141 374.781,364.500 374.924 C 363.860 375.067,362.813 375.312,362.173 375.468 C 360.651 375.839,39.349 375.839,37.827 375.468 C 37.187 375.312,36.140 375.067,35.500 374.924 C 34.859 374.781,33.968 374.272,33.518 373.793 C 32.698 372.919,29.486 370.744,29.486 371.062 C 29.486 372.220,23.810 368.786,22.627 366.912 C 22.114 366.099,21.395 365.328,21.031 365.200 C 19.601 364.697,18.610 363.292,17.288 359.895 C 16.416 357.657,15.409 355.827,14.550 354.924 C 13.803 354.138,13.188 353.265,13.185 352.984 C 13.182 352.703,12.928 351.775,12.620 350.921 C 11.887 348.889,11.922 32.309,12.655 31.388 C 12.893 31.089,13.387 29.927,13.753 28.807 C 14.118 27.687,14.550 26.770,14.712 26.770 C 15.232 26.770,16.917 23.186,17.995 19.787 C 19.027 16.530,19.093 16.436,23.284 12.267 C 25.619 9.945,27.435 7.894,27.320 7.708 C 27.131 7.402,27.684 7.210,28.419 7.326 C 28.579 7.351,28.710 7.197,28.710 6.984 C 28.710 6.770,28.841 6.616,29.001 6.641 C 29.161 6.667,29.379 6.653,29.486 6.612 C 30.147 6.354,31.567 6.111,33.948 5.847 C 40.962 5.068,367.896 5.584,369.738 6.376 M317.753 190.872 C 317.317 191.148,317.284 191.348,317.620 191.684 C 318.156 192.220,321.001 191.435,320.640 190.851 C 320.354 190.388,318.497 190.402,317.753 190.872 M304.559 197.090 C 304.559 197.304,305.082 197.478,305.723 197.478 C 306.363 197.478,306.887 197.304,306.887 197.090 C 306.887 196.877,306.363 196.702,305.723 196.702 C 305.082 196.702,304.559 196.877,304.559 197.090 M287.967 202.815 C 286.615 203.046,287.355 203.686,288.966 203.680 C 290.225 203.675,292.181 202.974,291.174 202.889 C 290.960 202.871,290.349 202.813,289.816 202.761 C 289.282 202.708,288.450 202.733,287.967 202.815 M201.358 227.304 C 201.358 227.797,203.495 228.147,204.850 227.876 C 206.809 227.484,206.146 226.964,203.686 226.964 C 202.405 226.964,201.358 227.117,201.358 227.304 " stroke="none" fill="#ae242c" fill-rule="evenodd"></path></g></svg>