<?xml version="1.0" encoding="UTF-8" standalone="no"?>
<svg
   xmlns:dc="http://purl.org/dc/elements/1.1/"
   xmlns:cc="http://creativecommons.org/ns#"
   xmlns:rdf="http://www.w3.org/1999/02/22-rdf-syntax-ns#"
   xmlns:svg="http://www.w3.org/2000/svg"
   xmlns="http://www.w3.org/2000/svg"
   xmlns:sodipodi="http://sodipodi.sourceforge.net/DTD/sodipodi-0.dtd"
   xmlns:inkscape="http://www.inkscape.org/namespaces/inkscape"
   id="svg"
   version="1.1"
   width="400"
   height="373.7704918032787"
   viewBox="0, 0, 400,373.7704918032787"
   sodipodi:docname="halotec20.svg"
   inkscape:version="0.92.4 (5da689c313, 2019-01-14)">
  <metadata
     id="metadata13">
    <rdf:RDF>
      <cc:Work
         rdf:about="">
        <dc:format>image/svg+xml</dc:format>
        <dc:type
           rdf:resource="http://purl.org/dc/dcmitype/StillImage" />
        <dc:title></dc:title>
      </cc:Work>
    </rdf:RDF>
  </metadata>
  <defs
     id="defs11" />
  <sodipodi:namedview
     pagecolor="#ffffff"
     bordercolor="#666666"
     borderopacity="1"
     objecttolerance="10"
     gridtolerance="10"
     guidetolerance="10"
     inkscape:pageopacity="0"
     inkscape:pageshadow="2"
     inkscape:window-width="1366"
     inkscape:window-height="745"
     id="namedview9"
     showgrid="false"
     inkscape:zoom="0.63140353"
     inkscape:cx="200"
     inkscape:cy="186.88524"
     inkscape:window-x="-8"
     inkscape:window-y="-8"
     inkscape:window-maximized="1"
     inkscape:current-layer="svgg" />
  <g
     id="svgg">
    <path
       id="path1"
       d="M163.645 56.141 L 162.243 56.969 162.221 68.578 C 162.187 86.165,162.267 86.018,151.028 89.123 C 149.692 89.492,147.589 90.256,146.355 90.820 C 145.121 91.384,143.187 92.150,142.056 92.521 C 140.925 92.892,139.159 93.657,138.131 94.220 C 137.103 94.784,135.388 95.526,134.320 95.870 C 133.252 96.214,131.974 96.813,131.478 97.203 C 130.983 97.593,129.670 98.269,128.561 98.706 C 126.507 99.516,125.403 100.144,121.161 102.921 C 119.846 103.782,118.163 104.857,117.422 105.310 C 116.681 105.763,115.738 106.521,115.327 106.995 C 114.916 107.469,114.043 108.238,113.387 108.704 C 112.731 109.171,112.078 109.926,111.936 110.384 C 111.794 110.841,111.373 111.647,111.001 112.176 C 107.358 117.353,111.881 122.275,122.121 124.276 C 130.680 125.949,131.651 126.048,141.308 126.238 C 155.398 126.516,178.851 124.539,188.785 122.235 C 191.355 121.639,195.716 120.873,198.475 120.532 C 201.235 120.191,204.684 119.504,206.139 119.005 C 207.594 118.506,210.906 117.770,213.498 117.369 C 216.090 116.969,219.011 116.287,219.988 115.855 C 220.966 115.422,223.555 114.749,225.743 114.358 C 227.930 113.967,230.654 113.231,231.797 112.723 C 232.940 112.215,235.547 111.472,237.591 111.072 C 239.636 110.673,242.065 109.927,242.991 109.414 C 243.916 108.902,245.986 108.128,247.592 107.694 C 249.197 107.261,250.979 106.560,251.553 106.136 C 252.126 105.712,253.833 105.040,255.346 104.643 C 256.859 104.246,258.698 103.505,259.432 102.996 C 260.166 102.487,261.854 101.714,263.183 101.277 C 264.512 100.841,266.067 100.151,266.639 99.744 C 267.210 99.337,268.642 98.621,269.820 98.153 C 270.999 97.684,272.863 96.689,273.963 95.940 C 275.063 95.192,276.160 94.579,276.401 94.579 C 276.642 94.579,277.424 94.099,278.139 93.512 C 278.854 92.926,279.944 92.185,280.561 91.867 C 282.148 91.048,286.688 86.963,287.754 85.395 C 293.967 76.251,283.463 70.897,257.633 70.040 L 250.033 69.788 248.994 68.750 C 247.751 67.507,247.486 66.156,247.481 61.033 L 247.477 57.207 246.019 56.242 L 244.561 55.277 233.151 55.396 C 218.628 55.546,219.922 54.745,219.750 63.699 C 219.572 72.921,219.174 73.286,207.455 74.955 C 205.102 75.290,200.959 75.986,198.248 76.501 C 189.669 78.131,189.799 78.290,189.533 65.794 C 189.410 60.042,189.194 56.751,188.905 56.262 C 188.176 55.025,165.716 54.918,163.645 56.141 M256.204 79.043 C 264.119 80.557,267.768 84.393,265.496 88.812 C 264.352 91.038,260.078 94.530,256.822 95.899 C 255.897 96.288,254.600 97.006,253.939 97.496 C 252.257 98.742,250.218 98.926,248.692 97.969 L 247.477 97.207 247.477 90.264 C 247.477 78.476,248.224 77.516,256.204 79.043 M217.370 80.157 C 219.741 81.148,219.813 81.584,219.813 94.884 L 219.813 106.814 218.917 107.710 C 217.183 109.444,212.391 111.034,206.553 111.812 C 203.593 112.206,200.108 112.867,198.810 113.281 C 189.944 116.104,189.391 115.165,189.598 97.633 C 189.780 82.187,188.528 83.612,204.112 81.105 C 208.121 80.460,211.472 79.864,211.558 79.779 C 211.943 79.400,216.225 79.679,217.370 80.157 M160.248 93.060 C 162.049 94.158,162.370 96.259,162.180 105.691 C 161.931 118.014,161.092 118.535,145.809 115.863 C 138.806 114.638,138.275 114.429,135.744 111.894 C 132.749 108.896,134.676 104.078,139.992 101.270 C 140.809 100.838,141.942 100.094,142.509 99.617 C 143.076 99.140,144.443 98.412,145.547 97.999 C 146.652 97.585,148.179 96.824,148.941 96.307 C 149.703 95.790,151.199 95.112,152.266 94.801 C 153.333 94.489,155.215 93.815,156.449 93.301 C 159.171 92.169,158.822 92.191,160.248 93.060 M241.406 115.335 C 240.225 115.629,238.559 116.226,237.702 116.664 C 236.845 117.101,234.247 117.852,231.930 118.332 C 229.612 118.813,227.241 119.446,226.662 119.739 C 226.082 120.033,224.682 120.569,223.551 120.931 C 219.601 122.195,219.813 121.427,219.813 134.493 C 219.813 150.036,218.375 148.518,233.271 148.702 L 244.299 148.838 245.888 147.474 L 247.477 146.110 247.477 131.194 L 247.477 116.279 246.616 115.715 C 245.309 114.859,243.772 114.747,241.406 115.335 M181.121 128.632 C 179.888 128.806,177.533 129.205,175.888 129.519 C 174.243 129.832,171.178 130.244,169.076 130.435 C 166.270 130.689,164.854 131.006,163.749 131.628 L 162.243 132.474 162.243 139.506 L 162.243 146.537 163.832 147.689 L 165.421 148.841 176.449 148.703 C 188.139 148.557,188.446 148.518,189.108 147.065 C 189.751 145.654,189.667 129.741,189.012 128.879 C 188.457 128.147,185.266 128.047,181.121 128.632 M249.824 234.668 C 250.807 234.745,252.321 234.744,253.189 234.666 C 254.056 234.587,253.252 234.524,251.402 234.525 C 249.551 234.526,248.842 234.591,249.824 234.668 M237.856 270.549 C 238.424 270.635,239.265 270.632,239.725 270.544 C 240.185 270.455,239.720 270.384,238.692 270.387 C 237.664 270.390,237.287 270.463,237.856 270.549 M94.860 329.995 C 95.939 330.071,97.706 330.071,98.785 329.995 C 99.864 329.920,98.981 329.858,96.822 329.858 C 94.664 329.858,93.780 329.920,94.860 329.995 M249.830 329.998 C 251.433 330.068,253.956 330.068,255.438 329.997 C 256.919 329.926,255.607 329.869,252.523 329.869 C 249.439 329.870,248.227 329.928,249.830 329.998 "
       stroke="none"
       fill="#f8efef"
       fill-rule="evenodd" />
    <path
       id="path2"
       d="M108.871 3.321 C 106.751 3.721,101.308 9.500,101.308 11.352 C 101.308 11.654,100.678 13.050,99.907 14.455 L 98.505 17.009 98.505 103.603 L 98.505 190.197 99.667 191.827 C 100.306 192.724,101.033 194.086,101.282 194.853 C 101.940 196.876,104.643 199.473,107.284 200.618 C 108.521 201.154,109.533 201.721,109.533 201.877 C 109.533 203.390,107.962 203.364,200.000 203.364 C 292.038 203.364,290.467 203.390,290.467 201.877 C 290.467 201.721,291.494 201.148,292.748 200.604 C 295.394 199.456,298.071 196.811,298.740 194.683 C 298.981 193.918,299.465 192.983,299.816 192.606 C 301.565 190.729,301.495 194.534,301.495 101.405 L 301.495 13.839 300.486 12.903 C 299.931 12.388,299.216 11.419,298.899 10.750 C 297.780 8.392,292.855 3.774,291.021 3.363 C 289.216 2.958,111.013 2.917,108.871 3.321 M189.934 53.487 C 191.551 55.219,191.771 56.655,191.774 65.492 C 191.775 70.628,191.916 73.688,192.159 73.838 C 193.015 74.367,197.249 74.072,199.065 73.356 C 200.093 72.951,203.626 72.255,206.916 71.809 C 210.206 71.363,213.411 70.919,214.039 70.823 C 216.106 70.506,216.821 68.280,216.829 62.140 C 216.840 52.577,216.873 52.557,232.830 52.415 C 249.657 52.265,249.505 52.192,249.812 60.561 C 249.907 63.131,250.173 65.696,250.403 66.262 L 250.823 67.290 256.165 67.290 C 266.711 67.290,278.557 68.534,281.131 69.912 C 281.532 70.126,282.969 70.644,284.324 71.063 C 286.891 71.856,290.734 74.843,291.943 76.985 C 293.151 79.126,292.344 84.911,290.703 85.869 C 290.421 86.034,289.829 86.883,289.387 87.757 C 288.945 88.631,288.432 89.346,288.248 89.346 C 288.064 89.346,287.268 90.033,286.480 90.872 C 285.692 91.711,284.542 92.661,283.925 92.984 C 283.308 93.306,282.603 93.853,282.358 94.201 C 282.112 94.548,280.851 95.306,279.554 95.884 C 278.257 96.463,276.838 97.318,276.400 97.785 C 275.962 98.252,274.464 98.986,273.073 99.416 C 271.681 99.845,270.345 100.466,270.105 100.795 C 269.865 101.124,268.502 101.790,267.077 102.276 C 265.652 102.761,264.822 103.173,265.234 103.192 C 265.889 103.221,265.870 103.269,265.079 103.586 C 264.582 103.784,263.994 103.883,263.770 103.805 C 263.547 103.727,262.895 104.053,262.321 104.531 C 261.696 105.050,260.523 105.499,259.403 105.648 C 258.038 105.829,257.582 106.035,257.725 106.406 C 257.854 106.743,257.639 106.914,257.091 106.910 C 256.419 106.906,256.368 106.836,256.822 106.542 C 257.131 106.343,257.215 106.180,257.009 106.181 C 256.804 106.181,255.903 106.679,255.007 107.286 C 254.103 107.898,252.405 108.581,251.190 108.820 C 249.987 109.056,249.038 109.436,249.081 109.663 C 249.124 109.890,248.810 110.130,248.384 110.195 C 247.627 110.312,247.633 110.361,248.665 112.406 L 249.720 114.498 249.720 131.093 C 249.720 153.823,251.463 151.544,233.953 151.705 C 215.693 151.873,216.832 153.004,216.826 134.674 L 216.822 122.619 218.124 121.178 C 218.840 120.386,219.317 119.628,219.183 119.495 C 218.617 118.929,214.332 119.269,212.913 119.992 C 210.607 121.168,209.464 121.437,204.230 122.037 C 200.960 122.413,198.507 122.917,196.940 123.537 C 195.642 124.051,193.901 124.640,193.073 124.845 C 190.509 125.480,190.037 126.010,190.885 127.303 C 191.512 128.259,191.602 129.304,191.707 136.866 C 191.848 146.964,191.546 149.257,189.876 150.773 L 188.716 151.827 175.742 151.708 C 158.381 151.548,159.521 152.434,159.700 139.256 C 159.800 131.861,159.889 130.834,160.483 130.178 C 161.607 128.938,160.658 128.848,145.794 128.775 C 128.968 128.692,122.895 128.256,120.195 126.938 C 119.162 126.435,117.502 125.840,116.504 125.618 C 113.019 124.841,108.426 121.369,107.604 118.891 C 106.620 115.926,107.398 111.412,109.101 110.210 C 109.483 109.940,110.064 109.198,110.393 108.560 C 110.721 107.922,111.381 107.144,111.860 106.831 C 112.339 106.517,113.340 105.651,114.085 104.906 C 114.830 104.161,115.689 103.551,115.994 103.551 C 116.300 103.551,116.832 103.120,117.177 102.593 C 117.523 102.066,118.512 101.332,119.375 100.962 C 120.239 100.592,121.184 100.001,121.476 99.650 C 122.111 98.884,124.243 97.778,125.794 97.410 C 126.411 97.263,127.361 96.720,127.904 96.203 C 128.448 95.686,130.026 94.852,131.412 94.349 C 132.797 93.846,134.351 93.104,134.865 92.700 C 135.378 92.296,136.996 91.611,138.460 91.179 C 139.924 90.747,141.374 90.177,141.682 89.914 C 142.739 89.013,144.488 88.315,147.253 87.692 C 148.775 87.349,150.441 86.736,150.957 86.331 C 151.472 85.926,152.834 85.332,153.984 85.012 C 159.852 83.378,159.378 84.758,159.619 68.598 C 159.883 50.800,158.210 52.419,176.392 52.370 L 188.859 52.336 189.934 53.487 M250.148 82.995 C 248.956 86.415,250.074 97.849,251.392 95.716 C 251.514 95.519,252.637 94.985,253.888 94.529 C 255.139 94.073,256.833 93.140,257.652 92.455 C 258.472 91.770,259.552 91.107,260.053 90.981 C 260.613 90.841,261.251 90.191,261.706 89.299 C 262.114 88.500,262.768 87.645,263.160 87.401 C 263.847 86.972,263.836 86.911,262.871 85.778 C 262.320 85.131,261.701 84.316,261.495 83.967 C 261.034 83.185,257.652 82.348,253.606 82.016 L 250.576 81.767 250.148 82.995 M209.907 83.186 C 208.262 83.452,205.963 83.924,204.799 84.235 C 203.635 84.547,201.028 84.989,199.005 85.218 C 191.577 86.057,191.776 85.662,191.776 99.623 L 191.776 110.162 193.216 110.593 C 195.474 111.270,206.543 110.212,208.348 109.146 C 209.087 108.710,210.980 108.130,212.555 107.857 C 216.896 107.103,216.617 107.969,216.749 94.823 L 216.862 83.503 215.890 83.060 C 214.729 82.531,213.845 82.549,209.907 83.186 M153.084 96.802 C 152.673 96.970,152.012 97.469,151.616 97.909 C 151.219 98.350,149.734 99.063,148.316 99.494 C 146.897 99.925,145.640 100.528,145.523 100.833 C 145.405 101.139,144.283 101.857,143.029 102.428 C 136.561 105.374,135.755 109.300,140.970 112.449 C 142.621 113.446,153.519 114.355,157.009 113.788 L 159.065 113.453 159.309 111.400 C 159.637 108.633,159.676 102.075,159.383 98.972 L 159.144 96.449 156.488 96.472 C 155.027 96.485,153.495 96.634,153.084 96.802 M238.567 113.084 C 238.857 113.374,241.840 113.425,242.119 113.145 C 242.256 113.009,241.470 112.897,240.374 112.897 C 239.277 112.897,238.464 112.981,238.567 113.084 M203.178 122.991 C 203.315 123.214,202.863 123.364,202.056 123.364 C 201.250 123.364,200.797 123.214,200.935 122.991 C 201.062 122.785,201.566 122.617,202.056 122.617 C 202.546 122.617,203.050 122.785,203.178 122.991 M96.861 202.336 C 96.811 203.659,98.023 204.871,99.346 204.822 C 100.321 204.785,100.311 204.768,99.140 204.491 C 97.616 204.130,97.552 204.066,97.191 202.542 C 96.914 201.372,96.897 201.361,96.861 202.336 M302.798 202.336 C 302.789 203.594,302.292 204.154,300.889 204.485 C 299.712 204.763,299.696 204.786,300.654 204.822 C 301.925 204.869,303.178 203.682,303.178 202.430 C 303.178 201.916,303.093 201.495,302.991 201.495 C 302.888 201.495,302.801 201.874,302.798 202.336 "
       stroke="none"
       fill="#e32c2d"
       fill-rule="evenodd" />
    <path
       id="path3"
       d="M162.732 52.749 C 159.910 53.565,159.836 53.942,159.619 68.598 C 159.378 84.758,159.852 83.378,153.984 85.012 C 152.834 85.332,151.472 85.926,150.957 86.331 C 150.441 86.736,148.775 87.349,147.253 87.692 C 144.488 88.315,142.739 89.013,141.682 89.914 C 141.374 90.177,139.924 90.747,138.460 91.179 C 136.996 91.611,135.378 92.296,134.865 92.700 C 134.351 93.104,132.797 93.846,131.412 94.349 C 130.026 94.852,128.448 95.686,127.904 96.203 C 127.361 96.720,126.411 97.263,125.794 97.410 C 124.243 97.778,122.111 98.884,121.476 99.650 C 121.184 100.001,120.239 100.592,119.375 100.962 C 118.512 101.332,117.523 102.066,117.177 102.593 C 116.832 103.120,116.300 103.551,115.994 103.551 C 115.689 103.551,114.830 104.161,114.085 104.906 C 113.340 105.651,112.339 106.517,111.860 106.831 C 111.381 107.144,110.721 107.922,110.393 108.560 C 110.064 109.198,109.483 109.940,109.101 110.210 C 107.398 111.412,106.620 115.926,107.604 118.891 C 108.426 121.369,113.019 124.841,116.504 125.618 C 117.502 125.840,119.162 126.435,120.195 126.938 C 122.895 128.256,128.968 128.692,145.794 128.775 C 160.658 128.848,161.607 128.938,160.483 130.178 C 159.889 130.834,159.800 131.861,159.700 139.256 C 159.521 152.434,158.381 151.548,175.742 151.708 L 188.716 151.827 189.876 150.773 C 191.546 149.257,191.848 146.964,191.707 136.866 C 191.602 129.304,191.512 128.259,190.885 127.303 C 190.037 126.010,190.509 125.480,193.073 124.845 C 193.901 124.640,195.642 124.051,196.940 123.537 C 198.507 122.917,200.960 122.413,204.230 122.037 C 209.464 121.437,210.607 121.168,212.913 119.992 C 214.332 119.269,218.617 118.929,219.183 119.495 C 219.317 119.628,218.840 120.386,218.124 121.178 L 216.822 122.619 216.826 134.674 C 216.832 153.004,215.693 151.873,233.953 151.705 C 251.463 151.544,249.723 153.815,249.711 131.134 C 249.703 113.333,249.654 112.853,247.619 110.605 C 246.911 109.823,247.031 109.756,250.550 108.979 C 252.260 108.601,254.111 107.894,255.095 107.242 C 256.095 106.580,257.676 105.981,259.072 105.735 C 260.651 105.457,261.764 105.002,262.564 104.309 C 263.210 103.749,264.965 102.922,266.464 102.471 C 267.963 102.020,269.527 101.314,269.940 100.902 C 270.352 100.489,271.795 99.810,273.146 99.393 C 274.497 98.976,275.962 98.252,276.400 97.785 C 276.838 97.318,278.257 96.463,279.554 95.884 C 280.851 95.306,282.112 94.548,282.358 94.201 C 282.603 93.853,283.308 93.306,283.925 92.984 C 284.542 92.661,285.692 91.711,286.480 90.872 C 287.268 90.033,288.064 89.346,288.248 89.346 C 288.432 89.346,288.945 88.631,289.387 87.757 C 289.829 86.883,290.421 86.034,290.703 85.869 C 292.344 84.911,293.151 79.126,291.943 76.985 C 290.734 74.843,286.891 71.856,284.324 71.063 C 282.969 70.644,281.532 70.126,281.131 69.912 C 278.557 68.534,266.711 67.290,256.165 67.290 L 250.823 67.290 250.403 66.262 C 250.173 65.696,249.907 63.131,249.812 60.561 C 249.505 52.192,249.657 52.265,232.830 52.415 C 216.873 52.557,216.840 52.577,216.829 62.140 C 216.821 68.280,216.106 70.506,214.039 70.823 C 213.411 70.919,210.206 71.363,206.916 71.809 C 203.626 72.255,200.093 72.951,199.065 73.356 C 197.249 74.072,193.015 74.367,192.159 73.838 C 191.916 73.688,191.775 70.628,191.774 65.492 C 191.771 56.655,191.551 55.219,189.934 53.487 L 188.859 52.336 176.392 52.370 C 169.535 52.389,163.388 52.559,162.732 52.749 M188.905 56.262 C 189.194 56.751,189.410 60.042,189.533 65.794 C 189.799 78.290,189.669 78.131,198.248 76.501 C 200.959 75.986,205.102 75.290,207.455 74.955 C 219.174 73.286,219.572 72.921,219.750 63.699 C 219.922 54.745,218.628 55.546,233.151 55.396 L 244.561 55.277 246.019 56.242 L 247.477 57.207 247.481 61.033 C 247.486 66.156,247.751 67.507,248.994 68.750 L 250.033 69.788 257.633 70.040 C 283.463 70.897,293.967 76.251,287.754 85.395 C 286.688 86.963,282.148 91.048,280.561 91.867 C 279.944 92.185,278.854 92.926,278.139 93.512 C 277.424 94.099,276.642 94.579,276.401 94.579 C 276.160 94.579,275.063 95.192,273.963 95.940 C 272.863 96.689,270.999 97.684,269.820 98.153 C 268.642 98.621,267.210 99.337,266.639 99.744 C 266.067 100.151,264.512 100.841,263.183 101.277 C 261.854 101.714,260.166 102.487,259.432 102.996 C 258.698 103.505,256.859 104.246,255.346 104.643 C 253.833 105.040,252.126 105.712,251.553 106.136 C 250.979 106.560,249.197 107.261,247.592 107.694 C 245.986 108.128,243.916 108.902,242.991 109.414 C 242.065 109.927,239.636 110.673,237.591 111.072 C 235.547 111.472,232.940 112.215,231.797 112.723 C 230.654 113.231,227.930 113.967,225.743 114.358 C 223.555 114.749,220.966 115.422,219.988 115.855 C 219.011 116.287,216.090 116.969,213.498 117.369 C 210.906 117.770,207.594 118.506,206.139 119.005 C 204.684 119.504,201.235 120.191,198.475 120.532 C 195.716 120.873,191.355 121.639,188.785 122.235 C 178.851 124.539,155.398 126.516,141.308 126.238 C 131.651 126.048,130.680 125.949,122.121 124.276 C 111.881 122.275,107.358 117.353,111.001 112.176 C 111.373 111.647,111.794 110.841,111.936 110.384 C 112.078 109.926,112.731 109.171,113.387 108.704 C 114.043 108.238,114.916 107.469,115.327 106.995 C 115.738 106.521,116.681 105.763,117.422 105.310 C 118.163 104.857,119.846 103.782,121.161 102.921 C 125.403 100.144,126.507 99.516,128.561 98.706 C 129.670 98.269,130.983 97.593,131.478 97.203 C 131.974 96.813,133.252 96.214,134.320 95.870 C 135.388 95.526,137.103 94.784,138.131 94.220 C 139.159 93.657,140.925 92.892,142.056 92.521 C 143.187 92.150,145.121 91.384,146.355 90.820 C 147.589 90.256,149.692 89.492,151.028 89.123 C 162.267 86.018,162.187 86.165,162.221 68.578 L 162.243 56.969 163.645 56.141 C 165.716 54.918,188.176 55.025,188.905 56.262 M249.256 79.243 C 247.834 80.361,247.477 82.575,247.477 90.264 L 247.477 97.207 248.692 97.969 C 250.218 98.926,252.257 98.742,253.939 97.496 C 254.600 97.006,255.897 96.288,256.822 95.899 C 266.541 91.812,269.060 84.221,261.809 80.871 C 257.006 78.652,250.998 77.873,249.256 79.243 M211.558 79.779 C 211.472 79.864,208.121 80.460,204.112 81.105 C 188.528 83.612,189.780 82.187,189.598 97.633 C 189.391 115.165,189.944 116.104,198.810 113.281 C 200.108 112.867,203.593 112.206,206.553 111.812 C 212.391 111.034,217.183 109.444,218.917 107.710 L 219.813 106.814 219.813 94.884 C 219.813 81.584,219.741 81.148,217.370 80.157 C 216.225 79.679,211.943 79.400,211.558 79.779 M258.879 82.799 C 260.139 83.099,261.285 83.610,261.495 83.967 C 261.701 84.316,262.320 85.131,262.871 85.778 C 263.836 86.911,263.847 86.972,263.160 87.401 C 262.768 87.645,262.114 88.500,261.706 89.299 C 261.251 90.191,260.613 90.841,260.053 90.981 C 259.552 91.107,258.472 91.770,257.652 92.455 C 256.833 93.140,255.139 94.073,253.888 94.529 C 252.637 94.985,251.514 95.519,251.392 95.716 C 250.074 97.849,248.956 86.415,250.148 82.995 L 250.576 81.767 253.606 82.016 C 255.272 82.153,257.645 82.505,258.879 82.799 M215.890 83.060 L 216.862 83.503 216.749 94.823 C 216.617 107.969,216.896 107.103,212.555 107.857 C 210.980 108.130,209.087 108.710,208.348 109.146 C 206.543 110.212,195.474 111.270,193.216 110.593 L 191.776 110.162 191.776 99.623 C 191.776 85.662,191.577 86.057,199.005 85.218 C 201.028 84.989,203.635 84.547,204.799 84.235 C 209.768 82.906,214.460 82.408,215.890 83.060 M156.449 93.301 C 155.215 93.815,153.333 94.489,152.266 94.801 C 151.199 95.112,149.703 95.790,148.941 96.307 C 148.179 96.824,146.652 97.585,145.547 97.999 C 144.443 98.412,143.076 99.140,142.509 99.617 C 141.942 100.094,140.809 100.838,139.992 101.270 C 134.676 104.078,132.749 108.896,135.744 111.894 C 138.275 114.429,138.806 114.638,145.809 115.863 C 161.092 118.535,161.931 118.014,162.180 105.691 C 162.433 93.112,161.541 91.182,156.449 93.301 M159.383 98.972 C 159.676 102.075,159.637 108.633,159.309 111.400 L 159.065 113.453 157.009 113.788 C 153.519 114.355,142.621 113.446,140.970 112.449 C 135.755 109.300,136.561 105.374,143.029 102.428 C 144.283 101.857,145.405 101.139,145.523 100.833 C 145.640 100.528,146.897 99.925,148.316 99.494 C 149.734 99.063,151.219 98.350,151.616 97.909 C 152.659 96.750,153.510 96.499,156.488 96.472 L 159.144 96.449 159.383 98.972 M242.119 113.145 C 241.840 113.425,238.857 113.374,238.567 113.084 C 238.464 112.981,239.277 112.897,240.374 112.897 C 241.470 112.897,242.256 113.009,242.119 113.145 M246.616 115.715 L 247.477 116.279 247.477 131.194 L 247.477 146.110 245.888 147.474 L 244.299 148.838 233.271 148.702 C 218.375 148.518,219.813 150.036,219.813 134.493 C 219.813 121.427,219.601 122.195,223.551 120.931 C 224.682 120.569,226.082 120.033,226.662 119.739 C 227.241 119.446,229.612 118.813,231.930 118.332 C 234.247 117.852,236.845 117.101,237.702 116.664 C 241.169 114.895,244.778 114.511,246.616 115.715 M189.012 128.879 C 189.667 129.741,189.751 145.654,189.108 147.065 C 188.446 148.518,188.139 148.557,176.449 148.703 L 165.421 148.841 163.832 147.689 L 162.243 146.537 162.243 139.506 L 162.243 132.474 163.749 131.628 C 164.854 131.006,166.270 130.689,169.076 130.435 C 171.178 130.244,174.243 129.832,175.888 129.519 C 183.470 128.074,188.225 127.842,189.012 128.879 "
       stroke="none"
       fill="#e7787a"
       fill-rule="evenodd" />
    <path
       id="path4"
       d="M100.403 2.240 C 100.694 4.812,100.255 5.687,98.721 5.589 C 96.881 5.473,96.822 5.532,96.822 7.517 C 96.822 9.104,96.723 9.388,96.231 9.199 C 95.906 9.074,95.307 8.972,94.901 8.972 C 94.432 8.972,94.248 8.801,94.398 8.505 C 94.528 8.248,94.370 8.364,94.046 8.763 C 93.336 9.639,93.306 10.154,93.925 10.821 C 94.293 11.217,94.293 11.269,93.928 11.063 C 93.242 10.675,93.237 193.463,93.924 193.891 C 94.182 194.052,94.747 194.203,95.180 194.227 C 97.118 194.336,97.271 194.589,97.013 197.264 C 96.371 203.906,97.415 205.078,103.426 204.471 C 106.732 204.137,108.037 204.599,108.037 206.102 C 108.037 207.175,108.699 207.850,109.749 207.850 C 110.196 207.850,110.794 208.135,111.076 208.483 C 111.518 209.029,111.512 209.070,111.028 208.785 C 110.544 208.500,110.538 208.542,110.980 209.087 C 111.415 209.623,111.415 209.724,110.980 209.750 C 110.698 209.767,110.972 210.006,111.589 210.282 L 112.710 210.783 111.490 210.755 C 110.819 210.740,110.160 210.837,110.026 210.971 C 109.892 211.105,150.380 211.215,200.000 211.215 C 249.620 211.215,290.108 211.105,289.974 210.971 C 289.840 210.837,289.181 210.740,288.510 210.755 L 287.290 210.783 288.411 210.282 C 289.028 210.006,289.302 209.767,289.020 209.750 C 288.585 209.724,288.585 209.623,289.020 209.087 C 289.462 208.542,289.455 208.498,288.972 208.766 C 288.474 209.043,288.474 209.011,288.972 208.484 C 289.358 208.075,290.314 207.865,292.042 207.812 C 293.422 207.769,294.464 207.592,294.356 207.418 C 294.249 207.245,294.322 207.103,294.517 207.103 C 294.713 207.103,294.970 207.355,295.088 207.664 C 295.207 207.972,295.489 208.224,295.716 208.224 C 295.943 208.224,295.852 207.948,295.514 207.610 C 295.095 207.191,294.977 206.685,295.144 206.022 C 295.476 204.695,295.406 204.727,298.213 204.623 C 302.901 204.449,302.945 204.394,303.008 198.692 C 303.031 196.636,303.078 194.753,303.114 194.507 C 303.183 194.023,305.297 194.028,306.072 194.515 C 306.758 194.946,306.763 9.231,306.076 8.710 C 305.818 8.513,305.061 8.406,304.393 8.471 C 303.143 8.592,302.938 8.181,303.146 5.959 C 303.186 5.532,302.896 5.397,302.061 5.455 C 299.642 5.623,299.439 5.400,299.439 2.573 L 299.439 0.000 199.795 0.000 L 100.150 0.000 100.403 2.240 M291.021 3.363 C 292.855 3.774,297.780 8.392,298.899 10.750 C 299.216 11.419,299.931 12.388,300.486 12.903 L 301.495 13.839 301.495 101.405 C 301.495 194.534,301.565 190.729,299.816 192.606 C 299.465 192.983,298.981 193.918,298.740 194.683 C 298.071 196.811,295.394 199.456,292.748 200.604 C 291.494 201.148,290.467 201.721,290.467 201.877 C 290.467 203.390,292.038 203.364,200.000 203.364 C 107.962 203.364,109.533 203.390,109.533 201.877 C 109.533 201.721,108.521 201.154,107.284 200.618 C 104.643 199.473,101.940 196.876,101.282 194.853 C 101.033 194.086,100.306 192.724,99.667 191.827 L 98.505 190.197 98.505 103.603 L 98.505 17.009 99.907 14.455 C 100.678 13.050,101.308 11.654,101.308 11.352 C 101.308 9.500,106.751 3.721,108.871 3.321 C 111.013 2.917,289.216 2.958,291.021 3.363 M263.551 103.551 C 263.551 103.995,264.201 103.995,265.234 103.551 C 265.860 103.282,265.784 103.226,264.766 103.204 C 264.098 103.189,263.551 103.346,263.551 103.551 M247.290 109.907 C 247.159 110.118,247.465 110.280,247.993 110.280 C 248.507 110.280,249.032 110.112,249.159 109.907 C 249.289 109.695,248.983 109.533,248.455 109.533 C 247.941 109.533,247.417 109.701,247.290 109.907 M200.935 122.991 C 200.797 123.214,201.250 123.364,202.056 123.364 C 202.863 123.364,203.315 123.214,203.178 122.991 C 203.050 122.785,202.546 122.617,202.056 122.617 C 201.566 122.617,201.062 122.785,200.935 122.991 "
       stroke="none"
       fill="#b0242c"
       fill-rule="evenodd" />
  </g>
  <path
     style="fill:#ffffff;fill-opacity:0;stroke-width:1.58377326"
     d="m 88.320329,311.17368 c -2.211879,-2.41824 -4.958117,-7.38492 -6.102751,-11.03706 -1.813248,-5.78547 -1.736876,-7.41648 0.593276,-12.67019 4.324953,-9.75131 4.987644,-10.70337 8.592661,-12.34464 4.469534,-2.03486 4.3993,-5.20618 -0.129546,-5.84938 -5.19241,-0.73744 -5.80083,-9.33058 -0.978715,-13.82307 3.098038,-2.88626 5.521851,-3.31265 18.830926,-3.31265 15.01064,0 15.38019,0.0907 21.3348,5.2381 l 6.05958,5.23809 1.39073,19.70634 c 0.7649,10.83848 0.79841,22.55712 0.0745,26.04142 l -1.31625,6.3351 -22.16379,0.43737 -22.163792,0.43738 z m 22.949451,-15.4575 c 3.22697,-2.4436 2.50849,-7.1527 -1.0913,-7.1527 -1.19895,0 -3.34968,1.29259 -4.77941,2.87242 -2.00521,2.21573 -2.16995,3.30196 -0.72059,4.75131 2.34919,2.3492 2.92092,2.30834 6.5913,-0.47103 z m -4.15808,-25.66594 c -1.52438,-0.39836 -4.01882,-0.39836 -5.5432,0 -1.52439,0.39836 -0.27717,0.72429 2.7716,0.72429 3.04876,0 4.29598,-0.32593 2.7716,-0.72429 z"
     id="path15"
     inkscape:connector-curvature="0" />
  <path
     style="fill:#ffffff;fill-opacity:0;stroke-width:1.58377326"
     d="m 88.320329,311.17368 c -2.211879,-2.41824 -4.958117,-7.38492 -6.102751,-11.03706 -1.813248,-5.78547 -1.736876,-7.41648 0.593276,-12.67019 4.324953,-9.75131 4.987644,-10.70337 8.592661,-12.34464 4.469534,-2.03486 4.3993,-5.20618 -0.129546,-5.84938 -5.19241,-0.73744 -5.80083,-9.33058 -0.978715,-13.82307 3.098038,-2.88626 5.521851,-3.31265 18.830926,-3.31265 15.01064,0 15.38019,0.0907 21.3348,5.2381 l 6.05958,5.23809 1.39073,19.70634 c 0.7649,10.83848 0.79841,22.55712 0.0745,26.04142 l -1.31625,6.3351 -22.16379,0.43737 -22.163792,0.43738 z m 22.949451,-15.4575 c 3.22697,-2.4436 2.50849,-7.1527 -1.0913,-7.1527 -1.19895,0 -3.34968,1.29259 -4.77941,2.87242 -2.00521,2.21573 -2.16995,3.30196 -0.72059,4.75131 2.34919,2.3492 2.92092,2.30834 6.5913,-0.47103 z m -4.15808,-25.66594 c -1.52438,-0.39836 -4.01882,-0.39836 -5.5432,0 -1.52439,0.39836 -0.27717,0.72429 2.7716,0.72429 3.04876,0 4.29598,-0.32593 2.7716,-0.72429 z"
     id="path17"
     inkscape:connector-curvature="0" />
</svg>
