<svg id="svg" version="1.1" xmlns="http://www.w3.org/2000/svg" xmlns:xlink="http://www.w3.org/1999/xlink" width="400" height="373.7704918032787" viewBox="0, 0, 400,373.7704918032787"><g id="svgg"><path id="path0" d="M299.439 2.573 C 299.439 5.376,299.578 5.540,301.887 5.459 C 303.077 5.418,303.748 3.038,302.829 2.119 C 302.610 1.899,302.430 1.333,302.430 0.860 C 302.430 0.106,302.246 0.000,300.935 0.000 L 299.439 0.000 299.439 2.573 M97.049 2.460 C 96.925 2.786,96.822 3.529,96.822 4.113 C 96.822 4.989,96.626 5.217,95.698 5.421 C 94.497 5.685,94.068 6.250,93.711 8.037 C 93.588 8.654,93.579 8.949,93.691 8.692 C 93.803 8.435,94.058 8.224,94.259 8.224 C 94.459 8.224,94.520 8.393,94.393 8.598 C 94.265 8.804,94.494 8.972,94.901 8.972 C 95.307 8.972,95.906 9.074,96.231 9.199 C 96.723 9.388,96.822 9.104,96.822 7.517 C 96.822 5.548,96.910 5.455,98.618 5.595 C 99.911 5.702,100.561 4.940,100.561 3.319 L 100.561 1.869 98.919 1.869 C 97.766 1.869,97.209 2.045,97.049 2.460 M303.101 5.888 C 302.716 7.812,303.183 8.519,304.822 8.493 C 306.356 8.469,306.390 8.441,306.241 7.318 C 305.995 5.454,303.423 4.283,303.101 5.888 M93.458 195.499 C 93.458 197.485,94.751 200.176,95.920 200.625 C 96.705 200.926,96.715 200.897,96.990 197.659 C 97.254 194.547,97.143 194.337,95.180 194.227 C 94.747 194.203,94.182 194.052,93.925 193.892 C 93.574 193.673,93.458 194.074,93.458 195.499 M303.100 194.528 C 302.802 196.159,303.048 201.117,303.427 201.119 C 305.118 201.128,306.613 198.573,306.492 195.881 L 306.416 194.191 304.797 194.147 C 303.849 194.121,303.145 194.279,303.100 194.528 M104.112 204.364 C 100.863 204.639,100.187 204.861,100.187 205.649 C 100.187 207.071,100.865 207.755,102.522 208.004 C 103.689 208.179,104.231 208.473,104.495 209.075 C 105.067 210.379,107.183 211.257,109.159 211.011 C 110.084 210.896,111.262 210.804,111.776 210.807 C 112.681 210.811,112.675 210.795,111.589 210.296 C 110.972 210.012,110.698 209.767,110.980 209.750 C 111.415 209.724,111.415 209.623,110.980 209.087 C 110.538 208.542,110.544 208.500,111.028 208.785 C 111.512 209.070,111.518 209.029,111.076 208.483 C 110.794 208.135,110.196 207.850,109.749 207.850 C 108.702 207.850,108.037 207.176,108.037 206.115 C 108.037 205.286,106.737 204.053,105.992 204.175 C 105.780 204.210,104.935 204.295,104.112 204.364 M296.017 204.738 C 294.730 205.077,294.777 207.626,296.078 208.038 C 297.881 208.611,299.813 207.475,299.813 205.842 C 299.813 204.651,298.168 204.173,296.017 204.738 M294.019 207.477 C 293.892 207.682,292.809 207.850,291.612 207.850 C 290.021 207.850,289.300 208.020,288.924 208.483 C 288.482 209.029,288.488 209.070,288.972 208.785 C 289.456 208.500,289.462 208.542,289.020 209.087 C 288.585 209.623,288.585 209.724,289.020 209.750 C 289.302 209.767,289.028 210.021,288.411 210.315 C 287.637 210.683,287.521 210.829,288.037 210.784 C 288.449 210.748,289.432 210.852,290.222 211.015 C 293.153 211.619,296.269 209.798,295.325 208.034 C 294.794 207.042,294.393 206.871,294.019 207.477 M156.168 211.495 C 180.276 211.548,219.724 211.548,243.832 211.495 C 267.939 211.442,248.215 211.399,200.000 211.399 C 151.785 211.399,132.061 211.442,156.168 211.495 M150.841 221.628 C 150.430 221.807,149.493 221.874,148.759 221.777 C 146.985 221.544,146.340 222.246,146.038 224.738 C 145.474 229.391,145.950 315.522,146.542 315.896 C 147.627 316.581,164.319 316.352,164.907 315.644 C 165.599 314.810,165.864 226.771,165.183 224.067 C 164.863 222.794,164.517 222.281,163.792 222.005 C 162.523 221.523,151.803 221.211,150.841 221.628 M7.991 228.734 C 4.818 230.216,5.060 226.806,4.947 271.753 C 4.856 307.596,4.907 311.723,5.452 313.365 C 6.065 315.212,7.310 316.175,8.495 315.720 C 8.779 315.612,8.908 315.688,8.783 315.891 C 8.315 316.649,26.044 316.173,26.810 315.408 C 27.427 314.790,27.485 313.466,27.584 297.557 L 27.692 280.374 39.640 280.374 L 51.589 280.374 51.589 295.277 C 51.589 311.227,51.700 312.150,53.628 312.150 C 53.897 312.150,54.303 312.889,54.531 313.794 C 55.116 316.119,55.744 316.262,65.383 316.260 C 73.697 316.257,75.955 315.972,76.505 314.853 C 76.680 314.497,76.869 295.761,76.926 273.217 L 77.030 232.228 76.227 230.867 C 74.826 228.492,73.932 228.241,66.386 228.100 C 57.550 227.935,56.832 228.133,54.590 231.359 C 54.288 231.794,53.838 232.150,53.589 232.150 C 51.737 232.150,51.589 233.282,51.589 247.452 C 51.589 257.324,51.472 260.902,51.140 261.234 C 50.374 261.999,28.187 261.863,27.890 261.091 C 27.766 260.766,27.664 254.031,27.664 246.126 C 27.664 230.664,27.563 229.755,25.733 228.730 C 24.141 227.839,9.902 227.842,7.991 228.734 M368.037 228.355 C 367.228 228.530,366.725 228.989,366.231 230.000 L 365.546 231.402 362.758 231.402 C 359.675 231.402,357.247 232.308,356.832 233.613 C 356.696 234.044,355.958 234.555,355.030 234.862 C 353.777 235.277,353.374 235.636,353.047 236.627 C 352.741 237.552,352.311 237.975,351.365 238.281 C 350.332 238.614,350.000 238.987,349.596 240.265 C 349.310 241.166,348.803 241.932,348.408 242.057 C 347.372 242.386,346.091 244.830,345.970 246.708 C 345.888 247.998,345.688 248.434,345.078 248.660 C 344.646 248.819,344.099 249.376,343.862 249.896 C 343.625 250.416,343.290 250.841,343.118 250.841 C 342.945 250.841,342.804 252.355,342.804 254.206 L 342.804 257.570 341.776 257.576 C 339.540 257.588,339.635 256.922,339.531 273.443 C 339.426 290.210,339.410 290.093,341.869 290.093 C 342.796 290.093,342.804 290.122,342.841 293.551 C 342.889 298.014,343.110 298.756,344.585 299.411 C 345.523 299.828,345.833 300.236,346.006 301.280 C 346.338 303.295,347.232 304.796,348.654 305.728 C 349.358 306.189,350.114 306.963,350.335 307.448 C 350.556 307.932,351.133 308.509,351.618 308.730 C 352.102 308.951,352.881 309.714,353.348 310.427 C 354.336 311.935,356.126 312.897,357.942 312.897 C 358.653 312.897,359.437 313.159,359.705 313.485 C 362.003 316.286,361.592 316.235,382.150 316.255 L 400.000 316.273 400.000 304.865 L 400.000 293.457 396.075 293.488 C 393.916 293.505,392.150 293.645,392.150 293.798 C 392.150 293.951,391.672 294.006,391.088 293.920 C 389.809 293.733,388.785 294.620,388.785 295.915 C 388.785 297.271,381.346 297.346,380.743 295.996 C 379.981 294.289,377.682 293.541,372.991 293.473 C 372.155 293.461,371.963 293.288,371.963 292.550 C 371.963 291.345,371.029 290.467,369.747 290.467 C 368.901 290.467,368.643 290.248,368.369 289.291 C 368.043 288.155,367.602 287.739,366.299 287.343 C 365.920 287.227,365.581 286.558,365.421 285.608 C 365.228 284.469,365.016 284.116,364.616 284.269 C 364.278 284.399,364.171 284.320,364.333 284.058 C 364.511 283.769,364.225 283.692,363.418 283.810 L 362.243 283.983 362.243 273.814 L 362.243 263.645 363.344 263.425 C 364.894 263.115,365.455 261.724,365.586 257.873 C 365.601 257.418,365.999 257.209,367.009 257.125 C 368.326 257.016,368.423 256.922,368.598 255.582 L 368.785 254.155 371.366 253.992 C 374.276 253.807,374.769 253.537,375.086 251.954 L 375.308 250.841 387.654 250.841 L 400.000 250.841 400.000 239.856 L 400.000 228.870 398.785 228.587 C 397.266 228.233,369.565 228.024,368.037 228.355 M242.805 234.707 C 241.160 234.893,241.133 235.031,241.127 243.271 L 241.121 250.841 237.477 250.883 C 235.472 250.905,233.453 250.893,232.991 250.856 C 232.528 250.818,232.150 250.978,232.150 251.210 C 232.150 251.443,232.002 251.542,231.822 251.431 C 231.324 251.123,231.079 253.504,231.039 259.047 C 230.998 264.620,230.952 264.839,230.149 263.285 C 229.841 262.689,229.156 262.004,228.626 261.763 C 227.910 261.437,227.664 261.043,227.664 260.226 C 227.664 258.449,227.295 257.954,225.796 257.714 C 224.613 257.525,224.329 257.297,224.048 256.314 C 223.664 254.970,222.143 254.262,219.562 254.227 C 218.149 254.208,217.981 254.103,217.763 253.110 C 217.303 251.017,217.441 251.038,202.966 250.909 L 189.598 250.791 188.099 251.737 C 187.275 252.257,186.495 253.017,186.366 253.425 C 186.177 254.019,185.741 254.190,184.186 254.280 L 182.243 254.393 182.129 255.961 C 182.016 257.514,182.000 257.530,180.447 257.643 C 179.536 257.709,178.859 257.953,178.832 258.224 C 178.806 258.481,178.764 259.097,178.738 259.593 C 178.700 260.342,178.438 260.538,177.195 260.748 C 175.707 260.999,174.880 262.151,175.485 263.130 C 175.770 263.592,175.169 263.975,173.677 264.282 C 172.425 264.540,172.442 264.486,172.373 268.526 C 172.342 270.392,172.189 270.838,171.286 271.703 C 169.031 273.864,169.021 273.917,168.986 283.337 C 168.953 292.609,169.355 294.939,171.102 295.585 C 172.166 295.977,172.325 296.461,172.331 299.319 C 172.337 302.273,172.827 303.178,174.419 303.178 C 175.132 303.178,175.327 303.373,175.327 304.088 C 175.327 305.959,180.182 312.150,181.649 312.150 C 181.873 312.150,182.056 312.318,182.056 312.523 C 182.056 312.729,182.519 312.899,183.084 312.902 C 184.971 312.912,185.794 313.307,185.794 314.203 C 185.794 316.038,186.031 316.068,201.341 316.168 C 216.719 316.269,217.339 316.204,217.690 314.447 C 217.894 313.426,218.082 313.300,219.705 313.098 C 222.710 312.724,223.322 312.419,224.049 310.933 C 224.525 309.961,224.983 309.531,225.545 309.527 C 226.848 309.518,227.333 308.993,227.553 307.354 C 227.697 306.281,227.976 305.746,228.473 305.588 C 229.645 305.216,231.028 302.648,231.028 300.844 C 231.028 299.547,231.187 299.173,231.862 298.874 C 234.219 297.831,234.391 296.718,234.294 283.119 L 234.206 270.724 236.900 270.472 C 241.599 270.032,241.121 268.019,241.121 288.257 L 241.121 305.809 242.061 307.297 C 242.577 308.115,243.232 308.785,243.516 308.785 C 244.131 308.785,244.486 309.590,244.486 310.984 C 244.486 312.274,245.109 312.897,246.399 312.897 C 247.200 312.897,247.560 313.192,248.100 314.290 C 249.038 316.197,248.918 316.182,263.598 316.224 C 281.594 316.276,280.185 317.008,280.186 307.612 C 280.187 302.300,280.259 301.494,280.666 302.267 C 281.033 302.965,281.448 303.178,282.442 303.178 C 283.732 303.178,283.738 303.186,283.738 304.882 C 283.738 306.075,283.868 306.506,284.170 306.319 C 284.427 306.161,284.500 306.216,284.352 306.456 C 283.681 307.543,286.382 310.061,287.318 309.222 C 287.471 309.084,287.475 309.182,287.328 309.439 C 287.180 309.696,287.210 309.907,287.395 309.907 C 287.579 309.907,287.916 310.315,288.144 310.814 C 288.602 311.819,290.290 312.707,292.430 313.068 C 293.443 313.239,293.832 313.492,293.832 313.978 C 293.832 316.047,293.987 316.066,312.188 316.183 C 330.914 316.303,331.757 316.224,332.256 314.298 C 332.504 313.344,332.813 313.056,333.808 312.852 C 335.896 312.425,336.150 311.064,335.969 301.252 C 335.840 294.238,335.654 293.668,333.572 293.911 C 332.893 293.991,332.336 293.903,332.336 293.716 C 332.336 292.100,321.596 294.175,320.788 295.948 L 320.382 296.839 313.369 296.737 L 306.355 296.636 306.469 295.655 C 306.615 294.400,305.673 293.458,304.272 293.458 C 303.670 293.458,303.165 293.332,303.151 293.178 C 303.136 293.023,303.094 292.268,303.057 291.499 L 302.991 290.101 319.439 290.004 L 335.888 289.907 335.998 288.035 C 336.093 286.417,336.255 286.079,337.190 285.542 C 339.455 284.242,338.950 278.131,336.578 278.131 C 336.110 278.131,335.816 271.946,336.066 267.383 C 336.102 266.715,335.980 266.168,335.793 266.168 C 335.607 266.168,335.468 265.790,335.484 265.328 C 335.508 264.644,335.270 264.452,334.206 264.300 C 332.939 264.118,332.890 264.049,332.658 262.152 C 332.245 258.769,332.043 258.315,330.840 258.074 C 329.568 257.820,329.170 257.408,328.834 255.998 C 328.567 254.880,326.926 254.212,324.440 254.208 C 323.156 254.206,323.074 254.130,322.854 252.751 C 322.544 250.813,322.898 250.862,309.238 250.863 C 296.465 250.864,295.739 250.989,294.618 253.364 C 294.284 254.074,293.925 254.206,292.322 254.206 C 291.151 254.206,290.512 254.349,290.654 254.579 C 290.781 254.785,290.695 254.953,290.463 254.953 C 290.230 254.953,290.071 255.332,290.108 255.794 C 290.241 257.431,290.122 257.570,288.598 257.570 C 287.266 257.570,287.103 257.669,287.103 258.474 C 287.103 260.054,286.691 260.558,285.208 260.795 C 284.416 260.922,283.782 261.131,283.798 261.260 C 284.059 263.370,283.699 264.256,282.532 264.369 C 280.794 264.538,280.386 265.633,280.379 270.145 L 280.374 273.935 279.068 274.180 C 277.764 274.425,277.458 274.892,277.336 276.822 C 277.190 279.137,277.224 290.217,277.383 291.963 L 277.570 294.019 275.249 294.241 C 272.823 294.473,271.957 294.913,271.578 296.109 C 271.375 296.748,270.965 296.822,267.638 296.822 L 263.925 296.822 263.925 295.728 C 263.925 294.332,263.051 293.458,261.656 293.458 L 260.561 293.458 260.561 282.056 L 260.561 270.654 265.514 270.636 C 273.459 270.606,276.673 270.447,276.943 270.071 C 277.082 269.878,277.533 269.539,277.944 269.318 C 279.587 268.435,279.999 266.736,279.999 260.849 C 280.000 251.183,279.599 250.841,268.244 250.841 L 260.561 250.841 260.518 243.458 C 260.466 234.629,260.490 234.967,259.907 234.908 C 259.650 234.881,259.397 234.821,259.346 234.774 C 259.191 234.632,244.010 234.570,242.805 234.707 M92.993 251.783 C 92.231 252.301,91.429 253.058,91.211 253.465 C 90.901 254.044,90.426 254.206,89.032 254.206 L 87.249 254.206 87.082 255.794 C 86.991 256.668,86.916 260.207,86.916 263.659 C 86.916 270.334,87.019 270.719,88.785 270.615 C 92.390 270.403,95.831 270.694,94.953 271.136 C 94.359 271.435,93.975 271.986,93.898 272.648 C 93.764 273.807,93.574 273.920,91.327 274.171 C 89.156 274.414,88.347 274.930,87.484 276.621 C 87.076 277.421,86.400 278.185,85.983 278.317 C 84.700 278.725,83.941 280.677,83.738 284.090 L 83.551 287.245 82.341 287.557 C 79.386 288.320,79.796 300.754,82.822 302.132 C 83.675 302.521,83.738 302.743,83.738 305.318 C 83.738 308.457,84.146 309.530,85.340 309.538 C 86.607 309.547,87.031 309.980,87.166 311.405 C 87.280 312.603,87.405 312.726,88.696 312.897 C 89.839 313.049,90.224 313.325,90.752 314.374 C 91.184 315.230,91.779 315.763,92.523 315.962 C 93.999 316.356,115.811 316.315,116.056 315.918 C 116.160 315.750,116.964 315.750,117.842 315.920 C 121.422 316.613,134.859 316.325,136.432 315.523 C 139.299 314.060,139.193 315.063,139.093 290.345 C 138.996 266.602,138.987 266.495,137.007 265.198 C 136.277 264.719,136.075 264.271,136.075 263.127 C 136.075 261.487,134.645 258.881,133.555 258.536 C 133.182 258.417,132.629 257.951,132.326 257.500 C 131.779 256.685,130.697 255.568,129.584 254.673 C 129.265 254.416,128.354 254.206,127.560 254.206 C 126.290 254.206,126.052 254.059,125.581 252.991 C 124.695 250.977,123.960 250.886,108.405 250.862 L 94.379 250.841 92.993 251.783 M110.280 270.536 C 104.301 270.806,98.776 270.817,98.935 270.561 C 99.031 270.407,102.170 270.313,105.910 270.354 C 109.650 270.394,111.617 270.476,110.280 270.536 M205.234 270.945 C 205.234 271.940,206.302 273.271,207.102 273.271 C 208.082 273.271,208.370 273.896,208.271 275.806 C 208.224 276.716,208.338 277.357,208.525 277.241 C 208.711 277.126,208.784 277.448,208.687 277.957 C 208.441 279.244,209.252 280.099,210.539 279.910 L 211.589 279.756 211.589 282.061 C 211.589 284.145,211.501 284.406,210.672 284.784 C 209.277 285.419,208.492 287.319,208.302 290.520 L 208.133 293.377 206.777 293.600 C 205.034 293.886,202.965 295.158,202.720 296.094 C 202.424 297.226,201.038 297.000,200.298 295.699 C 199.948 295.083,199.438 294.579,199.166 294.579 C 198.636 294.579,197.970 293.890,196.907 292.243 C 196.543 291.678,195.996 291.215,195.692 291.215 C 195.060 291.215,194.957 289.604,194.955 279.722 C 194.953 273.675,194.957 273.650,195.794 273.647 C 196.913 273.644,198.131 272.376,198.131 271.215 C 198.131 270.284,198.143 270.280,201.682 270.280 C 204.836 270.280,205.234 270.355,205.234 270.945 M308.692 270.555 C 307.715 270.632,306.117 270.632,305.140 270.555 C 304.164 270.478,304.963 270.415,306.916 270.415 C 308.869 270.415,309.668 270.478,308.692 270.555 M113.360 291.682 C 113.570 293.663,113.477 293.832,112.173 293.832 C 110.984 293.832,110.494 294.304,110.138 295.794 C 109.786 297.268,106.030 297.374,105.371 295.929 C 105.147 295.438,104.562 294.853,104.071 294.629 C 102.809 294.054,102.959 293.644,104.579 293.244 C 105.787 292.945,106.029 292.703,106.328 291.495 L 106.674 290.093 109.933 290.093 L 113.192 290.093 113.360 291.682 M280.337 297.290 C 280.302 298.425,280.281 298.444,280.022 297.570 C 279.869 297.056,279.811 296.509,279.894 296.355 C 280.208 295.769,280.373 296.118,280.337 297.290 M3.645 317.413 C 3.285 317.623,2.734 318.290,2.420 318.897 C 2.022 319.668,1.571 320.000,0.925 320.000 L 0.000 320.000 0.000 324.673 L 0.000 329.346 1.589 329.358 C 3.067 329.369,3.127 329.408,2.452 329.918 C 2.053 330.220,1.338 330.467,0.863 330.467 L 0.000 330.467 -0.000 347.616 L -0.000 364.764 1.545 365.011 C 3.557 365.333,3.235 365.820,0.935 365.935 L 0.000 365.981 0.000 369.907 L 0.000 373.832 200.000 373.832 L 400.000 373.832 400.000 369.907 L 400.000 365.981 398.972 365.937 L 397.944 365.893 399.065 365.625 L 400.187 365.357 399.065 365.164 L 397.944 364.972 398.972 364.916 L 400.000 364.860 400.000 355.727 L 400.000 346.594 399.159 346.475 C 398.379 346.364,398.304 346.122,398.131 343.178 C 397.928 339.732,397.277 337.959,396.011 337.401 C 395.418 337.141,395.139 336.593,394.964 335.345 C 394.576 332.587,393.764 331.233,392.023 330.442 L 390.467 329.736 392.936 329.728 C 394.294 329.723,396.438 329.612,397.702 329.479 L 400.000 329.239 400.000 324.620 L 400.000 320.000 399.075 320.000 C 398.427 320.000,397.978 319.667,397.576 318.890 C 397.260 318.279,396.678 317.606,396.282 317.394 C 395.283 316.859,4.563 316.878,3.645 317.413 M38.670 330.250 C 37.974 330.759,37.940 331.442,37.836 346.979 C 37.720 364.431,37.739 364.725,38.983 365.226 C 39.492 365.431,34.004 365.569,24.788 365.584 C 16.525 365.597,9.678 365.469,9.573 365.299 C 9.469 365.130,9.753 365.004,10.206 365.019 C 11.307 365.056,11.289 365.286,11.448 348.785 C 11.589 334.095,11.449 331.128,10.572 330.252 C 10.112 329.792,12.024 329.720,24.718 329.720 C 37.483 329.720,39.301 329.789,38.670 330.250 M53.090 330.053 C 52.221 330.295,51.533 331.231,51.051 332.827 C 50.799 333.662,50.164 333.319,49.699 332.096 C 49.493 331.553,48.705 330.887,47.760 330.458 L 46.168 329.736 50.093 329.765 C 52.252 329.781,53.601 329.911,53.090 330.053 M89.280 329.985 C 87.045 330.327,86.537 334.782,86.880 351.028 C 87.004 356.888,87.102 362.150,87.097 362.722 C 87.083 364.538,87.752 365.327,89.166 365.162 C 89.853 365.082,90.333 365.149,90.232 365.312 C 90.132 365.474,83.120 365.604,74.651 365.599 L 59.252 365.591 60.826 364.877 C 62.626 364.059,63.694 362.124,63.465 360.093 C 63.389 359.425,63.462 358.879,63.626 358.879 C 63.791 358.879,63.925 353.832,63.925 347.664 C 63.925 341.495,63.791 336.449,63.626 336.449 C 63.462 336.449,63.393 335.890,63.473 335.207 C 63.696 333.296,62.711 331.380,61.057 330.508 L 59.626 329.753 74.953 329.792 C 83.383 329.814,89.830 329.901,89.280 329.985 M98.785 329.995 C 97.706 330.071,95.939 330.071,94.860 329.995 C 93.780 329.920,94.664 329.858,96.822 329.858 C 98.981 329.858,99.864 329.920,98.785 329.995 M145.164 330.267 C 144.509 330.552,143.706 331.302,143.379 331.934 C 142.829 332.999,142.264 333.277,141.000 333.106 C 140.082 332.981,139.439 333.914,139.439 335.373 C 139.439 336.533,139.301 336.822,138.750 336.822 C 136.705 336.822,136.100 339.402,136.118 348.037 C 136.136 356.466,136.382 357.642,138.318 358.555 C 139.433 359.081,139.609 359.335,139.511 360.270 C 139.372 361.599,139.951 362.142,141.684 362.306 C 142.687 362.401,143.017 362.616,143.105 363.232 C 143.259 364.309,144.243 365.136,145.607 365.333 C 146.224 365.422,137.056 365.495,125.234 365.495 C 113.411 365.495,104.211 365.424,104.788 365.338 C 105.858 365.177,105.936 365.072,106.331 363.271 C 106.524 362.391,106.743 362.243,107.849 362.243 C 112.429 362.243,113.084 360.415,113.071 347.664 C 113.059 334.644,112.731 333.767,107.570 332.909 C 106.447 332.723,106.167 332.512,106.162 331.852 C 106.156 330.865,105.805 330.281,105.047 329.992 C 104.738 329.875,113.907 329.772,125.421 329.764 C 143.574 329.751,146.197 329.818,145.164 330.267 M191.355 330.469 C 188.889 331.772,188.803 332.359,188.818 347.740 C 188.833 363.076,188.853 363.202,191.589 364.749 L 193.084 365.595 175.140 365.572 C 165.271 365.559,157.449 365.452,157.757 365.335 C 158.553 365.032,158.866 364.453,158.873 363.271 C 158.878 362.350,159.012 362.243,160.166 362.243 C 164.906 362.243,165.680 360.056,165.537 347.067 L 165.421 336.576 164.373 335.204 C 163.798 334.449,163.083 333.832,162.785 333.832 C 162.487 333.832,162.243 333.664,162.243 333.458 C 162.243 333.252,161.752 333.084,161.152 333.084 C 159.575 333.084,158.879 332.728,158.879 331.923 C 158.879 331.533,158.542 330.879,158.131 330.467 L 157.383 329.720 175.047 329.736 C 192.679 329.753,192.708 329.754,191.355 330.469 M204.976 330.333 C 203.887 330.719,203.157 331.307,202.575 332.266 L 201.740 333.645 201.404 332.034 C 201.172 330.918,200.819 330.323,200.254 330.095 C 199.703 329.873,200.587 329.769,202.991 329.773 L 206.542 329.779 204.976 330.333 M241.869 330.467 C 241.144 331.192,241.121 331.713,241.121 347.592 C 241.121 364.500,241.149 364.823,242.617 365.348 C 242.925 365.458,236.280 365.559,227.850 365.572 C 215.263 365.592,212.690 365.512,213.458 365.124 L 214.393 364.651 214.490 347.937 C 214.585 331.626,214.569 331.205,213.836 330.471 L 213.084 329.720 227.850 329.720 L 242.617 329.720 241.869 330.467 M255.438 329.997 C 253.956 330.068,251.433 330.068,249.830 329.998 C 248.227 329.928,249.439 329.870,252.523 329.869 C 255.607 329.869,256.919 329.926,255.438 329.997 M294.486 330.123 C 294.126 330.333,293.832 330.819,293.832 331.203 C 293.832 332.657,293.409 333.084,291.966 333.084 C 290.423 333.084,290.109 333.572,290.099 335.981 C 290.096 336.658,289.899 337.196,289.656 337.196 C 287.802 337.196,286.985 342.686,288.598 344.299 C 289.009 344.710,289.526 345.047,289.747 345.047 C 290.544 345.047,289.880 346.328,288.973 346.542 C 287.471 346.896,287.114 348.161,287.108 353.151 C 287.102 358.101,287.384 358.879,289.186 358.879 C 289.876 358.879,290.095 359.080,290.099 359.720 C 290.111 361.747,290.483 362.243,291.989 362.243 C 293.339 362.243,293.439 362.322,293.675 363.581 C 293.837 364.447,294.206 365.032,294.720 365.239 C 295.178 365.424,288.393 365.552,278.692 365.540 C 269.439 365.530,262.173 365.442,262.545 365.346 C 263.288 365.153,263.925 363.807,263.925 362.431 C 263.925 361.872,264.203 361.458,264.677 361.307 C 267.075 360.546,267.183 354.771,264.819 353.694 C 264.327 353.470,263.925 353.073,263.926 352.812 C 263.942 336.480,263.711 330.760,263.013 330.250 C 262.382 329.789,264.441 329.721,278.714 329.731 C 290.056 329.739,294.938 329.860,294.486 330.123 M338.979 330.489 C 336.302 331.903,336.277 332.049,336.140 346.738 C 335.994 362.320,336.151 363.285,339.064 364.766 L 340.719 365.607 323.840 365.607 C 314.556 365.607,306.871 365.464,306.762 365.288 C 306.654 365.112,307.006 365.052,307.546 365.155 C 308.675 365.371,309.533 364.487,309.533 363.106 C 309.533 362.242,309.791 362.108,311.247 362.220 C 313.075 362.361,313.374 359.408,313.021 344.705 C 312.750 333.459,312.596 332.769,310.442 333.180 C 309.709 333.321,309.485 333.138,309.152 332.128 C 308.861 331.247,308.363 330.747,307.365 330.332 C 306.092 329.804,307.360 329.758,323.178 329.755 L 340.374 329.753 338.979 330.489 M381.593 330.491 C 379.604 331.541,378.692 333.513,378.692 336.766 L 378.692 339.356 377.396 339.599 C 375.644 339.928,375.594 340.090,375.352 346.236 C 375.338 346.582,375.003 346.968,374.607 347.094 C 373.146 347.558,372.336 349.691,372.336 353.080 C 372.336 356.118,372.304 356.234,371.237 356.994 C 369.338 358.346,369.521 360.652,371.579 361.305 C 372.134 361.482,372.336 361.869,372.336 362.757 C 372.336 364.154,372.948 365.095,374.019 365.346 C 374.430 365.442,368.374 365.520,360.561 365.520 C 352.748 365.519,346.855 365.412,347.465 365.281 C 348.395 365.082,348.625 364.801,348.885 363.550 C 349.109 362.464,349.517 361.852,350.376 361.308 C 352.064 360.241,352.200 359.099,352.073 347.103 C 351.955 335.890,351.784 334.809,350.010 334.028 C 349.521 333.814,349.089 333.200,348.955 332.533 C 348.546 330.487,348.383 330.143,347.739 329.974 C 347.389 329.882,355.178 329.794,365.047 329.780 L 382.991 329.753 381.593 330.491 M100.084 348.872 C 100.001 349.544,99.931 349.084,99.929 347.850 C 99.927 346.617,99.995 346.067,100.080 346.629 C 100.165 347.191,100.167 348.200,100.084 348.872 M152.523 347.686 C 152.523 348.851,152.380 349.488,152.150 349.346 C 151.944 349.219,151.776 348.368,151.776 347.455 C 151.776 346.541,151.944 345.794,152.150 345.794 C 152.355 345.794,152.523 346.645,152.523 347.686 M388.561 359.402 C 388.303 360.073,389.050 364.152,389.515 364.618 C 389.709 364.812,390.508 365.095,391.289 365.246 C 392.138 365.411,390.300 365.518,386.729 365.514 C 383.439 365.509,381.168 365.439,381.682 365.358 C 383.926 365.005,384.237 364.829,384.636 363.685 C 384.862 363.036,385.047 361.689,385.047 360.692 L 385.047 358.879 386.904 358.879 C 388.343 358.879,388.716 358.996,388.561 359.402 M202.840 363.193 C 203.065 363.596,203.906 364.301,204.709 364.760 L 206.168 365.595 202.359 365.601 C 200.263 365.605,198.464 365.470,198.360 365.301 C 198.255 365.133,198.624 365.054,199.179 365.125 C 200.615 365.310,201.149 364.811,201.383 363.064 C 201.596 361.478,201.894 361.504,202.840 363.193 M51.058 363.581 C 51.221 364.447,51.589 365.032,52.103 365.239 C 52.623 365.449,51.606 365.560,49.159 365.561 L 45.421 365.561 47.218 364.962 C 48.478 364.542,49.181 364.045,49.565 363.303 C 50.299 361.883,50.756 361.968,51.058 363.581 " stroke="none" fill="#646464" fill-rule="evenodd"></path><path id="path1" d="M163.645 56.141 L 162.243 56.969 162.221 68.578 C 162.187 86.165,162.267 86.018,151.028 89.123 C 149.692 89.492,147.589 90.256,146.355 90.820 C 145.121 91.384,143.187 92.150,142.056 92.521 C 140.925 92.892,139.159 93.657,138.131 94.220 C 137.103 94.784,135.388 95.526,134.320 95.870 C 133.252 96.214,131.974 96.813,131.478 97.203 C 130.983 97.593,129.670 98.269,128.561 98.706 C 126.507 99.516,125.403 100.144,121.161 102.921 C 119.846 103.782,118.163 104.857,117.422 105.310 C 116.681 105.763,115.738 106.521,115.327 106.995 C 114.916 107.469,114.043 108.238,113.387 108.704 C 112.731 109.171,112.078 109.926,111.936 110.384 C 111.794 110.841,111.373 111.647,111.001 112.176 C 107.358 117.353,111.881 122.275,122.121 124.276 C 130.680 125.949,131.651 126.048,141.308 126.238 C 155.398 126.516,178.851 124.539,188.785 122.235 C 191.355 121.639,195.716 120.873,198.475 120.532 C 201.235 120.191,204.684 119.504,206.139 119.005 C 207.594 118.506,210.906 117.770,213.498 117.369 C 216.090 116.969,219.011 116.287,219.988 115.855 C 220.966 115.422,223.555 114.749,225.743 114.358 C 227.930 113.967,230.654 113.231,231.797 112.723 C 232.940 112.215,235.547 111.472,237.591 111.072 C 239.636 110.673,242.065 109.927,242.991 109.414 C 243.916 108.902,245.986 108.128,247.592 107.694 C 249.197 107.261,250.979 106.560,251.553 106.136 C 252.126 105.712,253.833 105.040,255.346 104.643 C 256.859 104.246,258.698 103.505,259.432 102.996 C 260.166 102.487,261.854 101.714,263.183 101.277 C 264.512 100.841,266.067 100.151,266.639 99.744 C 267.210 99.337,268.642 98.621,269.820 98.153 C 270.999 97.684,272.863 96.689,273.963 95.940 C 275.063 95.192,276.160 94.579,276.401 94.579 C 276.642 94.579,277.424 94.099,278.139 93.512 C 278.854 92.926,279.944 92.185,280.561 91.867 C 282.148 91.048,286.688 86.963,287.754 85.395 C 293.967 76.251,283.463 70.897,257.633 70.040 L 250.033 69.788 248.994 68.750 C 247.751 67.507,247.486 66.156,247.481 61.033 L 247.477 57.207 246.019 56.242 L 244.561 55.277 233.151 55.396 C 218.628 55.546,219.922 54.745,219.750 63.699 C 219.572 72.921,219.174 73.286,207.455 74.955 C 205.102 75.290,200.959 75.986,198.248 76.501 C 189.669 78.131,189.799 78.290,189.533 65.794 C 189.410 60.042,189.194 56.751,188.905 56.262 C 188.176 55.025,165.716 54.918,163.645 56.141 M256.204 79.043 C 264.119 80.557,267.768 84.393,265.496 88.812 C 264.352 91.038,260.078 94.530,256.822 95.899 C 255.897 96.288,254.600 97.006,253.939 97.496 C 252.257 98.742,250.218 98.926,248.692 97.969 L 247.477 97.207 247.477 90.264 C 247.477 78.476,248.224 77.516,256.204 79.043 M217.370 80.157 C 219.741 81.148,219.813 81.584,219.813 94.884 L 219.813 106.814 218.917 107.710 C 217.183 109.444,212.391 111.034,206.553 111.812 C 203.593 112.206,200.108 112.867,198.810 113.281 C 189.944 116.104,189.391 115.165,189.598 97.633 C 189.780 82.187,188.528 83.612,204.112 81.105 C 208.121 80.460,211.472 79.864,211.558 79.779 C 211.943 79.400,216.225 79.679,217.370 80.157 M160.248 93.060 C 162.049 94.158,162.370 96.259,162.180 105.691 C 161.931 118.014,161.092 118.535,145.809 115.863 C 138.806 114.638,138.275 114.429,135.744 111.894 C 132.749 108.896,134.676 104.078,139.992 101.270 C 140.809 100.838,141.942 100.094,142.509 99.617 C 143.076 99.140,144.443 98.412,145.547 97.999 C 146.652 97.585,148.179 96.824,148.941 96.307 C 149.703 95.790,151.199 95.112,152.266 94.801 C 153.333 94.489,155.215 93.815,156.449 93.301 C 159.171 92.169,158.822 92.191,160.248 93.060 M241.406 115.335 C 240.225 115.629,238.559 116.226,237.702 116.664 C 236.845 117.101,234.247 117.852,231.930 118.332 C 229.612 118.813,227.241 119.446,226.662 119.739 C 226.082 120.033,224.682 120.569,223.551 120.931 C 219.601 122.195,219.813 121.427,219.813 134.493 C 219.813 150.036,218.375 148.518,233.271 148.702 L 244.299 148.838 245.888 147.474 L 247.477 146.110 247.477 131.194 L 247.477 116.279 246.616 115.715 C 245.309 114.859,243.772 114.747,241.406 115.335 M181.121 128.632 C 179.888 128.806,177.533 129.205,175.888 129.519 C 174.243 129.832,171.178 130.244,169.076 130.435 C 166.270 130.689,164.854 131.006,163.749 131.628 L 162.243 132.474 162.243 139.506 L 162.243 146.537 163.832 147.689 L 165.421 148.841 176.449 148.703 C 188.139 148.557,188.446 148.518,189.108 147.065 C 189.751 145.654,189.667 129.741,189.012 128.879 C 188.457 128.147,185.266 128.047,181.121 128.632 M249.824 234.668 C 250.807 234.745,252.321 234.744,253.189 234.666 C 254.056 234.587,253.252 234.524,251.402 234.525 C 249.551 234.526,248.842 234.591,249.824 234.668 M237.856 270.549 C 238.424 270.635,239.265 270.632,239.725 270.544 C 240.185 270.455,239.720 270.384,238.692 270.387 C 237.664 270.390,237.287 270.463,237.856 270.549 M94.860 329.995 C 95.939 330.071,97.706 330.071,98.785 329.995 C 99.864 329.920,98.981 329.858,96.822 329.858 C 94.664 329.858,93.780 329.920,94.860 329.995 M249.830 329.998 C 251.433 330.068,253.956 330.068,255.438 329.997 C 256.919 329.926,255.607 329.869,252.523 329.869 C 249.439 329.870,248.227 329.928,249.830 329.998 " stroke="none" fill="#f8efef" fill-rule="evenodd"></path><path id="path2" d="M108.871 3.321 C 106.751 3.721,101.308 9.500,101.308 11.352 C 101.308 11.654,100.678 13.050,99.907 14.455 L 98.505 17.009 98.505 103.603 L 98.505 190.197 99.667 191.827 C 100.306 192.724,101.033 194.086,101.282 194.853 C 101.940 196.876,104.643 199.473,107.284 200.618 C 108.521 201.154,109.533 201.721,109.533 201.877 C 109.533 203.390,107.962 203.364,200.000 203.364 C 292.038 203.364,290.467 203.390,290.467 201.877 C 290.467 201.721,291.494 201.148,292.748 200.604 C 295.394 199.456,298.071 196.811,298.740 194.683 C 298.981 193.918,299.465 192.983,299.816 192.606 C 301.565 190.729,301.495 194.534,301.495 101.405 L 301.495 13.839 300.486 12.903 C 299.931 12.388,299.216 11.419,298.899 10.750 C 297.780 8.392,292.855 3.774,291.021 3.363 C 289.216 2.958,111.013 2.917,108.871 3.321 M189.934 53.487 C 191.551 55.219,191.771 56.655,191.774 65.492 C 191.775 70.628,191.916 73.688,192.159 73.838 C 193.015 74.367,197.249 74.072,199.065 73.356 C 200.093 72.951,203.626 72.255,206.916 71.809 C 210.206 71.363,213.411 70.919,214.039 70.823 C 216.106 70.506,216.821 68.280,216.829 62.140 C 216.840 52.577,216.873 52.557,232.830 52.415 C 249.657 52.265,249.505 52.192,249.812 60.561 C 249.907 63.131,250.173 65.696,250.403 66.262 L 250.823 67.290 256.165 67.290 C 266.711 67.290,278.557 68.534,281.131 69.912 C 281.532 70.126,282.969 70.644,284.324 71.063 C 286.891 71.856,290.734 74.843,291.943 76.985 C 293.151 79.126,292.344 84.911,290.703 85.869 C 290.421 86.034,289.829 86.883,289.387 87.757 C 288.945 88.631,288.432 89.346,288.248 89.346 C 288.064 89.346,287.268 90.033,286.480 90.872 C 285.692 91.711,284.542 92.661,283.925 92.984 C 283.308 93.306,282.603 93.853,282.358 94.201 C 282.112 94.548,280.851 95.306,279.554 95.884 C 278.257 96.463,276.838 97.318,276.400 97.785 C 275.962 98.252,274.464 98.986,273.073 99.416 C 271.681 99.845,270.345 100.466,270.105 100.795 C 269.865 101.124,268.502 101.790,267.077 102.276 C 265.652 102.761,264.822 103.173,265.234 103.192 C 265.889 103.221,265.870 103.269,265.079 103.586 C 264.582 103.784,263.994 103.883,263.770 103.805 C 263.547 103.727,262.895 104.053,262.321 104.531 C 261.696 105.050,260.523 105.499,259.403 105.648 C 258.038 105.829,257.582 106.035,257.725 106.406 C 257.854 106.743,257.639 106.914,257.091 106.910 C 256.419 106.906,256.368 106.836,256.822 106.542 C 257.131 106.343,257.215 106.180,257.009 106.181 C 256.804 106.181,255.903 106.679,255.007 107.286 C 254.103 107.898,252.405 108.581,251.190 108.820 C 249.987 109.056,249.038 109.436,249.081 109.663 C 249.124 109.890,248.810 110.130,248.384 110.195 C 247.627 110.312,247.633 110.361,248.665 112.406 L 249.720 114.498 249.720 131.093 C 249.720 153.823,251.463 151.544,233.953 151.705 C 215.693 151.873,216.832 153.004,216.826 134.674 L 216.822 122.619 218.124 121.178 C 218.840 120.386,219.317 119.628,219.183 119.495 C 218.617 118.929,214.332 119.269,212.913 119.992 C 210.607 121.168,209.464 121.437,204.230 122.037 C 200.960 122.413,198.507 122.917,196.940 123.537 C 195.642 124.051,193.901 124.640,193.073 124.845 C 190.509 125.480,190.037 126.010,190.885 127.303 C 191.512 128.259,191.602 129.304,191.707 136.866 C 191.848 146.964,191.546 149.257,189.876 150.773 L 188.716 151.827 175.742 151.708 C 158.381 151.548,159.521 152.434,159.700 139.256 C 159.800 131.861,159.889 130.834,160.483 130.178 C 161.607 128.938,160.658 128.848,145.794 128.775 C 128.968 128.692,122.895 128.256,120.195 126.938 C 119.162 126.435,117.502 125.840,116.504 125.618 C 113.019 124.841,108.426 121.369,107.604 118.891 C 106.620 115.926,107.398 111.412,109.101 110.210 C 109.483 109.940,110.064 109.198,110.393 108.560 C 110.721 107.922,111.381 107.144,111.860 106.831 C 112.339 106.517,113.340 105.651,114.085 104.906 C 114.830 104.161,115.689 103.551,115.994 103.551 C 116.300 103.551,116.832 103.120,117.177 102.593 C 117.523 102.066,118.512 101.332,119.375 100.962 C 120.239 100.592,121.184 100.001,121.476 99.650 C 122.111 98.884,124.243 97.778,125.794 97.410 C 126.411 97.263,127.361 96.720,127.904 96.203 C 128.448 95.686,130.026 94.852,131.412 94.349 C 132.797 93.846,134.351 93.104,134.865 92.700 C 135.378 92.296,136.996 91.611,138.460 91.179 C 139.924 90.747,141.374 90.177,141.682 89.914 C 142.739 89.013,144.488 88.315,147.253 87.692 C 148.775 87.349,150.441 86.736,150.957 86.331 C 151.472 85.926,152.834 85.332,153.984 85.012 C 159.852 83.378,159.378 84.758,159.619 68.598 C 159.883 50.800,158.210 52.419,176.392 52.370 L 188.859 52.336 189.934 53.487 M250.148 82.995 C 248.956 86.415,250.074 97.849,251.392 95.716 C 251.514 95.519,252.637 94.985,253.888 94.529 C 255.139 94.073,256.833 93.140,257.652 92.455 C 258.472 91.770,259.552 91.107,260.053 90.981 C 260.613 90.841,261.251 90.191,261.706 89.299 C 262.114 88.500,262.768 87.645,263.160 87.401 C 263.847 86.972,263.836 86.911,262.871 85.778 C 262.320 85.131,261.701 84.316,261.495 83.967 C 261.034 83.185,257.652 82.348,253.606 82.016 L 250.576 81.767 250.148 82.995 M209.907 83.186 C 208.262 83.452,205.963 83.924,204.799 84.235 C 203.635 84.547,201.028 84.989,199.005 85.218 C 191.577 86.057,191.776 85.662,191.776 99.623 L 191.776 110.162 193.216 110.593 C 195.474 111.270,206.543 110.212,208.348 109.146 C 209.087 108.710,210.980 108.130,212.555 107.857 C 216.896 107.103,216.617 107.969,216.749 94.823 L 216.862 83.503 215.890 83.060 C 214.729 82.531,213.845 82.549,209.907 83.186 M153.084 96.802 C 152.673 96.970,152.012 97.469,151.616 97.909 C 151.219 98.350,149.734 99.063,148.316 99.494 C 146.897 99.925,145.640 100.528,145.523 100.833 C 145.405 101.139,144.283 101.857,143.029 102.428 C 136.561 105.374,135.755 109.300,140.970 112.449 C 142.621 113.446,153.519 114.355,157.009 113.788 L 159.065 113.453 159.309 111.400 C 159.637 108.633,159.676 102.075,159.383 98.972 L 159.144 96.449 156.488 96.472 C 155.027 96.485,153.495 96.634,153.084 96.802 M238.567 113.084 C 238.857 113.374,241.840 113.425,242.119 113.145 C 242.256 113.009,241.470 112.897,240.374 112.897 C 239.277 112.897,238.464 112.981,238.567 113.084 M203.178 122.991 C 203.315 123.214,202.863 123.364,202.056 123.364 C 201.250 123.364,200.797 123.214,200.935 122.991 C 201.062 122.785,201.566 122.617,202.056 122.617 C 202.546 122.617,203.050 122.785,203.178 122.991 M96.861 202.336 C 96.811 203.659,98.023 204.871,99.346 204.822 C 100.321 204.785,100.311 204.768,99.140 204.491 C 97.616 204.130,97.552 204.066,97.191 202.542 C 96.914 201.372,96.897 201.361,96.861 202.336 M302.798 202.336 C 302.789 203.594,302.292 204.154,300.889 204.485 C 299.712 204.763,299.696 204.786,300.654 204.822 C 301.925 204.869,303.178 203.682,303.178 202.430 C 303.178 201.916,303.093 201.495,302.991 201.495 C 302.888 201.495,302.801 201.874,302.798 202.336 " stroke="none" fill="#e32c2d" fill-rule="evenodd"></path><path id="path3" d="M162.732 52.749 C 159.910 53.565,159.836 53.942,159.619 68.598 C 159.378 84.758,159.852 83.378,153.984 85.012 C 152.834 85.332,151.472 85.926,150.957 86.331 C 150.441 86.736,148.775 87.349,147.253 87.692 C 144.488 88.315,142.739 89.013,141.682 89.914 C 141.374 90.177,139.924 90.747,138.460 91.179 C 136.996 91.611,135.378 92.296,134.865 92.700 C 134.351 93.104,132.797 93.846,131.412 94.349 C 130.026 94.852,128.448 95.686,127.904 96.203 C 127.361 96.720,126.411 97.263,125.794 97.410 C 124.243 97.778,122.111 98.884,121.476 99.650 C 121.184 100.001,120.239 100.592,119.375 100.962 C 118.512 101.332,117.523 102.066,117.177 102.593 C 116.832 103.120,116.300 103.551,115.994 103.551 C 115.689 103.551,114.830 104.161,114.085 104.906 C 113.340 105.651,112.339 106.517,111.860 106.831 C 111.381 107.144,110.721 107.922,110.393 108.560 C 110.064 109.198,109.483 109.940,109.101 110.210 C 107.398 111.412,106.620 115.926,107.604 118.891 C 108.426 121.369,113.019 124.841,116.504 125.618 C 117.502 125.840,119.162 126.435,120.195 126.938 C 122.895 128.256,128.968 128.692,145.794 128.775 C 160.658 128.848,161.607 128.938,160.483 130.178 C 159.889 130.834,159.800 131.861,159.700 139.256 C 159.521 152.434,158.381 151.548,175.742 151.708 L 188.716 151.827 189.876 150.773 C 191.546 149.257,191.848 146.964,191.707 136.866 C 191.602 129.304,191.512 128.259,190.885 127.303 C 190.037 126.010,190.509 125.480,193.073 124.845 C 193.901 124.640,195.642 124.051,196.940 123.537 C 198.507 122.917,200.960 122.413,204.230 122.037 C 209.464 121.437,210.607 121.168,212.913 119.992 C 214.332 119.269,218.617 118.929,219.183 119.495 C 219.317 119.628,218.840 120.386,218.124 121.178 L 216.822 122.619 216.826 134.674 C 216.832 153.004,215.693 151.873,233.953 151.705 C 251.463 151.544,249.723 153.815,249.711 131.134 C 249.703 113.333,249.654 112.853,247.619 110.605 C 246.911 109.823,247.031 109.756,250.550 108.979 C 252.260 108.601,254.111 107.894,255.095 107.242 C 256.095 106.580,257.676 105.981,259.072 105.735 C 260.651 105.457,261.764 105.002,262.564 104.309 C 263.210 103.749,264.965 102.922,266.464 102.471 C 267.963 102.020,269.527 101.314,269.940 100.902 C 270.352 100.489,271.795 99.810,273.146 99.393 C 274.497 98.976,275.962 98.252,276.400 97.785 C 276.838 97.318,278.257 96.463,279.554 95.884 C 280.851 95.306,282.112 94.548,282.358 94.201 C 282.603 93.853,283.308 93.306,283.925 92.984 C 284.542 92.661,285.692 91.711,286.480 90.872 C 287.268 90.033,288.064 89.346,288.248 89.346 C 288.432 89.346,288.945 88.631,289.387 87.757 C 289.829 86.883,290.421 86.034,290.703 85.869 C 292.344 84.911,293.151 79.126,291.943 76.985 C 290.734 74.843,286.891 71.856,284.324 71.063 C 282.969 70.644,281.532 70.126,281.131 69.912 C 278.557 68.534,266.711 67.290,256.165 67.290 L 250.823 67.290 250.403 66.262 C 250.173 65.696,249.907 63.131,249.812 60.561 C 249.505 52.192,249.657 52.265,232.830 52.415 C 216.873 52.557,216.840 52.577,216.829 62.140 C 216.821 68.280,216.106 70.506,214.039 70.823 C 213.411 70.919,210.206 71.363,206.916 71.809 C 203.626 72.255,200.093 72.951,199.065 73.356 C 197.249 74.072,193.015 74.367,192.159 73.838 C 191.916 73.688,191.775 70.628,191.774 65.492 C 191.771 56.655,191.551 55.219,189.934 53.487 L 188.859 52.336 176.392 52.370 C 169.535 52.389,163.388 52.559,162.732 52.749 M188.905 56.262 C 189.194 56.751,189.410 60.042,189.533 65.794 C 189.799 78.290,189.669 78.131,198.248 76.501 C 200.959 75.986,205.102 75.290,207.455 74.955 C 219.174 73.286,219.572 72.921,219.750 63.699 C 219.922 54.745,218.628 55.546,233.151 55.396 L 244.561 55.277 246.019 56.242 L 247.477 57.207 247.481 61.033 C 247.486 66.156,247.751 67.507,248.994 68.750 L 250.033 69.788 257.633 70.040 C 283.463 70.897,293.967 76.251,287.754 85.395 C 286.688 86.963,282.148 91.048,280.561 91.867 C 279.944 92.185,278.854 92.926,278.139 93.512 C 277.424 94.099,276.642 94.579,276.401 94.579 C 276.160 94.579,275.063 95.192,273.963 95.940 C 272.863 96.689,270.999 97.684,269.820 98.153 C 268.642 98.621,267.210 99.337,266.639 99.744 C 266.067 100.151,264.512 100.841,263.183 101.277 C 261.854 101.714,260.166 102.487,259.432 102.996 C 258.698 103.505,256.859 104.246,255.346 104.643 C 253.833 105.040,252.126 105.712,251.553 106.136 C 250.979 106.560,249.197 107.261,247.592 107.694 C 245.986 108.128,243.916 108.902,242.991 109.414 C 242.065 109.927,239.636 110.673,237.591 111.072 C 235.547 111.472,232.940 112.215,231.797 112.723 C 230.654 113.231,227.930 113.967,225.743 114.358 C 223.555 114.749,220.966 115.422,219.988 115.855 C 219.011 116.287,216.090 116.969,213.498 117.369 C 210.906 117.770,207.594 118.506,206.139 119.005 C 204.684 119.504,201.235 120.191,198.475 120.532 C 195.716 120.873,191.355 121.639,188.785 122.235 C 178.851 124.539,155.398 126.516,141.308 126.238 C 131.651 126.048,130.680 125.949,122.121 124.276 C 111.881 122.275,107.358 117.353,111.001 112.176 C 111.373 111.647,111.794 110.841,111.936 110.384 C 112.078 109.926,112.731 109.171,113.387 108.704 C 114.043 108.238,114.916 107.469,115.327 106.995 C 115.738 106.521,116.681 105.763,117.422 105.310 C 118.163 104.857,119.846 103.782,121.161 102.921 C 125.403 100.144,126.507 99.516,128.561 98.706 C 129.670 98.269,130.983 97.593,131.478 97.203 C 131.974 96.813,133.252 96.214,134.320 95.870 C 135.388 95.526,137.103 94.784,138.131 94.220 C 139.159 93.657,140.925 92.892,142.056 92.521 C 143.187 92.150,145.121 91.384,146.355 90.820 C 147.589 90.256,149.692 89.492,151.028 89.123 C 162.267 86.018,162.187 86.165,162.221 68.578 L 162.243 56.969 163.645 56.141 C 165.716 54.918,188.176 55.025,188.905 56.262 M249.256 79.243 C 247.834 80.361,247.477 82.575,247.477 90.264 L 247.477 97.207 248.692 97.969 C 250.218 98.926,252.257 98.742,253.939 97.496 C 254.600 97.006,255.897 96.288,256.822 95.899 C 266.541 91.812,269.060 84.221,261.809 80.871 C 257.006 78.652,250.998 77.873,249.256 79.243 M211.558 79.779 C 211.472 79.864,208.121 80.460,204.112 81.105 C 188.528 83.612,189.780 82.187,189.598 97.633 C 189.391 115.165,189.944 116.104,198.810 113.281 C 200.108 112.867,203.593 112.206,206.553 111.812 C 212.391 111.034,217.183 109.444,218.917 107.710 L 219.813 106.814 219.813 94.884 C 219.813 81.584,219.741 81.148,217.370 80.157 C 216.225 79.679,211.943 79.400,211.558 79.779 M258.879 82.799 C 260.139 83.099,261.285 83.610,261.495 83.967 C 261.701 84.316,262.320 85.131,262.871 85.778 C 263.836 86.911,263.847 86.972,263.160 87.401 C 262.768 87.645,262.114 88.500,261.706 89.299 C 261.251 90.191,260.613 90.841,260.053 90.981 C 259.552 91.107,258.472 91.770,257.652 92.455 C 256.833 93.140,255.139 94.073,253.888 94.529 C 252.637 94.985,251.514 95.519,251.392 95.716 C 250.074 97.849,248.956 86.415,250.148 82.995 L 250.576 81.767 253.606 82.016 C 255.272 82.153,257.645 82.505,258.879 82.799 M215.890 83.060 L 216.862 83.503 216.749 94.823 C 216.617 107.969,216.896 107.103,212.555 107.857 C 210.980 108.130,209.087 108.710,208.348 109.146 C 206.543 110.212,195.474 111.270,193.216 110.593 L 191.776 110.162 191.776 99.623 C 191.776 85.662,191.577 86.057,199.005 85.218 C 201.028 84.989,203.635 84.547,204.799 84.235 C 209.768 82.906,214.460 82.408,215.890 83.060 M156.449 93.301 C 155.215 93.815,153.333 94.489,152.266 94.801 C 151.199 95.112,149.703 95.790,148.941 96.307 C 148.179 96.824,146.652 97.585,145.547 97.999 C 144.443 98.412,143.076 99.140,142.509 99.617 C 141.942 100.094,140.809 100.838,139.992 101.270 C 134.676 104.078,132.749 108.896,135.744 111.894 C 138.275 114.429,138.806 114.638,145.809 115.863 C 161.092 118.535,161.931 118.014,162.180 105.691 C 162.433 93.112,161.541 91.182,156.449 93.301 M159.383 98.972 C 159.676 102.075,159.637 108.633,159.309 111.400 L 159.065 113.453 157.009 113.788 C 153.519 114.355,142.621 113.446,140.970 112.449 C 135.755 109.300,136.561 105.374,143.029 102.428 C 144.283 101.857,145.405 101.139,145.523 100.833 C 145.640 100.528,146.897 99.925,148.316 99.494 C 149.734 99.063,151.219 98.350,151.616 97.909 C 152.659 96.750,153.510 96.499,156.488 96.472 L 159.144 96.449 159.383 98.972 M242.119 113.145 C 241.840 113.425,238.857 113.374,238.567 113.084 C 238.464 112.981,239.277 112.897,240.374 112.897 C 241.470 112.897,242.256 113.009,242.119 113.145 M246.616 115.715 L 247.477 116.279 247.477 131.194 L 247.477 146.110 245.888 147.474 L 244.299 148.838 233.271 148.702 C 218.375 148.518,219.813 150.036,219.813 134.493 C 219.813 121.427,219.601 122.195,223.551 120.931 C 224.682 120.569,226.082 120.033,226.662 119.739 C 227.241 119.446,229.612 118.813,231.930 118.332 C 234.247 117.852,236.845 117.101,237.702 116.664 C 241.169 114.895,244.778 114.511,246.616 115.715 M189.012 128.879 C 189.667 129.741,189.751 145.654,189.108 147.065 C 188.446 148.518,188.139 148.557,176.449 148.703 L 165.421 148.841 163.832 147.689 L 162.243 146.537 162.243 139.506 L 162.243 132.474 163.749 131.628 C 164.854 131.006,166.270 130.689,169.076 130.435 C 171.178 130.244,174.243 129.832,175.888 129.519 C 183.470 128.074,188.225 127.842,189.012 128.879 " stroke="none" fill="#e7787a" fill-rule="evenodd"></path><path id="path4" d="M100.403 2.240 C 100.694 4.812,100.255 5.687,98.721 5.589 C 96.881 5.473,96.822 5.532,96.822 7.517 C 96.822 9.104,96.723 9.388,96.231 9.199 C 95.906 9.074,95.307 8.972,94.901 8.972 C 94.432 8.972,94.248 8.801,94.398 8.505 C 94.528 8.248,94.370 8.364,94.046 8.763 C 93.336 9.639,93.306 10.154,93.925 10.821 C 94.293 11.217,94.293 11.269,93.928 11.063 C 93.242 10.675,93.237 193.463,93.924 193.891 C 94.182 194.052,94.747 194.203,95.180 194.227 C 97.118 194.336,97.271 194.589,97.013 197.264 C 96.371 203.906,97.415 205.078,103.426 204.471 C 106.732 204.137,108.037 204.599,108.037 206.102 C 108.037 207.175,108.699 207.850,109.749 207.850 C 110.196 207.850,110.794 208.135,111.076 208.483 C 111.518 209.029,111.512 209.070,111.028 208.785 C 110.544 208.500,110.538 208.542,110.980 209.087 C 111.415 209.623,111.415 209.724,110.980 209.750 C 110.698 209.767,110.972 210.006,111.589 210.282 L 112.710 210.783 111.490 210.755 C 110.819 210.740,110.160 210.837,110.026 210.971 C 109.892 211.105,150.380 211.215,200.000 211.215 C 249.620 211.215,290.108 211.105,289.974 210.971 C 289.840 210.837,289.181 210.740,288.510 210.755 L 287.290 210.783 288.411 210.282 C 289.028 210.006,289.302 209.767,289.020 209.750 C 288.585 209.724,288.585 209.623,289.020 209.087 C 289.462 208.542,289.455 208.498,288.972 208.766 C 288.474 209.043,288.474 209.011,288.972 208.484 C 289.358 208.075,290.314 207.865,292.042 207.812 C 293.422 207.769,294.464 207.592,294.356 207.418 C 294.249 207.245,294.322 207.103,294.517 207.103 C 294.713 207.103,294.970 207.355,295.088 207.664 C 295.207 207.972,295.489 208.224,295.716 208.224 C 295.943 208.224,295.852 207.948,295.514 207.610 C 295.095 207.191,294.977 206.685,295.144 206.022 C 295.476 204.695,295.406 204.727,298.213 204.623 C 302.901 204.449,302.945 204.394,303.008 198.692 C 303.031 196.636,303.078 194.753,303.114 194.507 C 303.183 194.023,305.297 194.028,306.072 194.515 C 306.758 194.946,306.763 9.231,306.076 8.710 C 305.818 8.513,305.061 8.406,304.393 8.471 C 303.143 8.592,302.938 8.181,303.146 5.959 C 303.186 5.532,302.896 5.397,302.061 5.455 C 299.642 5.623,299.439 5.400,299.439 2.573 L 299.439 0.000 199.795 0.000 L 100.150 0.000 100.403 2.240 M291.021 3.363 C 292.855 3.774,297.780 8.392,298.899 10.750 C 299.216 11.419,299.931 12.388,300.486 12.903 L 301.495 13.839 301.495 101.405 C 301.495 194.534,301.565 190.729,299.816 192.606 C 299.465 192.983,298.981 193.918,298.740 194.683 C 298.071 196.811,295.394 199.456,292.748 200.604 C 291.494 201.148,290.467 201.721,290.467 201.877 C 290.467 203.390,292.038 203.364,200.000 203.364 C 107.962 203.364,109.533 203.390,109.533 201.877 C 109.533 201.721,108.521 201.154,107.284 200.618 C 104.643 199.473,101.940 196.876,101.282 194.853 C 101.033 194.086,100.306 192.724,99.667 191.827 L 98.505 190.197 98.505 103.603 L 98.505 17.009 99.907 14.455 C 100.678 13.050,101.308 11.654,101.308 11.352 C 101.308 9.500,106.751 3.721,108.871 3.321 C 111.013 2.917,289.216 2.958,291.021 3.363 M263.551 103.551 C 263.551 103.995,264.201 103.995,265.234 103.551 C 265.860 103.282,265.784 103.226,264.766 103.204 C 264.098 103.189,263.551 103.346,263.551 103.551 M247.290 109.907 C 247.159 110.118,247.465 110.280,247.993 110.280 C 248.507 110.280,249.032 110.112,249.159 109.907 C 249.289 109.695,248.983 109.533,248.455 109.533 C 247.941 109.533,247.417 109.701,247.290 109.907 M200.935 122.991 C 200.797 123.214,201.250 123.364,202.056 123.364 C 202.863 123.364,203.315 123.214,203.178 122.991 C 203.050 122.785,202.546 122.617,202.056 122.617 C 201.566 122.617,201.062 122.785,200.935 122.991 " stroke="none" fill="#b0242c" fill-rule="evenodd"></path></g></svg>