<?xml version="1.0" encoding="UTF-8" standalone="no"?>
<svg
   xmlns:dc="http://purl.org/dc/elements/1.1/"
   xmlns:cc="http://creativecommons.org/ns#"
   xmlns:rdf="http://www.w3.org/1999/02/22-rdf-syntax-ns#"
   xmlns:svg="http://www.w3.org/2000/svg"
   xmlns="http://www.w3.org/2000/svg"
   xmlns:sodipodi="http://sodipodi.sourceforge.net/DTD/sodipodi-0.dtd"
   xmlns:inkscape="http://www.inkscape.org/namespaces/inkscape"
   id="svg"
   version="1.1"
   width="42.819984"
   height="40"
   viewBox="0 0 42.819984 40.000002"
   sodipodi:docname="halotec40.svg"
   inkscape:version="0.92.4 (5da689c313, 2019-01-14)">
  <metadata
     id="metadata13">
    <rdf:RDF>
      <cc:Work
         rdf:about="">
        <dc:format>image/svg+xml</dc:format>
        <dc:type
           rdf:resource="http://purl.org/dc/dcmitype/StillImage" />
        <dc:title></dc:title>
      </cc:Work>
    </rdf:RDF>
  </metadata>
  <defs
     id="defs11" />
  <sodipodi:namedview
     pagecolor="#ffffff"
     bordercolor="#666666"
     borderopacity="1"
     objecttolerance="10"
     gridtolerance="10"
     guidetolerance="10"
     inkscape:pageopacity="0"
     inkscape:pageshadow="2"
     inkscape:window-width="1366"
     inkscape:window-height="745"
     id="namedview9"
     showgrid="false"
     inkscape:zoom="0.63140353"
     inkscape:cx="200"
     inkscape:cy="186.94676"
     inkscape:window-x="-8"
     inkscape:window-y="-8"
     inkscape:window-maximized="1"
     inkscape:current-layer="svg" />
  <g
     id="svgg"
     transform="scale(0.10699994)">
    <path
       id="path0"
       d="m 299.439,2.573 c 0,2.803 0.139,2.967 2.448,2.886 1.19,-0.041 1.861,-2.421 0.942,-3.34 C 302.61,1.899 302.43,1.333 302.43,0.86 302.43,0.106 302.246,0 300.935,0 h -1.496 V 2.573 M 97.049,2.46 c -0.124,0.326 -0.227,1.069 -0.227,1.653 0,0.876 -0.196,1.104 -1.124,1.308 -1.201,0.264 -1.63,0.829 -1.987,2.616 -0.123,0.617 -0.132,0.912 -0.02,0.655 0.112,-0.257 0.367,-0.468 0.568,-0.468 0.2,0 0.261,0.169 0.134,0.374 -0.128,0.206 0.101,0.374 0.508,0.374 0.406,0 1.005,0.102 1.33,0.227 0.492,0.189 0.591,-0.095 0.591,-1.682 0,-1.969 0.088,-2.062 1.796,-1.922 1.293,0.107 1.943,-0.655 1.943,-2.276 v -1.45 h -1.642 c -1.153,0 -1.71,0.176 -1.87,0.591 m 206.052,3.428 c -0.385,1.924 0.082,2.631 1.721,2.605 1.534,-0.024 1.568,-0.052 1.419,-1.175 -0.246,-1.864 -2.818,-3.035 -3.14,-1.43 M 93.458,195.499 c 0,1.986 1.293,4.677 2.462,5.126 0.785,0.301 0.795,0.272 1.07,-2.966 0.264,-3.112 0.153,-3.322 -1.81,-3.432 -0.433,-0.024 -0.998,-0.175 -1.255,-0.335 -0.351,-0.219 -0.467,0.182 -0.467,1.607 M 303.1,194.528 c -0.298,1.631 -0.052,6.589 0.327,6.591 1.691,0.009 3.186,-2.546 3.065,-5.238 l -0.076,-1.69 -1.619,-0.044 c -0.948,-0.026 -1.652,0.132 -1.697,0.381 m -198.988,9.836 c -3.249,0.275 -3.925,0.497 -3.925,1.285 0,1.422 0.678,2.106 2.335,2.355 1.167,0.175 1.709,0.469 1.973,1.071 0.572,1.304 2.688,2.182 4.664,1.936 0.925,-0.115 2.103,-0.207 2.617,-0.204 0.905,0.004 0.899,-0.012 -0.187,-0.511 -0.617,-0.284 -0.891,-0.529 -0.609,-0.546 0.435,-0.026 0.435,-0.127 0,-0.663 -0.442,-0.545 -0.436,-0.587 0.048,-0.302 0.484,0.285 0.49,0.244 0.048,-0.302 -0.282,-0.348 -0.88,-0.633 -1.327,-0.633 -1.047,0 -1.712,-0.674 -1.712,-1.735 0,-0.829 -1.3,-2.062 -2.045,-1.94 -0.212,0.035 -1.057,0.12 -1.88,0.189 m 191.905,0.374 c -1.287,0.339 -1.24,2.888 0.061,3.3 1.803,0.573 3.735,-0.563 3.735,-2.196 0,-1.191 -1.645,-1.669 -3.796,-1.104 m -1.998,2.739 c -0.127,0.205 -1.21,0.373 -2.407,0.373 -1.591,0 -2.312,0.17 -2.688,0.633 -0.442,0.546 -0.436,0.587 0.048,0.302 0.484,-0.285 0.49,-0.243 0.048,0.302 -0.435,0.536 -0.435,0.637 0,0.663 0.282,0.017 0.008,0.271 -0.609,0.565 -0.774,0.368 -0.89,0.514 -0.374,0.469 0.412,-0.036 1.395,0.068 2.185,0.231 2.931,0.604 6.047,-1.217 5.103,-2.981 -0.531,-0.992 -0.932,-1.163 -1.306,-0.557 m -137.851,4.018 c 24.108,0.053 63.556,0.053 87.664,0 24.107,-0.053 4.383,-0.096 -43.832,-0.096 -48.215,0 -67.939,0.043 -43.832,0.096 m -5.327,10.133 c -0.411,0.179 -1.348,0.246 -2.082,0.149 -1.774,-0.233 -2.419,0.469 -2.721,2.961 -0.564,4.653 -0.088,90.784 0.504,91.158 1.085,0.685 17.777,0.456 18.365,-0.252 0.692,-0.834 0.957,-88.873 0.276,-91.577 -0.32,-1.273 -0.666,-1.786 -1.391,-2.062 -1.269,-0.482 -11.989,-0.794 -12.951,-0.377 m -142.85,7.106 c -3.173,1.482 -2.931,-1.928 -3.044,43.019 -0.091,35.843 -0.04,39.97 0.505,41.612 0.613,1.847 1.858,2.81 3.043,2.355 0.284,-0.108 0.413,-0.032 0.288,0.171 -0.468,0.758 17.261,0.282 18.027,-0.483 0.617,-0.618 0.675,-1.942 0.774,-17.851 l 0.108,-17.183 H 39.64 51.589 v 14.903 c 0,15.95 0.111,16.873 2.039,16.873 0.269,0 0.675,0.739 0.903,1.644 0.585,2.325 1.213,2.468 10.852,2.466 8.314,-0.003 10.572,-0.288 11.122,-1.407 0.175,-0.356 0.364,-19.092 0.421,-41.636 l 0.104,-40.989 -0.803,-1.361 c -1.401,-2.375 -2.295,-2.626 -9.841,-2.767 -8.836,-0.165 -9.554,0.033 -11.796,3.259 -0.302,0.435 -0.752,0.791 -1.001,0.791 -1.852,0 -2,1.132 -2,15.302 0,9.872 -0.117,13.45 -0.449,13.782 -0.766,0.765 -22.953,0.629 -23.25,-0.143 -0.124,-0.325 -0.226,-7.06 -0.226,-14.965 0,-15.462 -0.101,-16.371 -1.931,-17.396 -1.592,-0.891 -15.831,-0.888 -17.742,0.004 m 360.046,-0.379 c -0.809,0.175 -1.312,0.634 -1.806,1.645 l -0.685,1.402 h -2.788 c -3.083,0 -5.511,0.906 -5.926,2.211 -0.136,0.431 -0.874,0.942 -1.802,1.249 -1.253,0.415 -1.656,0.774 -1.983,1.765 -0.306,0.925 -0.736,1.348 -1.682,1.654 -1.033,0.333 -1.365,0.706 -1.769,1.984 -0.286,0.901 -0.793,1.667 -1.188,1.792 -1.036,0.329 -2.317,2.773 -2.438,4.651 -0.082,1.29 -0.282,1.726 -0.892,1.952 -0.432,0.159 -0.979,0.716 -1.216,1.236 -0.237,0.52 -0.572,0.945 -0.744,0.945 -0.173,0 -0.314,1.514 -0.314,3.365 v 3.364 l -1.028,0.006 c -2.236,0.012 -2.141,-0.654 -2.245,15.867 -0.105,16.767 -0.121,16.65 2.338,16.65 0.927,0 0.935,0.029 0.972,3.458 0.048,4.463 0.269,5.205 1.744,5.86 0.938,0.417 1.248,0.825 1.421,1.869 0.332,2.015 1.226,3.516 2.648,4.448 0.704,0.461 1.46,1.235 1.681,1.72 0.221,0.484 0.798,1.061 1.283,1.282 0.484,0.221 1.263,0.984 1.73,1.697 0.988,1.508 2.778,2.47 4.594,2.47 0.711,0 1.495,0.262 1.763,0.588 2.298,2.801 1.887,2.75 22.445,2.77 l 17.85,0.018 v -11.408 -11.408 l -3.925,0.031 c -2.159,0.017 -3.925,0.157 -3.925,0.31 0,0.153 -0.478,0.208 -1.062,0.122 -1.279,-0.187 -2.303,0.7 -2.303,1.995 0,1.356 -7.439,1.431 -8.042,0.081 -0.762,-1.707 -3.061,-2.455 -7.752,-2.523 -0.836,-0.012 -1.028,-0.185 -1.028,-0.923 0,-1.205 -0.934,-2.083 -2.216,-2.083 -0.846,0 -1.104,-0.219 -1.378,-1.176 -0.326,-1.136 -0.767,-1.552 -2.07,-1.948 -0.379,-0.116 -0.718,-0.785 -0.878,-1.735 -0.193,-1.139 -0.405,-1.492 -0.805,-1.339 -0.338,0.13 -0.445,0.051 -0.283,-0.211 0.178,-0.289 -0.108,-0.366 -0.915,-0.248 l -1.175,0.173 v -10.169 -10.169 l 1.101,-0.22 c 1.55,-0.31 2.111,-1.701 2.242,-5.552 0.015,-0.455 0.413,-0.664 1.423,-0.748 1.317,-0.109 1.414,-0.203 1.589,-1.543 l 0.187,-1.427 2.581,-0.163 c 2.91,-0.185 3.403,-0.455 3.72,-2.038 l 0.222,-1.113 H 387.654 400 V 239.856 228.87 l -1.215,-0.283 c -1.519,-0.354 -29.22,-0.563 -30.748,-0.232 m -125.232,6.352 c -1.645,0.186 -1.672,0.324 -1.678,8.564 l -0.006,7.57 -3.644,0.042 c -2.005,0.022 -4.024,0.01 -4.486,-0.027 -0.463,-0.038 -0.841,0.122 -0.841,0.354 0,0.233 -0.148,0.332 -0.328,0.221 -0.498,-0.308 -0.743,2.073 -0.783,7.616 -0.041,5.573 -0.087,5.792 -0.89,4.238 -0.308,-0.596 -0.993,-1.281 -1.523,-1.522 -0.716,-0.326 -0.962,-0.72 -0.962,-1.537 0,-1.777 -0.369,-2.272 -1.868,-2.512 -1.183,-0.189 -1.467,-0.417 -1.748,-1.4 -0.384,-1.344 -1.905,-2.052 -4.486,-2.087 -1.413,-0.019 -1.581,-0.124 -1.799,-1.117 -0.46,-2.093 -0.322,-2.072 -14.797,-2.201 l -13.368,-0.118 -1.499,0.946 c -0.824,0.52 -1.604,1.28 -1.733,1.688 -0.189,0.594 -0.625,0.765 -2.18,0.855 l -1.943,0.113 -0.114,1.568 c -0.113,1.553 -0.129,1.569 -1.682,1.682 -0.911,0.066 -1.588,0.31 -1.615,0.581 -0.026,0.257 -0.068,0.873 -0.094,1.369 -0.038,0.749 -0.3,0.945 -1.543,1.155 -1.488,0.251 -2.315,1.403 -1.71,2.382 0.285,0.462 -0.316,0.845 -1.808,1.152 -1.252,0.258 -1.235,0.204 -1.304,4.244 -0.031,1.866 -0.184,2.312 -1.087,3.177 -2.255,2.161 -2.265,2.214 -2.3,11.634 -0.033,9.272 0.369,11.602 2.116,12.248 1.064,0.392 1.223,0.876 1.229,3.734 0.006,2.954 0.496,3.859 2.088,3.859 0.713,0 0.908,0.195 0.908,0.91 0,1.871 4.855,8.062 6.322,8.062 0.224,0 0.407,0.168 0.407,0.373 0,0.206 0.463,0.376 1.028,0.379 1.887,0.01 2.71,0.405 2.71,1.301 0,1.835 0.237,1.865 15.547,1.965 15.378,0.101 15.998,0.036 16.349,-1.721 0.204,-1.021 0.392,-1.147 2.015,-1.349 3.005,-0.374 3.617,-0.679 4.344,-2.165 0.476,-0.972 0.934,-1.402 1.496,-1.406 1.303,-0.009 1.788,-0.534 2.008,-2.173 0.144,-1.073 0.423,-1.608 0.92,-1.766 1.172,-0.372 2.555,-2.94 2.555,-4.744 0,-1.297 0.159,-1.671 0.834,-1.97 2.357,-1.043 2.529,-2.156 2.432,-15.755 l -0.088,-12.395 2.694,-0.252 c 4.699,-0.44 4.221,-2.453 4.221,17.785 v 17.552 l 0.94,1.488 c 0.516,0.818 1.171,1.488 1.455,1.488 0.615,0 0.97,0.805 0.97,2.199 0,1.29 0.623,1.913 1.913,1.913 0.801,0 1.161,0.295 1.701,1.393 0.938,1.907 0.818,1.892 15.498,1.934 17.996,0.052 16.587,0.784 16.588,-8.612 0.001,-5.312 0.073,-6.118 0.48,-5.345 0.367,0.698 0.782,0.911 1.776,0.911 1.29,0 1.296,0.008 1.296,1.704 0,1.193 0.13,1.624 0.432,1.437 0.257,-0.158 0.33,-0.103 0.182,0.137 -0.671,1.087 2.03,3.605 2.966,2.766 0.153,-0.138 0.157,-0.04 0.01,0.217 -0.148,0.257 -0.118,0.468 0.067,0.468 0.184,0 0.521,0.408 0.749,0.907 0.458,1.005 2.146,1.893 4.286,2.254 1.013,0.171 1.402,0.424 1.402,0.91 0,2.069 0.155,2.088 18.356,2.205 18.726,0.12 19.569,0.041 20.068,-1.885 0.248,-0.954 0.557,-1.242 1.552,-1.446 2.088,-0.427 2.342,-1.788 2.161,-11.6 -0.129,-7.014 -0.315,-7.584 -2.397,-7.341 -0.679,0.08 -1.236,-0.008 -1.236,-0.195 0,-1.616 -10.74,0.459 -11.548,2.232 l -0.406,0.891 -7.013,-0.102 -7.014,-0.101 0.114,-0.981 c 0.146,-1.255 -0.796,-2.197 -2.197,-2.197 -0.602,0 -1.107,-0.126 -1.121,-0.28 -0.015,-0.155 -0.057,-0.91 -0.094,-1.679 l -0.066,-1.398 16.448,-0.097 16.449,-0.097 0.11,-1.872 c 0.095,-1.618 0.257,-1.956 1.192,-2.493 2.265,-1.3 1.76,-7.411 -0.612,-7.411 -0.468,0 -0.762,-6.185 -0.512,-10.748 0.036,-0.668 -0.086,-1.215 -0.273,-1.215 -0.186,0 -0.325,-0.378 -0.309,-0.84 0.024,-0.684 -0.214,-0.876 -1.278,-1.028 -1.267,-0.182 -1.316,-0.251 -1.548,-2.148 -0.413,-3.383 -0.615,-3.837 -1.818,-4.078 -1.272,-0.254 -1.67,-0.666 -2.006,-2.076 -0.267,-1.118 -1.908,-1.786 -4.394,-1.79 -1.284,-0.002 -1.366,-0.078 -1.586,-1.457 -0.31,-1.938 0.044,-1.889 -13.616,-1.888 -12.773,0.001 -13.499,0.126 -14.62,2.501 -0.334,0.71 -0.693,0.842 -2.296,0.842 -1.171,0 -1.81,0.143 -1.668,0.373 0.127,0.206 0.041,0.374 -0.191,0.374 -0.233,0 -0.392,0.379 -0.355,0.841 0.133,1.637 0.014,1.776 -1.51,1.776 -1.332,0 -1.495,0.099 -1.495,0.904 0,1.58 -0.412,2.084 -1.895,2.321 -0.792,0.127 -1.426,0.336 -1.41,0.465 0.261,2.11 -0.099,2.996 -1.266,3.109 -1.738,0.169 -2.146,1.264 -2.153,5.776 l -0.005,3.79 -1.306,0.245 c -1.304,0.245 -1.61,0.712 -1.732,2.642 -0.146,2.315 -0.112,13.395 0.047,15.141 l 0.187,2.056 -2.321,0.222 c -2.426,0.232 -3.292,0.672 -3.671,1.868 -0.203,0.639 -0.613,0.713 -3.94,0.713 h -3.713 v -1.094 c 0,-1.396 -0.874,-2.27 -2.269,-2.27 h -1.095 v -11.402 -11.402 l 4.953,-0.018 c 7.945,-0.03 11.159,-0.189 11.429,-0.565 0.139,-0.193 0.59,-0.532 1.001,-0.753 1.643,-0.883 2.055,-2.582 2.055,-8.469 10e-4,-9.666 -0.4,-10.008 -11.755,-10.008 h -7.683 l -0.043,-7.383 c -0.052,-8.829 -0.028,-8.491 -0.611,-8.55 -0.257,-0.027 -0.51,-0.087 -0.561,-0.134 -0.155,-0.142 -15.336,-0.204 -16.541,-0.067 M 92.993,251.783 c -0.762,0.518 -1.564,1.275 -1.782,1.682 -0.31,0.579 -0.785,0.741 -2.179,0.741 h -1.783 l -0.167,1.588 c -0.091,0.874 -0.166,4.413 -0.166,7.865 0,6.675 0.103,7.06 1.869,6.956 3.605,-0.212 7.046,0.079 6.168,0.521 -0.594,0.299 -0.978,0.85 -1.055,1.512 -0.134,1.159 -0.324,1.272 -2.571,1.523 -2.171,0.243 -2.98,0.759 -3.843,2.45 -0.408,0.8 -1.084,1.564 -1.501,1.696 -1.283,0.408 -2.042,2.36 -2.245,5.773 l -0.187,3.155 -1.21,0.312 c -2.955,0.763 -2.545,13.197 0.481,14.575 0.853,0.389 0.916,0.611 0.916,3.186 0,3.139 0.408,4.212 1.602,4.22 1.267,0.009 1.691,0.442 1.826,1.867 0.114,1.198 0.239,1.321 1.53,1.492 1.143,0.152 1.528,0.428 2.056,1.477 0.432,0.856 1.027,1.389 1.771,1.588 1.476,0.394 23.288,0.353 23.533,-0.044 0.104,-0.168 0.908,-0.168 1.786,0.002 3.58,0.693 17.017,0.405 18.59,-0.397 2.867,-1.463 2.761,-0.46 2.661,-25.178 -0.097,-23.743 -0.106,-23.85 -2.086,-25.147 -0.73,-0.479 -0.932,-0.927 -0.932,-2.071 0,-1.64 -1.43,-4.246 -2.52,-4.591 -0.373,-0.119 -0.926,-0.585 -1.229,-1.036 -0.547,-0.815 -1.629,-1.932 -2.742,-2.827 -0.319,-0.257 -1.23,-0.467 -2.024,-0.467 -1.27,0 -1.508,-0.147 -1.979,-1.215 -0.886,-2.014 -1.621,-2.105 -17.176,-2.129 l -14.026,-0.021 -1.386,0.942 m 17.287,18.753 c -5.979,0.27 -11.504,0.281 -11.345,0.025 0.096,-0.154 3.235,-0.248 6.975,-0.207 3.74,0.04 5.707,0.122 4.37,0.182 m 94.954,0.409 c 0,0.995 1.068,2.326 1.868,2.326 0.98,0 1.268,0.625 1.169,2.535 -0.047,0.91 0.067,1.551 0.254,1.435 0.186,-0.115 0.259,0.207 0.162,0.716 -0.246,1.287 0.565,2.142 1.852,1.953 l 1.05,-0.154 v 2.305 c 0,2.084 -0.088,2.345 -0.917,2.723 -1.395,0.635 -2.18,2.535 -2.37,5.736 l -0.169,2.857 -1.356,0.223 c -1.743,0.286 -3.812,1.558 -4.057,2.494 -0.296,1.132 -1.682,0.906 -2.422,-0.395 -0.35,-0.616 -0.86,-1.12 -1.132,-1.12 -0.53,0 -1.196,-0.689 -2.259,-2.336 -0.364,-0.565 -0.911,-1.028 -1.215,-1.028 -0.632,0 -0.735,-1.611 -0.737,-11.493 -0.002,-6.047 0.002,-6.072 0.839,-6.075 1.119,-0.003 2.337,-1.271 2.337,-2.432 0,-0.931 0.012,-0.935 3.551,-0.935 3.154,0 3.552,0.075 3.552,0.665 m 103.458,-0.39 c -0.977,0.077 -2.575,0.077 -3.552,0 -0.976,-0.077 -0.177,-0.14 1.776,-0.14 1.953,0 2.752,0.063 1.776,0.14 M 113.36,291.682 c 0.21,1.981 0.117,2.15 -1.187,2.15 -1.189,0 -1.679,0.472 -2.035,1.962 -0.352,1.474 -4.108,1.58 -4.767,0.135 -0.224,-0.491 -0.809,-1.076 -1.3,-1.3 -1.262,-0.575 -1.112,-0.985 0.508,-1.385 1.208,-0.299 1.45,-0.541 1.749,-1.749 l 0.346,-1.402 h 3.259 3.259 l 0.168,1.589 m 166.977,5.608 c -0.035,1.135 -0.056,1.154 -0.315,0.28 -0.153,-0.514 -0.211,-1.061 -0.128,-1.215 0.314,-0.586 0.479,-0.237 0.443,0.935 M 3.645,317.413 c -0.36,0.21 -0.911,0.877 -1.225,1.484 C 2.022,319.668 1.571,320 0.925,320 H 0 v 4.673 4.673 l 1.589,0.012 c 1.478,0.011 1.538,0.05 0.863,0.56 -0.399,0.302 -1.114,0.549 -1.589,0.549 H 0 v 17.149 17.148 l 1.545,0.247 c 2.012,0.322 1.69,0.809 -0.61,0.924 L 0,365.981 v 3.926 3.925 h 200 200 v -3.925 -3.926 l -1.028,-0.044 -1.028,-0.044 1.121,-0.268 1.122,-0.268 -1.122,-0.193 -1.121,-0.192 1.028,-0.056 1.028,-0.056 v -9.133 -9.133 l -0.841,-0.119 c -0.78,-0.111 -0.855,-0.353 -1.028,-3.297 -0.203,-3.446 -0.854,-5.219 -2.12,-5.777 -0.593,-0.26 -0.872,-0.808 -1.047,-2.056 -0.388,-2.758 -1.2,-4.112 -2.941,-4.903 l -1.556,-0.706 2.469,-0.008 c 1.358,-0.005 3.502,-0.116 4.766,-0.249 L 400,329.239 V 324.62 320 h -0.925 c -0.648,0 -1.097,-0.333 -1.499,-1.11 -0.316,-0.611 -0.898,-1.284 -1.294,-1.496 -0.999,-0.535 -391.719,-0.516 -392.637,0.019 M 38.67,330.25 c -0.696,0.509 -0.73,1.192 -0.834,16.729 -0.116,17.452 -0.097,17.746 1.147,18.247 0.509,0.205 -4.979,0.343 -14.195,0.358 -8.263,0.013 -15.11,-0.115 -15.215,-0.285 -0.104,-0.169 0.18,-0.295 0.633,-0.28 1.101,0.037 1.083,0.267 1.242,-16.234 0.141,-14.69 10e-4,-17.657 -0.876,-18.533 -0.46,-0.46 1.452,-0.532 14.146,-0.532 12.765,0 14.583,0.069 13.952,0.53 m 14.42,-0.197 c -0.869,0.242 -1.557,1.178 -2.039,2.774 -0.252,0.835 -0.887,0.492 -1.352,-0.731 -0.206,-0.543 -0.994,-1.209 -1.939,-1.638 l -1.592,-0.722 3.925,0.029 c 2.159,0.016 3.508,0.146 2.997,0.288 m 36.19,-0.068 c -2.235,0.342 -2.743,4.797 -2.4,21.043 0.124,5.86 0.222,11.122 0.217,11.694 -0.014,1.816 0.655,2.605 2.069,2.44 0.687,-0.08 1.167,-0.013 1.066,0.15 -0.1,0.162 -7.112,0.292 -15.581,0.287 l -15.399,-0.008 1.574,-0.714 c 1.8,-0.818 2.868,-2.753 2.639,-4.784 -0.076,-0.668 -0.003,-1.214 0.161,-1.214 0.165,0 0.299,-5.047 0.299,-11.215 0,-6.169 -0.134,-11.215 -0.299,-11.215 -0.164,0 -0.233,-0.559 -0.153,-1.242 0.223,-1.911 -0.762,-3.827 -2.416,-4.699 l -1.431,-0.755 15.327,0.039 c 8.43,0.022 14.877,0.109 14.327,0.193 m 9.505,0.01 c -1.079,0.076 -2.846,0.076 -3.925,0 -1.08,-0.075 -0.196,-0.137 1.962,-0.137 2.159,0 3.042,0.062 1.963,0.137 m 46.379,0.272 c -0.655,0.285 -1.458,1.035 -1.785,1.667 -0.55,1.065 -1.115,1.343 -2.379,1.172 -0.918,-0.125 -1.561,0.808 -1.561,2.267 0,1.16 -0.138,1.449 -0.689,1.449 -2.045,0 -2.65,2.58 -2.632,11.215 0.018,8.429 0.264,9.605 2.2,10.518 1.115,0.526 1.291,0.78 1.193,1.715 -0.139,1.329 0.44,1.872 2.173,2.036 1.003,0.095 1.333,0.31 1.421,0.926 0.154,1.077 1.138,1.904 2.502,2.101 0.617,0.089 -8.551,0.162 -20.373,0.162 -11.823,0 -21.023,-0.071 -20.446,-0.157 1.07,-0.161 1.148,-0.266 1.543,-2.067 0.193,-0.88 0.412,-1.028 1.518,-1.028 4.58,0 5.235,-1.828 5.222,-14.579 -0.012,-13.02 -0.34,-13.897 -5.501,-14.755 -1.123,-0.186 -1.403,-0.397 -1.408,-1.057 -0.006,-0.987 -0.357,-1.571 -1.115,-1.86 -0.309,-0.117 8.86,-0.22 20.374,-0.228 18.153,-0.013 20.776,0.054 19.743,0.503 m 46.191,0.202 c -2.466,1.303 -2.552,1.89 -2.537,17.271 0.015,15.336 0.035,15.462 2.771,17.009 l 1.495,0.846 -17.944,-0.023 c -9.869,-0.013 -17.691,-0.12 -17.383,-0.237 0.796,-0.303 1.109,-0.882 1.116,-2.064 0.005,-0.921 0.139,-1.028 1.293,-1.028 4.74,0 5.514,-2.187 5.371,-15.176 l -0.116,-10.491 -1.048,-1.372 c -0.575,-0.755 -1.29,-1.372 -1.588,-1.372 -0.298,0 -0.542,-0.168 -0.542,-0.374 0,-0.206 -0.491,-0.374 -1.091,-0.374 -1.577,0 -2.273,-0.356 -2.273,-1.161 0,-0.39 -0.337,-1.044 -0.748,-1.456 l -0.748,-0.747 17.664,0.016 c 17.632,0.017 17.661,0.018 16.308,0.733 m 13.621,-0.136 c -1.089,0.386 -1.819,0.974 -2.401,1.933 l -0.835,1.379 -0.336,-1.611 c -0.232,-1.116 -0.585,-1.711 -1.15,-1.939 -0.551,-0.222 0.333,-0.326 2.737,-0.322 l 3.551,0.006 -1.566,0.554 m 36.893,0.134 c -0.725,0.725 -0.748,1.246 -0.748,17.125 0,16.908 0.028,17.231 1.496,17.756 0.308,0.11 -6.337,0.211 -14.767,0.224 -12.587,0.02 -15.16,-0.06 -14.392,-0.448 l 0.935,-0.473 0.097,-16.714 c 0.095,-16.311 0.079,-16.732 -0.654,-17.466 l -0.752,-0.751 h 14.766 14.767 l -0.748,0.747 m 13.569,-0.47 c -1.482,0.071 -4.005,0.071 -5.608,10e-4 -1.603,-0.07 -0.391,-0.128 2.693,-0.129 3.084,0 4.396,0.057 2.915,0.128 m 39.048,0.126 c -0.36,0.21 -0.654,0.696 -0.654,1.08 0,1.454 -0.423,1.881 -1.866,1.881 -1.543,0 -1.857,0.488 -1.867,2.897 -0.003,0.677 -0.2,1.215 -0.443,1.215 -1.854,0 -2.671,5.49 -1.058,7.103 0.411,0.411 0.928,0.748 1.149,0.748 0.797,0 0.133,1.281 -0.774,1.495 -1.502,0.354 -1.859,1.619 -1.865,6.609 -0.006,4.95 0.276,5.728 2.078,5.728 0.69,0 0.909,0.201 0.913,0.841 0.012,2.027 0.384,2.523 1.89,2.523 1.35,0 1.45,0.079 1.686,1.338 0.162,0.866 0.531,1.451 1.045,1.658 0.458,0.185 -6.327,0.313 -16.028,0.301 -9.253,-0.01 -16.519,-0.098 -16.147,-0.194 0.743,-0.193 1.38,-1.539 1.38,-2.915 0,-0.559 0.278,-0.973 0.752,-1.124 2.398,-0.761 2.506,-6.536 0.142,-7.613 -0.492,-0.224 -0.894,-0.621 -0.893,-0.882 0.016,-16.332 -0.215,-22.052 -0.913,-22.562 -0.631,-0.461 1.428,-0.529 15.701,-0.519 11.342,0.008 16.224,0.129 15.772,0.392 m 44.493,0.366 c -2.677,1.414 -2.702,1.56 -2.839,16.249 -0.146,15.582 0.011,16.547 2.924,18.028 l 1.655,0.841 H 323.84 c -9.284,0 -16.969,-0.143 -17.078,-0.319 -0.108,-0.176 0.244,-0.236 0.784,-0.133 1.129,0.216 1.987,-0.668 1.987,-2.049 0,-0.864 0.258,-0.998 1.714,-0.886 1.828,0.141 2.127,-2.812 1.774,-17.515 -0.271,-11.246 -0.425,-11.936 -2.579,-11.525 -0.733,0.141 -0.957,-0.042 -1.29,-1.052 -0.291,-0.881 -0.789,-1.381 -1.787,-1.796 -1.273,-0.528 -0.005,-0.574 15.813,-0.577 l 17.196,-0.002 -1.395,0.736 m 42.614,0.002 c -1.989,1.05 -2.901,3.022 -2.901,6.275 v 2.59 l -1.296,0.243 c -1.752,0.329 -1.802,0.491 -2.044,6.637 -0.014,0.346 -0.349,0.732 -0.745,0.858 -1.461,0.464 -2.271,2.597 -2.271,5.986 0,3.038 -0.032,3.154 -1.099,3.914 -1.899,1.352 -1.716,3.658 0.342,4.311 0.555,0.177 0.757,0.564 0.757,1.452 0,1.397 0.612,2.338 1.683,2.589 0.411,0.096 -5.645,0.174 -13.458,0.174 -7.813,-10e-4 -13.706,-0.108 -13.096,-0.239 0.93,-0.199 1.16,-0.48 1.42,-1.731 0.224,-1.086 0.632,-1.698 1.491,-2.242 1.688,-1.067 1.824,-2.209 1.697,-14.205 -0.118,-11.213 -0.289,-12.294 -2.063,-13.075 -0.489,-0.214 -0.921,-0.828 -1.055,-1.495 -0.409,-2.046 -0.572,-2.39 -1.216,-2.559 -0.35,-0.092 7.439,-0.18 17.308,-0.194 l 17.944,-0.027 -1.398,0.738 m -281.509,18.381 c -0.083,0.672 -0.153,0.212 -0.155,-1.022 -0.002,-1.233 0.066,-1.783 0.151,-1.221 0.085,0.562 0.087,1.571 0.004,2.243 m 52.439,-1.186 c 0,1.165 -0.143,1.802 -0.373,1.66 -0.206,-0.127 -0.374,-0.978 -0.374,-1.891 0,-0.914 0.168,-1.661 0.374,-1.661 0.205,0 0.373,0.851 0.373,1.892 m 236.038,11.716 c -0.258,0.671 0.489,4.75 0.954,5.216 0.194,0.194 0.993,0.477 1.774,0.628 0.849,0.165 -0.989,0.272 -4.56,0.268 -3.29,-0.005 -5.561,-0.075 -5.047,-0.156 2.244,-0.353 2.555,-0.529 2.954,-1.673 0.226,-0.649 0.411,-1.996 0.411,-2.993 v -1.813 h 1.857 c 1.439,0 1.812,0.117 1.657,0.523 m -185.721,3.791 c 0.225,0.403 1.066,1.108 1.869,1.567 l 1.459,0.835 -3.809,0.006 c -2.096,0.004 -3.895,-0.131 -3.999,-0.3 -0.105,-0.168 0.264,-0.247 0.819,-0.176 1.436,0.185 1.97,-0.314 2.204,-2.061 0.213,-1.586 0.511,-1.56 1.457,0.129 m -151.782,0.388 c 0.163,0.866 0.531,1.451 1.045,1.658 0.52,0.21 -0.497,0.321 -2.944,0.322 h -3.738 l 1.797,-0.599 c 1.26,-0.42 1.963,-0.917 2.347,-1.659 0.734,-1.42 1.191,-1.335 1.493,0.278"
       inkscape:connector-curvature="0"
       style="fill:#646464;fill-rule:evenodd;stroke:none" />
    <path
       id="path1"
       d="m 163.645,56.141 -1.402,0.828 -0.022,11.609 c -0.034,17.587 0.046,17.44 -11.193,20.545 -1.336,0.369 -3.439,1.133 -4.673,1.697 -1.234,0.564 -3.168,1.33 -4.299,1.701 -1.131,0.371 -2.897,1.136 -3.925,1.699 -1.028,0.564 -2.743,1.306 -3.811,1.65 -1.068,0.344 -2.346,0.943 -2.842,1.333 -0.495,0.39 -1.808,1.066 -2.917,1.503 -2.054,0.81 -3.158,1.438 -7.4,4.215 -1.315,0.861 -2.998,1.936 -3.739,2.389 -0.741,0.453 -1.684,1.211 -2.095,1.685 -0.411,0.474 -1.284,1.243 -1.94,1.709 -0.656,0.467 -1.309,1.222 -1.451,1.68 -0.142,0.457 -0.563,1.263 -0.935,1.792 -3.643,5.177 0.88,10.099 11.12,12.1 8.559,1.673 9.53,1.772 19.187,1.962 14.09,0.278 37.543,-1.699 47.477,-4.003 2.57,-0.596 6.931,-1.362 9.69,-1.703 2.76,-0.341 6.209,-1.028 7.664,-1.527 1.455,-0.499 4.767,-1.235 7.359,-1.636 2.592,-0.4 5.513,-1.082 6.49,-1.514 0.978,-0.433 3.567,-1.106 5.755,-1.497 2.187,-0.391 4.911,-1.127 6.054,-1.635 1.143,-0.508 3.75,-1.251 5.794,-1.651 2.045,-0.399 4.474,-1.145 5.4,-1.658 0.925,-0.512 2.995,-1.286 4.601,-1.72 1.605,-0.433 3.387,-1.134 3.961,-1.558 0.573,-0.424 2.28,-1.096 3.793,-1.493 1.513,-0.397 3.352,-1.138 4.086,-1.647 0.734,-0.509 2.422,-1.282 3.751,-1.719 1.329,-0.436 2.884,-1.126 3.456,-1.533 0.571,-0.407 2.003,-1.123 3.181,-1.591 1.179,-0.469 3.043,-1.464 4.143,-2.213 1.1,-0.748 2.197,-1.361 2.438,-1.361 0.241,0 1.023,-0.48 1.738,-1.067 0.715,-0.586 1.805,-1.327 2.422,-1.645 1.587,-0.819 6.127,-4.904 7.193,-6.472 6.213,-9.144 -4.291,-14.498 -30.121,-15.355 l -7.6,-0.252 -1.039,-1.038 c -1.243,-1.243 -1.508,-2.594 -1.513,-7.717 l -0.004,-3.826 -1.458,-0.965 -1.458,-0.965 -11.41,0.119 c -14.523,0.15 -13.229,-0.651 -13.401,8.303 -0.178,9.222 -0.576,9.587 -12.295,11.256 -2.353,0.335 -6.496,1.031 -9.207,1.546 -8.579,1.63 -8.449,1.789 -8.715,-10.707 -0.123,-5.752 -0.339,-9.043 -0.628,-9.532 -0.729,-1.237 -23.189,-1.344 -25.26,-0.121 m 92.559,22.902 c 7.915,1.514 11.564,5.35 9.292,9.769 -1.144,2.226 -5.418,5.718 -8.674,7.087 -0.925,0.389 -2.222,1.107 -2.883,1.597 -1.682,1.246 -3.721,1.43 -5.247,0.473 l -1.215,-0.762 v -6.943 c 0,-11.788 0.747,-12.748 8.727,-11.221 m -38.834,1.114 c 2.371,0.991 2.443,1.427 2.443,14.727 v 11.93 l -0.896,0.896 c -1.734,1.734 -6.526,3.324 -12.364,4.102 -2.96,0.394 -6.445,1.055 -7.743,1.469 -8.866,2.823 -9.419,1.884 -9.212,-15.648 0.182,-15.446 -1.07,-14.021 14.514,-16.528 4.009,-0.645 7.36,-1.241 7.446,-1.326 0.385,-0.379 4.667,-0.1 5.812,0.378 M 160.248,93.06 c 1.801,1.098 2.122,3.199 1.932,12.631 -0.249,12.323 -1.088,12.844 -16.371,10.172 -7.003,-1.225 -7.534,-1.434 -10.065,-3.969 -2.995,-2.998 -1.068,-7.816 4.248,-10.624 0.817,-0.432 1.95,-1.176 2.517,-1.653 0.567,-0.477 1.934,-1.205 3.038,-1.618 1.105,-0.414 2.632,-1.175 3.394,-1.692 0.762,-0.517 2.258,-1.195 3.325,-1.506 1.067,-0.312 2.949,-0.986 4.183,-1.5 2.722,-1.132 2.373,-1.11 3.799,-0.241 m 81.158,22.275 c -1.181,0.294 -2.847,0.891 -3.704,1.329 -0.857,0.437 -3.455,1.188 -5.772,1.668 -2.318,0.481 -4.689,1.114 -5.268,1.407 -0.58,0.294 -1.98,0.83 -3.111,1.192 -3.95,1.264 -3.738,0.496 -3.738,13.562 0,15.543 -1.438,14.025 13.458,14.209 l 11.028,0.136 1.589,-1.364 1.589,-1.364 v -14.916 -14.915 l -0.861,-0.564 c -1.307,-0.856 -2.844,-0.968 -5.21,-0.38 m -60.285,13.297 c -1.233,0.174 -3.588,0.573 -5.233,0.887 -1.645,0.313 -4.71,0.725 -6.812,0.916 -2.806,0.254 -4.222,0.571 -5.327,1.193 l -1.506,0.846 v 7.032 7.031 l 1.589,1.152 1.589,1.152 11.028,-0.138 c 11.69,-0.146 11.997,-0.185 12.659,-1.638 0.643,-1.411 0.559,-17.324 -0.096,-18.186 -0.555,-0.732 -3.746,-0.832 -7.891,-0.247 m 68.703,106.036 c 0.983,0.077 2.497,0.076 3.365,-0.002 0.867,-0.079 0.063,-0.142 -1.787,-0.141 -1.851,0.001 -2.56,0.066 -1.578,0.143 m -11.968,35.881 c 0.568,0.086 1.409,0.083 1.869,-0.005 0.46,-0.089 -0.005,-0.16 -1.033,-0.157 -1.028,0.003 -1.405,0.076 -0.836,0.162 M 94.86,329.995 c 1.079,0.076 2.846,0.076 3.925,0 1.079,-0.075 0.196,-0.137 -1.963,-0.137 -2.158,0 -3.042,0.062 -1.962,0.137 m 154.97,0.003 c 1.603,0.07 4.126,0.07 5.608,-10e-4 1.481,-0.071 0.169,-0.128 -2.915,-0.128 -3.084,10e-4 -4.296,0.059 -2.693,0.129"
       inkscape:connector-curvature="0"
       style="fill:#f8efef;fill-rule:evenodd;stroke:none" />
    <path
       id="path2"
       d="m 108.871,3.321 c -2.12,0.4 -7.563,6.179 -7.563,8.031 0,0.302 -0.63,1.698 -1.401,3.103 l -1.402,2.554 v 86.594 86.594 l 1.162,1.63 c 0.639,0.897 1.366,2.259 1.615,3.026 0.658,2.023 3.361,4.62 6.002,5.765 1.237,0.536 2.249,1.103 2.249,1.259 0,1.513 -1.571,1.487 90.467,1.487 92.038,0 90.467,0.026 90.467,-1.487 0,-0.156 1.027,-0.729 2.281,-1.273 2.646,-1.148 5.323,-3.793 5.992,-5.921 0.241,-0.765 0.725,-1.7 1.076,-2.077 1.749,-1.877 1.679,1.928 1.679,-91.201 V 13.839 l -1.009,-0.936 c -0.555,-0.515 -1.27,-1.484 -1.587,-2.153 C 297.78,8.392 292.855,3.774 291.021,3.363 289.216,2.958 111.013,2.917 108.871,3.321 m 81.063,50.166 c 1.617,1.732 1.837,3.168 1.84,12.005 0.001,5.136 0.142,8.196 0.385,8.346 0.856,0.529 5.09,0.234 6.906,-0.482 1.028,-0.405 4.561,-1.101 7.851,-1.547 3.29,-0.446 6.495,-0.89 7.123,-0.986 2.067,-0.317 2.782,-2.543 2.79,-8.683 0.011,-9.563 0.044,-9.583 16.001,-9.725 16.827,-0.15 16.675,-0.223 16.982,8.146 0.095,2.57 0.361,5.135 0.591,5.701 l 0.42,1.028 h 5.342 c 10.546,0 22.392,1.244 24.966,2.622 0.401,0.214 1.838,0.732 3.193,1.151 2.567,0.793 6.41,3.78 7.619,5.922 1.208,2.141 0.401,7.926 -1.24,8.884 -0.282,0.165 -0.874,1.014 -1.316,1.888 -0.442,0.874 -0.955,1.589 -1.139,1.589 -0.184,0 -0.98,0.687 -1.768,1.526 -0.788,0.839 -1.938,1.789 -2.555,2.112 -0.617,0.322 -1.322,0.869 -1.567,1.217 -0.246,0.347 -1.507,1.105 -2.804,1.683 -1.297,0.579 -2.716,1.434 -3.154,1.901 -0.438,0.467 -1.936,1.201 -3.327,1.631 -1.392,0.429 -2.728,1.05 -2.968,1.379 -0.24,0.329 -1.603,0.995 -3.028,1.481 -1.425,0.485 -2.255,0.897 -1.843,0.916 0.655,0.029 0.636,0.077 -0.155,0.394 -0.497,0.198 -1.085,0.297 -1.309,0.219 -0.223,-0.078 -0.875,0.248 -1.449,0.726 -0.625,0.519 -1.798,0.968 -2.918,1.117 -1.365,0.181 -1.821,0.387 -1.678,0.758 0.129,0.337 -0.086,0.508 -0.634,0.504 -0.672,-0.004 -0.723,-0.074 -0.269,-0.368 0.309,-0.199 0.393,-0.362 0.187,-0.361 -0.205,0 -1.106,0.498 -2.002,1.105 -0.904,0.612 -2.602,1.295 -3.817,1.534 -1.203,0.236 -2.152,0.616 -2.109,0.843 0.043,0.227 -0.271,0.467 -0.697,0.532 -0.757,0.117 -0.751,0.166 0.281,2.211 l 1.055,2.092 v 16.595 c 0,22.73 1.743,20.451 -15.767,20.612 -18.26,0.168 -17.121,1.299 -17.127,-17.031 l -0.004,-12.055 1.302,-1.441 c 0.716,-0.792 1.193,-1.55 1.059,-1.683 -0.566,-0.566 -4.851,-0.226 -6.27,0.497 -2.306,1.176 -3.449,1.445 -8.683,2.045 -3.27,0.376 -5.723,0.88 -7.29,1.5 -1.298,0.514 -3.039,1.103 -3.867,1.308 -2.564,0.635 -3.036,1.165 -2.188,2.458 0.627,0.956 0.717,2.001 0.822,9.563 0.141,10.098 -0.161,12.391 -1.831,13.907 l -1.16,1.054 -12.974,-0.119 c -17.361,-0.16 -16.221,0.726 -16.042,-12.452 0.1,-7.395 0.189,-8.422 0.783,-9.078 1.124,-1.24 0.175,-1.33 -14.689,-1.403 -16.826,-0.083 -22.899,-0.519 -25.599,-1.837 -1.033,-0.503 -2.693,-1.098 -3.691,-1.32 -3.485,-0.777 -8.078,-4.249 -8.9,-6.727 -0.984,-2.965 -0.206,-7.479 1.497,-8.681 0.382,-0.27 0.963,-1.012 1.292,-1.65 0.328,-0.638 0.988,-1.416 1.467,-1.729 0.479,-0.314 1.48,-1.18 2.225,-1.925 0.745,-0.745 1.604,-1.355 1.909,-1.355 0.306,0 0.838,-0.431 1.183,-0.958 0.346,-0.527 1.335,-1.261 2.198,-1.631 0.864,-0.37 1.809,-0.961 2.101,-1.312 0.635,-0.766 2.767,-1.872 4.318,-2.24 0.617,-0.147 1.567,-0.69 2.11,-1.207 0.544,-0.517 2.122,-1.351 3.508,-1.854 1.385,-0.503 2.939,-1.245 3.453,-1.649 0.513,-0.404 2.131,-1.089 3.595,-1.521 1.464,-0.432 2.914,-1.002 3.222,-1.265 1.057,-0.901 2.806,-1.599 5.571,-2.222 1.522,-0.343 3.188,-0.956 3.704,-1.361 0.515,-0.405 1.877,-0.999 3.027,-1.319 5.868,-1.634 5.394,-0.254 5.635,-16.414 C 159.883,50.8 158.21,52.419 176.392,52.37 l 12.467,-0.034 1.075,1.151 m 60.214,29.508 c -1.192,3.42 -0.074,14.854 1.244,12.721 0.122,-0.197 1.245,-0.731 2.496,-1.187 1.251,-0.456 2.945,-1.389 3.764,-2.074 0.82,-0.685 1.9,-1.348 2.401,-1.474 0.56,-0.14 1.198,-0.79 1.653,-1.682 0.408,-0.799 1.062,-1.654 1.454,-1.898 0.687,-0.429 0.676,-0.49 -0.289,-1.623 -0.551,-0.647 -1.17,-1.462 -1.376,-1.811 -0.461,-0.782 -3.843,-1.619 -7.889,-1.951 l -3.03,-0.249 -0.428,1.228 m -40.241,0.191 c -1.645,0.266 -3.944,0.738 -5.108,1.049 -1.164,0.312 -3.771,0.754 -5.794,0.983 -7.428,0.839 -7.229,0.444 -7.229,14.405 v 10.539 l 1.44,0.431 c 2.258,0.677 13.327,-0.381 15.132,-1.447 0.739,-0.436 2.632,-1.016 4.207,-1.289 4.341,-0.754 4.062,0.112 4.194,-13.034 l 0.113,-11.32 -0.972,-0.443 c -1.161,-0.529 -2.045,-0.511 -5.983,0.126 m -56.823,13.616 c -0.411,0.168 -1.072,0.667 -1.468,1.107 -0.397,0.441 -1.882,1.154 -3.3,1.585 -1.419,0.431 -2.676,1.034 -2.793,1.339 -0.118,0.306 -1.24,1.024 -2.494,1.595 -6.468,2.946 -7.274,6.872 -2.059,10.021 1.651,0.997 12.549,1.906 16.039,1.339 l 2.056,-0.335 0.244,-2.053 c 0.328,-2.767 0.367,-9.325 0.074,-12.428 l -0.239,-2.523 -2.656,0.023 c -1.461,0.013 -2.993,0.162 -3.404,0.33 m 85.483,16.282 c 0.29,0.29 3.273,0.341 3.552,0.061 0.137,-0.136 -0.649,-0.248 -1.745,-0.248 -1.097,0 -1.91,0.084 -1.807,0.187 m -35.389,9.907 c 0.137,0.223 -0.315,0.373 -1.122,0.373 -0.806,0 -1.259,-0.15 -1.121,-0.373 0.127,-0.206 0.631,-0.374 1.121,-0.374 0.49,0 0.994,0.168 1.122,0.374 M 96.861,202.336 c -0.05,1.323 1.162,2.535 2.485,2.486 0.975,-0.037 0.965,-0.054 -0.206,-0.331 -1.524,-0.361 -1.588,-0.425 -1.949,-1.949 -0.277,-1.17 -0.294,-1.181 -0.33,-0.206 m 205.937,0 c -0.009,1.258 -0.506,1.818 -1.909,2.149 -1.177,0.278 -1.193,0.301 -0.235,0.337 1.271,0.047 2.524,-1.14 2.524,-2.392 0,-0.514 -0.085,-0.935 -0.187,-0.935 -0.103,0 -0.19,0.379 -0.193,0.841"
       inkscape:connector-curvature="0"
       style="fill:#e32c2d;fill-rule:evenodd;stroke:none" />
    <path
       id="path3"
       d="m 162.732,52.749 c -2.822,0.816 -2.896,1.193 -3.113,15.849 -0.241,16.16 0.233,14.78 -5.635,16.414 -1.15,0.32 -2.512,0.914 -3.027,1.319 -0.516,0.405 -2.182,1.018 -3.704,1.361 -2.765,0.623 -4.514,1.321 -5.571,2.222 -0.308,0.263 -1.758,0.833 -3.222,1.265 -1.464,0.432 -3.082,1.117 -3.595,1.521 -0.514,0.404 -2.068,1.146 -3.453,1.649 -1.386,0.503 -2.964,1.337 -3.508,1.854 -0.543,0.517 -1.493,1.06 -2.11,1.207 -1.551,0.368 -3.683,1.474 -4.318,2.24 -0.292,0.351 -1.237,0.942 -2.101,1.312 -0.863,0.37 -1.852,1.104 -2.198,1.631 -0.345,0.527 -0.877,0.958 -1.183,0.958 -0.305,0 -1.164,0.61 -1.909,1.355 -0.745,0.745 -1.746,1.611 -2.225,1.925 -0.479,0.313 -1.139,1.091 -1.467,1.729 -0.329,0.638 -0.91,1.38 -1.292,1.65 -1.703,1.202 -2.481,5.716 -1.497,8.681 0.822,2.478 5.415,5.95 8.9,6.727 0.998,0.222 2.658,0.817 3.691,1.32 2.7,1.318 8.773,1.754 25.599,1.837 14.864,0.073 15.813,0.163 14.689,1.403 -0.594,0.656 -0.683,1.683 -0.783,9.078 -0.179,13.178 -1.319,12.292 16.042,12.452 l 12.974,0.119 1.16,-1.054 c 1.67,-1.516 1.972,-3.809 1.831,-13.907 -0.105,-7.562 -0.195,-8.607 -0.822,-9.563 -0.848,-1.293 -0.376,-1.823 2.188,-2.458 0.828,-0.205 2.569,-0.794 3.867,-1.308 1.567,-0.62 4.02,-1.124 7.29,-1.5 5.234,-0.6 6.377,-0.869 8.683,-2.045 1.419,-0.723 5.704,-1.063 6.27,-0.497 0.134,0.133 -0.343,0.891 -1.059,1.683 l -1.302,1.441 0.004,12.055 c 0.006,18.33 -1.133,17.199 17.127,17.031 17.51,-0.161 15.77,2.11 15.758,-20.571 -0.008,-17.801 -0.057,-18.281 -2.092,-20.529 -0.708,-0.782 -0.588,-0.849 2.931,-1.626 1.71,-0.378 3.561,-1.085 4.545,-1.737 1,-0.662 2.581,-1.261 3.977,-1.507 1.579,-0.278 2.692,-0.733 3.492,-1.426 0.646,-0.56 2.401,-1.387 3.9,-1.838 1.499,-0.451 3.063,-1.157 3.476,-1.569 0.412,-0.413 1.855,-1.092 3.206,-1.509 1.351,-0.417 2.816,-1.141 3.254,-1.608 0.438,-0.467 1.857,-1.322 3.154,-1.901 1.297,-0.578 2.558,-1.336 2.804,-1.683 0.245,-0.348 0.95,-0.895 1.567,-1.217 0.617,-0.323 1.767,-1.273 2.555,-2.112 0.788,-0.839 1.584,-1.526 1.768,-1.526 0.184,0 0.697,-0.715 1.139,-1.589 0.442,-0.874 1.034,-1.723 1.316,-1.888 1.641,-0.958 2.448,-6.743 1.24,-8.884 -1.209,-2.142 -5.052,-5.129 -7.619,-5.922 -1.355,-0.419 -2.792,-0.937 -3.193,-1.151 -2.574,-1.378 -14.42,-2.622 -24.966,-2.622 h -5.342 l -0.42,-1.028 c -0.23,-0.566 -0.496,-3.131 -0.591,-5.701 -0.307,-8.369 -0.155,-8.296 -16.982,-8.146 -15.957,0.142 -15.99,0.162 -16.001,9.725 -0.008,6.14 -0.723,8.366 -2.79,8.683 -0.628,0.096 -3.833,0.54 -7.123,0.986 -3.29,0.446 -6.823,1.142 -7.851,1.547 -1.816,0.716 -6.05,1.011 -6.906,0.482 -0.243,-0.15 -0.384,-3.21 -0.385,-8.346 -0.003,-8.837 -0.223,-10.273 -1.84,-12.005 l -1.075,-1.151 -12.467,0.034 c -6.857,0.019 -13.004,0.189 -13.66,0.379 m 26.173,3.513 c 0.289,0.489 0.505,3.78 0.628,9.532 0.266,12.496 0.136,12.337 8.715,10.707 2.711,-0.515 6.854,-1.211 9.207,-1.546 11.719,-1.669 12.117,-2.034 12.295,-11.256 0.172,-8.954 -1.122,-8.153 13.401,-8.303 l 11.41,-0.119 1.458,0.965 1.458,0.965 0.004,3.826 c 0.005,5.123 0.27,6.474 1.513,7.717 l 1.039,1.038 7.6,0.252 c 25.83,0.857 36.334,6.211 30.121,15.355 -1.066,1.568 -5.606,5.653 -7.193,6.472 -0.617,0.318 -1.707,1.059 -2.422,1.645 -0.715,0.587 -1.497,1.067 -1.738,1.067 -0.241,0 -1.338,0.613 -2.438,1.361 -1.1,0.749 -2.964,1.744 -4.143,2.213 -1.178,0.468 -2.61,1.184 -3.181,1.591 -0.572,0.407 -2.127,1.097 -3.456,1.533 -1.329,0.437 -3.017,1.21 -3.751,1.719 -0.734,0.509 -2.573,1.25 -4.086,1.647 -1.513,0.397 -3.22,1.069 -3.793,1.493 -0.574,0.424 -2.356,1.125 -3.961,1.558 -1.606,0.434 -3.676,1.208 -4.601,1.72 -0.926,0.513 -3.355,1.259 -5.4,1.658 -2.044,0.4 -4.651,1.143 -5.794,1.651 -1.143,0.508 -3.867,1.244 -6.054,1.635 -2.188,0.391 -4.777,1.064 -5.755,1.497 -0.977,0.432 -3.898,1.114 -6.49,1.514 -2.592,0.401 -5.904,1.137 -7.359,1.636 -1.455,0.499 -4.904,1.186 -7.664,1.527 -2.759,0.341 -7.12,1.107 -9.69,1.703 -9.934,2.304 -33.387,4.281 -47.477,4.003 -9.657,-0.19 -10.628,-0.289 -19.187,-1.962 -10.24,-2.001 -14.763,-6.923 -11.12,-12.1 0.372,-0.529 0.793,-1.335 0.935,-1.792 0.142,-0.458 0.795,-1.213 1.451,-1.68 0.656,-0.466 1.529,-1.235 1.94,-1.709 0.411,-0.474 1.354,-1.232 2.095,-1.685 0.741,-0.453 2.424,-1.528 3.739,-2.389 4.242,-2.777 5.346,-3.405 7.4,-4.215 1.109,-0.437 2.422,-1.113 2.917,-1.503 0.496,-0.39 1.774,-0.989 2.842,-1.333 1.068,-0.344 2.783,-1.086 3.811,-1.65 1.028,-0.563 2.794,-1.328 3.925,-1.699 1.131,-0.371 3.065,-1.137 4.299,-1.701 1.234,-0.564 3.337,-1.328 4.673,-1.697 11.239,-3.105 11.159,-2.958 11.193,-20.545 l 0.022,-11.609 1.402,-0.828 c 2.071,-1.223 24.531,-1.116 25.26,0.121 m 60.351,22.981 c -1.422,1.118 -1.779,3.332 -1.779,11.021 v 6.943 l 1.215,0.762 c 1.526,0.957 3.565,0.773 5.247,-0.473 0.661,-0.49 1.958,-1.208 2.883,-1.597 9.719,-4.087 12.238,-11.678 4.987,-15.028 -4.803,-2.219 -10.811,-2.998 -12.553,-1.628 m -37.698,0.536 c -0.086,0.085 -3.437,0.681 -7.446,1.326 -15.584,2.507 -14.332,1.082 -14.514,16.528 -0.207,17.532 0.346,18.471 9.212,15.648 1.298,-0.414 4.783,-1.075 7.743,-1.469 5.838,-0.778 10.63,-2.368 12.364,-4.102 l 0.896,-0.896 v -11.93 c 0,-13.3 -0.072,-13.736 -2.443,-14.727 -1.145,-0.478 -5.427,-0.757 -5.812,-0.378 m 47.321,3.02 c 1.26,0.3 2.406,0.811 2.616,1.168 0.206,0.349 0.825,1.164 1.376,1.811 0.965,1.133 0.976,1.194 0.289,1.623 -0.392,0.244 -1.046,1.099 -1.454,1.898 -0.455,0.892 -1.093,1.542 -1.653,1.682 -0.501,0.126 -1.581,0.789 -2.401,1.474 -0.819,0.685 -2.513,1.618 -3.764,2.074 -1.251,0.456 -2.374,0.99 -2.496,1.187 -1.318,2.133 -2.436,-9.301 -1.244,-12.721 l 0.428,-1.228 3.03,0.249 c 1.666,0.137 4.039,0.489 5.273,0.783 m -42.989,0.261 0.972,0.443 -0.113,11.32 c -0.132,13.146 0.147,12.28 -4.194,13.034 -1.575,0.273 -3.468,0.853 -4.207,1.289 -1.805,1.066 -12.874,2.124 -15.132,1.447 l -1.44,-0.431 V 99.623 c 0,-13.961 -0.199,-13.566 7.229,-14.405 2.023,-0.229 4.63,-0.671 5.794,-0.983 4.969,-1.329 9.661,-1.827 11.091,-1.175 m -59.441,10.241 c -1.234,0.514 -3.116,1.188 -4.183,1.5 -1.067,0.311 -2.563,0.989 -3.325,1.506 -0.762,0.517 -2.289,1.278 -3.394,1.692 -1.104,0.413 -2.471,1.141 -3.038,1.618 -0.567,0.477 -1.7,1.221 -2.517,1.653 -5.316,2.808 -7.243,7.626 -4.248,10.624 2.531,2.535 3.062,2.744 10.065,3.969 15.283,2.672 16.122,2.151 16.371,-10.172 0.253,-12.579 -0.639,-14.509 -5.731,-12.39 m 2.934,5.671 c 0.293,3.103 0.254,9.661 -0.074,12.428 l -0.244,2.053 -2.056,0.335 c -3.49,0.567 -14.388,-0.342 -16.039,-1.339 -5.215,-3.149 -4.409,-7.075 2.059,-10.021 1.254,-0.571 2.376,-1.289 2.494,-1.595 0.117,-0.305 1.374,-0.908 2.793,-1.339 1.418,-0.431 2.903,-1.144 3.3,-1.585 1.043,-1.159 1.894,-1.41 4.872,-1.437 l 2.656,-0.023 0.239,2.523 m 82.736,14.173 c -0.279,0.28 -3.262,0.229 -3.552,-0.061 -0.103,-0.103 0.71,-0.187 1.807,-0.187 1.096,0 1.882,0.112 1.745,0.248 m 4.497,2.57 0.861,0.564 v 14.915 14.916 l -1.589,1.364 -1.589,1.364 -11.028,-0.136 c -14.896,-0.184 -13.458,1.334 -13.458,-14.209 0,-13.066 -0.212,-12.298 3.738,-13.562 1.131,-0.362 2.531,-0.898 3.111,-1.192 0.579,-0.293 2.95,-0.926 5.268,-1.407 2.317,-0.48 4.915,-1.231 5.772,-1.668 3.467,-1.769 7.076,-2.153 8.914,-0.949 m -57.604,13.164 c 0.655,0.862 0.739,16.775 0.096,18.186 -0.662,1.453 -0.969,1.492 -12.659,1.638 l -11.028,0.138 -1.589,-1.152 -1.589,-1.152 v -7.031 -7.032 l 1.506,-0.846 c 1.105,-0.622 2.521,-0.939 5.327,-1.193 2.102,-0.191 5.167,-0.603 6.812,-0.916 7.582,-1.445 12.337,-1.677 13.124,-0.64"
       inkscape:connector-curvature="0"
       style="fill:#e7787a;fill-rule:evenodd;stroke:none" />
    <path
       id="path4"
       d="m 100.403,2.24 c 0.291,2.572 -0.148,3.447 -1.682,3.349 -1.84,-0.116 -1.899,-0.057 -1.899,1.928 0,1.587 -0.099,1.871 -0.591,1.682 -0.325,-0.125 -0.924,-0.227 -1.33,-0.227 -0.469,0 -0.653,-0.171 -0.503,-0.467 0.13,-0.257 -0.028,-0.141 -0.352,0.258 -0.71,0.876 -0.74,1.391 -0.121,2.058 0.368,0.396 0.368,0.448 0.003,0.242 -0.686,-0.388 -0.691,182.4 -0.004,182.828 0.258,0.161 0.823,0.312 1.256,0.336 1.938,0.109 2.091,0.362 1.833,3.037 -0.642,6.642 0.402,7.814 6.413,7.207 3.306,-0.334 4.611,0.128 4.611,1.631 0,1.073 0.662,1.748 1.712,1.748 0.447,0 1.045,0.285 1.327,0.633 0.442,0.546 0.436,0.587 -0.048,0.302 -0.484,-0.285 -0.49,-0.243 -0.048,0.302 0.435,0.536 0.435,0.637 0,0.663 -0.282,0.017 -0.008,0.256 0.609,0.532 l 1.121,0.501 -1.22,-0.028 c -0.671,-0.015 -1.33,0.082 -1.464,0.216 -0.134,0.134 40.354,0.244 89.974,0.244 49.62,0 90.108,-0.11 89.974,-0.244 -0.134,-0.134 -0.793,-0.231 -1.464,-0.216 l -1.22,0.028 1.121,-0.501 c 0.617,-0.276 0.891,-0.515 0.609,-0.532 -0.435,-0.026 -0.435,-0.127 0,-0.663 0.442,-0.545 0.435,-0.589 -0.048,-0.321 -0.498,0.277 -0.498,0.245 0,-0.282 0.386,-0.409 1.342,-0.619 3.07,-0.672 1.38,-0.043 2.422,-0.22 2.314,-0.394 -0.107,-0.173 -0.034,-0.315 0.161,-0.315 0.196,0 0.453,0.252 0.571,0.561 0.119,0.308 0.401,0.56 0.628,0.56 0.227,0 0.136,-0.276 -0.202,-0.614 -0.419,-0.419 -0.537,-0.925 -0.37,-1.588 0.332,-1.327 0.262,-1.295 3.069,-1.399 4.688,-0.174 4.732,-0.229 4.795,-5.931 0.023,-2.056 0.07,-3.939 0.106,-4.185 0.069,-0.484 2.183,-0.479 2.958,0.008 0.686,0.431 0.691,-185.284 0.004,-185.805 -0.258,-0.197 -1.015,-0.304 -1.683,-0.239 -1.25,0.121 -1.455,-0.29 -1.247,-2.512 0.04,-0.427 -0.25,-0.562 -1.085,-0.504 -2.419,0.168 -2.622,-0.055 -2.622,-2.882 V 0 H 199.795 100.15 l 0.253,2.24 m 190.618,1.123 c 1.834,0.411 6.759,5.029 7.878,7.387 0.317,0.669 1.032,1.638 1.587,2.153 l 1.009,0.936 v 87.566 c 0,93.129 0.07,89.324 -1.679,91.201 -0.351,0.377 -0.835,1.312 -1.076,2.077 -0.669,2.128 -3.346,4.773 -5.992,5.921 -1.254,0.544 -2.281,1.117 -2.281,1.273 0,1.513 1.571,1.487 -90.467,1.487 -92.038,0 -90.467,0.026 -90.467,-1.487 0,-0.156 -1.012,-0.723 -2.249,-1.259 -2.641,-1.145 -5.344,-3.742 -6.002,-5.765 -0.249,-0.767 -0.976,-2.129 -1.615,-3.026 l -1.162,-1.63 V 103.603 17.009 l 1.402,-2.554 c 0.771,-1.405 1.401,-2.801 1.401,-3.103 0,-1.852 5.443,-7.631 7.563,-8.031 2.142,-0.404 180.345,-0.363 182.15,0.042 m -27.47,100.188 c 0,0.444 0.65,0.444 1.683,0 0.626,-0.269 0.55,-0.325 -0.468,-0.347 -0.668,-0.015 -1.215,0.142 -1.215,0.347 m -16.261,6.356 c -0.131,0.211 0.175,0.373 0.703,0.373 0.514,0 1.039,-0.168 1.166,-0.373 0.13,-0.212 -0.176,-0.374 -0.704,-0.374 -0.514,0 -1.038,0.168 -1.165,0.374 m -46.355,13.084 c -0.138,0.223 0.315,0.373 1.121,0.373 0.807,0 1.259,-0.15 1.122,-0.373 -0.128,-0.206 -0.632,-0.374 -1.122,-0.374 -0.49,0 -0.994,0.168 -1.121,0.374"
       inkscape:connector-curvature="0"
       style="fill:#b0242c;fill-rule:evenodd;stroke:none" />
  </g>
</svg>
