<?xml version="1.0" encoding="UTF-8" standalone="no"?>
<svg
   xmlns:dc="http://purl.org/dc/elements/1.1/"
   xmlns:cc="http://creativecommons.org/ns#"
   xmlns:rdf="http://www.w3.org/1999/02/22-rdf-syntax-ns#"
   xmlns:svg="http://www.w3.org/2000/svg"
   xmlns="http://www.w3.org/2000/svg"
   xmlns:sodipodi="http://sodipodi.sourceforge.net/DTD/sodipodi-0.dtd"
   xmlns:inkscape="http://www.inkscape.org/namespaces/inkscape"
   width="40px"
   height="40px"
   viewBox="0 0 40 40"
   version="1.1"
   id="svg10"
   sodipodi:docname="logo_dark_mini.svg"
   inkscape:version="0.92.4 (5da689c313, 2019-01-14)">
  <metadata
     id="metadata16">
    <rdf:RDF>
      <cc:Work
         rdf:about="">
        <dc:format>image/svg+xml</dc:format>
        <dc:type
           rdf:resource="http://purl.org/dc/dcmitype/StillImage" />
      </cc:Work>
    </rdf:RDF>
  </metadata>
  <defs
     id="defs14" />
  <sodipodi:namedview
     pagecolor="#ffffff"
     bordercolor="#666666"
     borderopacity="1"
     objecttolerance="10"
     gridtolerance="10"
     guidetolerance="10"
     inkscape:pageopacity="0"
     inkscape:pageshadow="2"
     inkscape:window-width="1366"
     inkscape:window-height="745"
     id="namedview12"
     showgrid="false"
     inkscape:zoom="5.9"
     inkscape:cx="-8.220339"
     inkscape:cy="20"
     inkscape:window-x="-8"
     inkscape:window-y="-8"
     inkscape:window-maximized="1"
     inkscape:current-layer="svg10" />
  <!-- Generator: Sketch 53 (72520) - https://sketchapp.com -->
  <title
     id="title2">Group</title>
  <desc
     id="desc4">Created with Sketch.</desc>
  <g
     id="Page-1"
     style="fill:#1b45ef;fill-rule:evenodd;stroke:none;stroke-width:1;fill-opacity:1">
    <g
       id="Group"
       style="fill-rule:nonzero;fill:#1b45ef;fill-opacity:1">
      <circle
         id="Oval"
         cx="20"
         cy="20"
         r="20"
         style="fill:#1b45ef;fill-opacity:1" />
      <path
         d="m 22.408203,23.220703 c 0,-0.501305 -0.177407,-0.891926 -0.532226,-1.171875 -0.35482,-0.279949 -0.978186,-0.56966 -1.870118,-0.869141 -0.891931,-0.29948 -1.621091,-0.589191 -2.1875,-0.86914 -1.842457,-0.904953 -2.763671,-2.14843 -2.763671,-3.730469 0,-0.787764 0.229489,-1.482744 0.688476,-2.084961 0.458987,-0.602216 1.108394,-1.070962 1.948242,-1.40625 0.839848,-0.335288 1.783849,-0.502929 2.832031,-0.502929 1.022141,0 1.938473,0.182289 2.749024,0.546875 0.810551,0.364585 1.440427,0.883785 1.889648,1.557617 0.449221,0.673831 0.673828,1.44368 0.673828,2.30957 h -3.417968 c 0,-0.57943 -0.177407,-1.028644 -0.532227,-1.347656 -0.354819,-0.319012 -0.834958,-0.478516 -1.44043,-0.478516 -0.611982,0 -1.095375,0.13509 -1.450195,0.405274 -0.354819,0.270183 -0.532226,0.613604 -0.532226,1.030273 0,0.364585 0.19531,0.694986 0.585937,0.991211 0.390627,0.296225 1.077469,0.602212 2.060547,0.917969 0.983078,0.315756 1.790361,0.655922 2.421875,1.020507 1.536466,0.885422 2.304687,2.106112 2.304687,3.66211 0,1.243496 -0.468745,2.220048 -1.40625,2.929687 -0.937504,0.709639 -2.223299,1.064453 -3.857421,1.064453 -1.15235,0 -2.195634,-0.206703 -3.129883,-0.620117 -0.93425,-0.413413 -1.637368,-0.979814 -2.109375,-1.699218 C 14.861,24.156572 14.625,23.32813 14.625,22.390625 h 3.4375 c 0,0.761723 0.196938,1.32324 0.59082,1.68457 0.393882,0.36133 1.033524,0.541992 1.918946,0.541992 0.566409,0 1.013995,-0.122069 1.342773,-0.36621 0.328778,-0.244142 0.493164,-0.587563 0.493164,-1.030274 z"
         id="S"
         inkscape:connector-curvature="0"
         style="fill:#1b45ef;fill-opacity:1" />
    </g>
  </g>
  <text
     xml:space="preserve"
     style="font-style:normal;font-weight:normal;font-size:40px;line-height:1.25;font-family:sans-serif;letter-spacing:0px;word-spacing:0px;fill:#ffffff;fill-opacity:1;stroke:none"
     x="8.474576"
     y="28.474575"
     id="text3725"><tspan
       sodipodi:role="line"
       id="tspan3723"
       x="8.474576"
       y="28.474575"
       style="font-style:normal;font-variant:normal;font-weight:normal;font-stretch:normal;font-size:25.33333397px;font-family:'Ink Free';-inkscape-font-specification:'Ink Free, Normal';font-variant-ligatures:normal;font-variant-caps:normal;font-variant-numeric:normal;font-feature-settings:normal;text-align:start;writing-mode:lr-tb;text-anchor:start;fill:#ffffff">Hl</tspan></text>
</svg>
