<?xml version="1.0" encoding="UTF-8" standalone="no"?>
<!-- Generator: Adobe Illustrator 21.1.0, SVG Export Plug-In . SVG Version: 6.00 Build 0)  -->

<svg
   xmlns:dc="http://purl.org/dc/elements/1.1/"
   xmlns:cc="http://creativecommons.org/ns#"
   xmlns:rdf="http://www.w3.org/1999/02/22-rdf-syntax-ns#"
   xmlns:svg="http://www.w3.org/2000/svg"
   xmlns="http://www.w3.org/2000/svg"
   xmlns:sodipodi="http://sodipodi.sourceforge.net/DTD/sodipodi-0.dtd"
   xmlns:inkscape="http://www.inkscape.org/namespaces/inkscape"
   version="1.1"
   id="Layer_1"
   x="0px"
   y="0px"
   viewBox="0 0 125.9 16.1"
   style="enable-background:new 0 0 125.9 16.1;"
   xml:space="preserve"
   sodipodi:docname="logo_star_white.svg"
   inkscape:version="0.92.4 (5da689c313, 2019-01-14)"><metadata
   id="metadata33"><rdf:RDF><cc:Work
       rdf:about=""><dc:format>image/svg+xml</dc:format><dc:type
         rdf:resource="http://purl.org/dc/dcmitype/StillImage" /></cc:Work></rdf:RDF></metadata><defs
   id="defs31" /><sodipodi:namedview
   pagecolor="#ffffff"
   bordercolor="#666666"
   borderopacity="1"
   objecttolerance="10"
   gridtolerance="10"
   guidetolerance="10"
   inkscape:pageopacity="0"
   inkscape:pageshadow="2"
   inkscape:window-width="1366"
   inkscape:window-height="745"
   id="namedview29"
   showgrid="false"
   inkscape:zoom="6.37"
   inkscape:cx="63.870506"
   inkscape:cy="8.0500002"
   inkscape:window-x="-8"
   inkscape:window-y="-8"
   inkscape:window-maximized="1"
   inkscape:current-layer="Layer_1" />
<style
   type="text/css"
   id="style2">
	.st0{fill:#FFFFFF;}
</style>
<g
   id="g6">
	<path
   class="st0"
   d="M15.2,5.5l-4.5-0.7l-2-4.3C8.6,0.2,8.3,0,7.9,0C7.6,0,7.3,0.2,7.1,0.5l-2,4.3L0.7,5.5C0.4,5.5,0.1,5.8,0,6.1   C-0.1,6.4,0,6.8,0.2,7l3.3,3.3L2.7,15c-0.1,0.3,0.1,0.7,0.3,0.9c0.3,0.2,0.6,0.2,0.9,0.1l4-2.2l4,2.2c0.1,0.1,0.3,0.1,0.4,0.1   c0.2,0,0.4-0.1,0.5-0.2c0.3-0.2,0.4-0.5,0.3-0.9l-0.8-4.7L15.6,7c0.2-0.2,0.3-0.6,0.2-0.9C15.8,5.7,15.5,5.5,15.2,5.5z"
   id="path4" />
</g>
<g
   id="g26">
	
	
	
	
	
	
	
	
	
</g>
<text
   xml:space="preserve"
   style="font-style:normal;font-weight:normal;font-size:40px;line-height:1.25;font-family:sans-serif;letter-spacing:0px;word-spacing:0px;fill:#000000;fill-opacity:1;stroke:none"
   x="38.618526"
   y="14.844113"
   id="text37"><tspan
     sodipodi:role="line"
     id="tspan35"
     x="38.618526"
     y="14.844113"
     style="font-style:normal;font-variant:normal;font-weight:bold;font-stretch:normal;font-size:18.66666667px;font-family:'Sitka Small';-inkscape-font-specification:'Sitka Small, Bold';font-variant-ligatures:normal;font-variant-caps:normal;font-variant-numeric:normal;font-feature-settings:normal;text-align:start;writing-mode:lr;text-anchor:start;fill:#ffffff">Halotec</tspan></text>
</svg>