<?xml version="1.0" encoding="UTF-8" standalone="no"?>
<!-- Generator: Adobe Illustrator 22.1.0, SVG Export Plug-In . SVG Version: 6.00 Build 0)  -->

<svg
   xmlns:dc="http://purl.org/dc/elements/1.1/"
   xmlns:cc="http://creativecommons.org/ns#"
   xmlns:rdf="http://www.w3.org/1999/02/22-rdf-syntax-ns#"
   xmlns:svg="http://www.w3.org/2000/svg"
   xmlns="http://www.w3.org/2000/svg"
   xmlns:sodipodi="http://sodipodi.sourceforge.net/DTD/sodipodi-0.dtd"
   xmlns:inkscape="http://www.inkscape.org/namespaces/inkscape"
   version="1.1"
   id="Layer_1"
   x="0px"
   y="0px"
   viewBox="0 0 130.7 25.6"
   style="enable-background:new 0 0 130.7 25.6;"
   xml:space="preserve"
   sodipodi:docname="logo_2.svg"
   inkscape:version="0.92.4 (5da689c313, 2019-01-14)"><metadata
   id="metadata64"><rdf:RDF><cc:Work
       rdf:about=""><dc:format>image/svg+xml</dc:format><dc:type
         rdf:resource="http://purl.org/dc/dcmitype/StillImage" /></cc:Work></rdf:RDF></metadata><defs
   id="defs62" /><sodipodi:namedview
   pagecolor="#ffffff"
   bordercolor="#666666"
   borderopacity="1"
   objecttolerance="10"
   gridtolerance="10"
   guidetolerance="10"
   inkscape:pageopacity="0"
   inkscape:pageshadow="2"
   inkscape:window-width="1366"
   inkscape:window-height="745"
   id="namedview60"
   showgrid="false"
   inkscape:zoom="4.9944643"
   inkscape:cx="101.66845"
   inkscape:cy="12.8"
   inkscape:window-x="-8"
   inkscape:window-y="-8"
   inkscape:window-maximized="1"
   inkscape:current-layer="Page-1" />
<style
   type="text/css"
   id="style2">
	.st0{fill:url(#Oval-2_1_);}
	.st1{fill:#9B9B9B;}
	.st2{fill:#FFFFFF;}
	.st3{enable-background:new    ;}
</style>
<title
   id="title4">logo</title>
<desc
   id="desc6">Created with Sketch.</desc>
<g
   id="Page-1">
	<g
   id="Star-Admin_dashboard-new"
   transform="translate(-194,-50)">
		<g
   id="logo"
   transform="translate(194,47)">
			
				<linearGradient
   id="Oval-2_1_"
   gradientUnits="userSpaceOnUse"
   x1="-576.92279"
   y1="377.78781"
   x2="-576.0896"
   y2="376.4776"
   gradientTransform="matrix(25,0,0,-25,14424,9442)">
				<stop
   offset="5.008013e-04"
   style="stop-color:#005AFF"
   id="stop8" />
				<stop
   offset="1"
   style="stop-color:#0085FF"
   id="stop10" />
			</linearGradient>
			<circle
   id="Oval-2"
   class="st0"
   cx="12.5"
   cy="15.5"
   r="12.5"
   style="fill:url(#Oval-2_1_)" />
			<g
   id="Group"
   transform="translate(33,22)">
				<g
   id="Shape">
					
					
					
					
					
					
					
					
					
				</g>
			</g>
			<g
   id="logo-copy"
   transform="translate(5,8)">
				
			</g>
			<g
   class="st3"
   id="g54"
   style="enable-background:new">
				
				
				
				
				
				
				
				
				
			</g>
		</g>
	</g>
<path
   style="fill:#000000;fill-opacity:0;stroke-width:0.46021125"
   d=""
   id="path66"
   inkscape:connector-curvature="0" /><path
   id="path68"
   style="fill:#000000;fill-opacity:0;stroke-width:0.46021125"
   d="m 36.443359,2.7675781 c -1.669433,0 -3.279621,0.9807534 -3.595703,2.1894531 -0.02678,0.1023946 -0.03251,0.1977157 -0.04883,0.296875 0.409725,-0.070914 0.821506,-0.1419264 1.238281,-0.1269531 0.228041,0.00819 0.452114,0.05221 0.679688,0.064453 0.312597,-0.071764 0.490494,0.2016406 0.740234,0.2871094 8.79e-4,-0.00184 0.0011,-0.00403 0.002,-0.00586 -0.01146,-0.014459 -0.05904,-0.05293 -0.03906,-0.048828 0.03216,0.00661 0.0246,0.00605 0.05273,0.011719 0.468384,-0.890996 1.998662,-1.1150142 2.361328,-0.1699219 0.349692,0.911283 2.480469,0.9684276 2.480469,0.066406 0,-1.046247 -2.291683,-2.5644531 -3.871094,-2.5644531 z M 35.59375,6.703125 c -0.704379,0.1673368 -1.330936,0.3155259 -0.455078,0.6738281 0.03191,0.013056 0.06397,0.025356 0.0957,0.039063 0.07277,-1.158e-4 0.144805,0.00106 0.216797,0.00977 0.05274,0.00638 -0.105743,0.022022 -0.158203,0.013672 -0.02079,-0.00331 -0.03922,-0.01507 -0.05859,-0.023437 -0.07212,1.148e-4 -0.143931,0.00189 -0.214844,-0.00977 -0.144469,-0.02374 -0.285929,-0.069959 -0.423828,-0.1191406 -0.07812,-0.027863 -0.208414,-0.030939 -0.224609,-0.109375 -0.372151,-0.029775 -0.735074,-0.05872 -1.105469,0.00195 0.508623,0.6595973 1.398444,1.2550394 2.703125,1.8320313 1.881476,0.8320779 2.529167,1.3500972 2.417969,1.9335932 -0.200906,1.054216 -2.237682,1.330807 -2.771485,0.376954 -0.514658,-0.919646 -2.664062,-0.979371 -2.664062,-0.07422 0,0.361303 0.545965,1.086725 1.21289,1.611328 2.496996,1.964137 6.611329,0.739988 6.611329,-1.966797 0,-1.3413147 -1.035041,-2.2962259 -3.591797,-3.314453 -0.830475,-0.3307361 -1.321387,-0.5899723 -1.589844,-0.875 z"
   inkscape:connector-curvature="0" /><path
   style="fill:#000000;fill-opacity:0;stroke-width:0.46021125"
   d="M 44.916619,9.2103524 V 4.6082398 h -1.380634 c -1.073826,0 -1.380634,-0.2045383 -1.380634,-0.9204225 0,-0.8522431 0.306808,-0.9204225 4.141901,-0.9204225 3.835094,0 4.141902,0.068179 4.141902,0.9204225 0,0.7451039 -0.306808,0.9204225 -1.61074,0.9204225 h -1.610739 v 4.6021126 4.6021126 h -1.150528 -1.150528 z"
   id="path70"
   inkscape:connector-curvature="0" /><path
   style="fill:#ffffff;fill-opacity:0;stroke-width:0.20022167"
   d="M 35.388643,13.756473 C 33.878786,13.217599 33.155088,12.493327 32.911994,11.27786 l -0.12805,-0.640254 h 1.331424 c 1.227105,0 1.345972,0.03827 1.517106,0.48838 0.223464,0.587755 0.776958,0.913172 1.553195,0.913172 0.744515,0 1.054315,-0.328582 1.054315,-1.118236 0,-0.786176 -0.389904,-1.0655701 -2.625792,-1.8815683 -2.330211,-0.8504218 -2.980415,-1.5632828 -2.980415,-3.2676261 0,-1.8799006 1.476675,-3.0184031 3.904323,-3.010197 2.137903,0.00723 3.612638,0.9378821 4.012826,2.5323583 l 0.135129,0.5383971 h -1.409764 c -1.247004,0 -1.424859,-0.047557 -1.540501,-0.4119128 -0.152964,-0.4819456 -0.986012,-0.8518123 -1.529802,-0.6792198 -0.531856,0.1688045 -1.027025,0.9943701 -0.878015,1.4638607 0.166755,0.5253976 0.711445,0.8461808 2.577119,1.5177373 1.908312,0.6869043 2.660934,1.2860859 2.946221,2.3455606 0.292951,1.087937 0.0833,1.868141 -0.749788,2.790267 -1.037427,1.148308 -2.976273,1.517695 -4.712882,0.897894 z"
   id="path79"
   inkscape:connector-curvature="0" /><path
   style="fill:#ffffff;fill-opacity:0;stroke-width:0.20022167"
   d="M 35.388643,13.756473 C 33.878786,13.217599 33.155088,12.493327 32.911994,11.27786 l -0.12805,-0.640254 h 1.331424 c 1.227105,0 1.345972,0.03827 1.517106,0.48838 0.223464,0.587755 0.776958,0.913172 1.553195,0.913172 0.744515,0 1.054315,-0.328582 1.054315,-1.118236 0,-0.786176 -0.389904,-1.0655701 -2.625792,-1.8815683 -2.330211,-0.8504218 -2.980415,-1.5632828 -2.980415,-3.2676261 0,-1.8799006 1.476675,-3.0184031 3.904323,-3.010197 2.137903,0.00723 3.612638,0.9378821 4.012826,2.5323583 l 0.135129,0.5383971 h -1.409764 c -1.247004,0 -1.424859,-0.047557 -1.540501,-0.4119128 -0.152964,-0.4819456 -0.986012,-0.8518123 -1.529802,-0.6792198 -0.531856,0.1688045 -1.027025,0.9943701 -0.878015,1.4638607 0.166755,0.5253976 0.711445,0.8461808 2.577119,1.5177373 1.908312,0.6869043 2.660934,1.2860859 2.946221,2.3455606 0.292951,1.087937 0.0833,1.868141 -0.749788,2.790267 -1.037427,1.148308 -2.976273,1.517695 -4.712882,0.897894 z"
   id="path81"
   inkscape:connector-curvature="0" /><path
   style="fill:#ffffff;fill-opacity:0;stroke-width:0.20022167"
   d="m 51.287933,13.583749 c 0.03661,-0.15205 0.922518,-2.632667 1.968676,-5.5124833 l 1.902106,-5.2360297 1.527079,-0.00314 1.527078,-0.00314 2.026856,5.4087885 c 1.114771,2.9748335 2.026857,5.4566935 2.026857,5.5152435 0,0.05855 -0.60403,0.07981 -1.34229,0.04725 l -1.342289,-0.0592 -0.296565,-0.957264 -0.296565,-0.957263 -2.21009,0.05627 -2.21009,0.05627 -0.331697,0.900998 -0.331697,0.900997 -1.34197,0.05958 c -1.060987,0.04711 -1.328031,0.0017 -1.275399,-0.216873 z M 58.262151,9.88727 c 0,-0.2816696 -1.25089,-3.9545866 -1.40407,-4.1226918 -0.08411,-0.0923 -0.446525,0.7185974 -0.805377,1.8019951 -0.358853,1.0833975 -0.693918,2.0824383 -0.74459,2.2200907 -0.0686,0.186362 0.296831,0.250277 1.430953,0.250277 0.837696,0 1.523084,-0.067352 1.523084,-0.149671 z"
   id="path83"
   inkscape:connector-curvature="0" /><text
   xml:space="preserve"
   style="font-style:normal;font-weight:normal;font-size:40px;line-height:1.25;font-family:sans-serif;letter-spacing:0px;word-spacing:0px;fill:#ffffff;fill-opacity:1;stroke:none"
   x="4.6050987"
   y="16.990467"
   id="text137"><tspan
     sodipodi:role="line"
     id="tspan135"
     x="4.6050987"
     y="16.990467"
     style="font-style:normal;font-variant:normal;font-weight:normal;font-stretch:normal;font-size:13.33333302px;font-family:Forte;-inkscape-font-specification:'Forte, Normal';font-variant-ligatures:normal;font-variant-caps:normal;font-variant-numeric:normal;font-feature-settings:normal;text-align:start;writing-mode:lr-tb;text-anchor:start;fill:#ffffff">HL</tspan></text>
<text
   xml:space="preserve"
   style="font-style:normal;font-weight:normal;font-size:40px;line-height:1.25;font-family:sans-serif;letter-spacing:0px;word-spacing:0px;fill:#000000;fill-opacity:1;stroke:none"
   x="33.036575"
   y="19.192907"
   id="text141"><tspan
     sodipodi:role="line"
     id="tspan139"
     x="33.036575"
     y="19.192907"
     style="font-style:normal;font-variant:normal;font-weight:normal;font-stretch:normal;font-size:21.33333397px;font-family:'Sitka Small';-inkscape-font-specification:'Sitka Small, Normal';font-variant-ligatures:normal;font-variant-caps:normal;font-variant-numeric:normal;font-feature-settings:normal;text-align:start;writing-mode:lr-tb;text-anchor:start">Halotec</tspan></text>
</g>
</svg>