<?xml version="1.0" encoding="UTF-8" standalone="no"?>
<!-- Generator: Adobe Illustrator 22.1.0, SVG Export Plug-In . SVG Version: 6.00 Build 0)  -->

<svg
   xmlns:dc="http://purl.org/dc/elements/1.1/"
   xmlns:cc="http://creativecommons.org/ns#"
   xmlns:rdf="http://www.w3.org/1999/02/22-rdf-syntax-ns#"
   xmlns:svg="http://www.w3.org/2000/svg"
   xmlns="http://www.w3.org/2000/svg"
   xmlns:sodipodi="http://sodipodi.sourceforge.net/DTD/sodipodi-0.dtd"
   xmlns:inkscape="http://www.inkscape.org/namespaces/inkscape"
   version="1.1"
   id="Layer_1"
   x="0px"
   y="0px"
   viewBox="0 0 223.4 28.6"
   style="enable-background:new 0 0 223.4 28.6;"
   xml:space="preserve"
   sodipodi:docname="logo_3.svg"
   inkscape:version="0.92.4 (5da689c313, 2019-01-14)"><metadata
   id="metadata38"><rdf:RDF><cc:Work
       rdf:about=""><dc:format>image/svg+xml</dc:format><dc:type
         rdf:resource="http://purl.org/dc/dcmitype/StillImage" /></cc:Work></rdf:RDF></metadata><defs
   id="defs36" /><sodipodi:namedview
   pagecolor="#ffffff"
   bordercolor="#666666"
   borderopacity="1"
   objecttolerance="10"
   gridtolerance="10"
   guidetolerance="10"
   inkscape:pageopacity="0"
   inkscape:pageshadow="2"
   inkscape:window-width="1366"
   inkscape:window-height="745"
   id="namedview34"
   showgrid="false"
   inkscape:zoom="3.5904411"
   inkscape:cx="129.85288"
   inkscape:cy="14.3"
   inkscape:window-x="-8"
   inkscape:window-y="-8"
   inkscape:window-maximized="1"
   inkscape:current-layer="Layer_1" />
<style
   type="text/css"
   id="style2">
	.st0{fill:url(#SVGID_1_);}
	.st1{fill:#FFFFFF;}
</style>
<g
   id="g11">
	
		<linearGradient
   id="SVGID_1_"
   gradientUnits="userSpaceOnUse"
   x1="-14.3426"
   y1="-1258.7972"
   x2="198.2949"
   y2="-1258.7972"
   gradientTransform="matrix(1 0 0 -1 0 -1244.5182)">
		<stop
   offset="0"
   style="stop-color:#00FFBB"
   id="stop4" />
		<stop
   offset="1"
   style="stop-color:#05BDBA"
   id="stop6" />
	</linearGradient>
	<path
   class="st0"
   d="M27,9.8l-8-1.2l-3.5-7.6C15.3,0.4,14.8,0,14.1,0c-0.5,0-1.1,0.4-1.4,0.9L9.1,8.5L1.3,9.8   c-0.5,0-1.1,0.5-1.2,1.1s0,1.2,0.4,1.6l5.9,5.9l-1.4,8.3c-0.2,0.5,0.2,1.2,0.5,1.6c0.5,0.4,1.1,0.4,1.6,0.2l7.1-3.9l7.1,3.9   c0.2,0.2,0.5,0.2,0.7,0.2c0.4,0,0.7-0.2,0.9-0.4c0.5-0.4,0.7-0.9,0.5-1.6l-1.4-8.3l5.9-5.9c0.4-0.4,0.5-1.1,0.4-1.6   C28.1,10.1,27.6,9.8,27,9.8z"
   id="path9" />
</g>
<g
   id="g31">
	
	
	
	
	
	
	
	
	
</g>
<text
   xml:space="preserve"
   style="font-style:normal;font-weight:normal;font-size:40px;line-height:1.25;font-family:sans-serif;letter-spacing:0px;word-spacing:0px;fill:#ffffff;fill-opacity:1;stroke:none;"
   x="60.15974"
   y="23.865206"
   id="text42"><tspan
     sodipodi:role="line"
     id="tspan40"
     x="60.15974"
     y="23.865206"
     style="font-style:normal;font-variant:normal;font-weight:bold;font-stretch:normal;font-size:21.33333397px;font-family:'Sitka Small';-inkscape-font-specification:'Sitka Small, Bold';font-variant-ligatures:normal;font-variant-caps:normal;font-variant-numeric:normal;font-feature-settings:normal;text-align:start;writing-mode:lr-tb;text-anchor:start;fill:#ffffff;">H a l o t e c</tspan></text>
</svg>