<?xml version="1.0" encoding="UTF-8" standalone="no"?>
<svg
   xmlns:dc="http://purl.org/dc/elements/1.1/"
   xmlns:cc="http://creativecommons.org/ns#"
   xmlns:rdf="http://www.w3.org/1999/02/22-rdf-syntax-ns#"
   xmlns:svg="http://www.w3.org/2000/svg"
   xmlns="http://www.w3.org/2000/svg"
   xmlns:sodipodi="http://sodipodi.sourceforge.net/DTD/sodipodi-0.dtd"
   xmlns:inkscape="http://www.inkscape.org/namespaces/inkscape"
   id="svg"
   version="1.1"
   width="40"
   height="40"
   viewBox="0 0 40 40"
   sodipodi:docname="sigfox40.svg"
   inkscape:version="0.92.4 (5da689c313, 2019-01-14)">
  <metadata
     id="metadata13">
    <rdf:RDF>
      <cc:Work
         rdf:about="">
        <dc:format>image/svg+xml</dc:format>
        <dc:type
           rdf:resource="http://purl.org/dc/dcmitype/StillImage" />
        <dc:title></dc:title>
      </cc:Work>
    </rdf:RDF>
  </metadata>
  <defs
     id="defs11" />
  <sodipodi:namedview
     pagecolor="#ffffff"
     bordercolor="#666666"
     borderopacity="1"
     objecttolerance="10"
     gridtolerance="10"
     guidetolerance="10"
     inkscape:pageopacity="0"
     inkscape:pageshadow="2"
     inkscape:window-width="1366"
     inkscape:window-height="745"
     id="namedview9"
     showgrid="false"
     inkscape:zoom="1.03"
     inkscape:cx="200"
     inkscape:cy="-33.009709"
     inkscape:window-x="-8"
     inkscape:window-y="-8"
     inkscape:window-maximized="1"
     inkscape:current-layer="svg" />
  <g
     id="svgg"
     transform="scale(0.1)">
    <path
       id="path0"
       d="m 305.149,32.377 c -1.019,0.189 -2.215,0.537 -2.658,0.774 -0.444,0.238 -1.861,0.551 -3.149,0.697 -1.288,0.145 -2.972,0.575 -3.742,0.954 -0.77,0.379 -2.091,0.815 -2.935,0.969 -0.844,0.153 -2.194,0.616 -3,1.028 -0.806,0.412 -2.134,0.87 -2.951,1.017 -0.817,0.147 -1.694,0.519 -1.949,0.826 -0.255,0.307 -0.666,0.564 -0.914,0.571 -0.248,0.006 -1.351,0.455 -2.451,0.996 -1.1,0.541 -2.196,0.985 -2.436,0.987 -0.4,0.004 -4.345,1.928 -5.764,2.811 -0.33,0.205 -1.23,0.649 -2,0.986 -0.77,0.337 -2.12,1.052 -3,1.589 -0.88,0.537 -2.05,1.166 -2.6,1.397 -0.55,0.231 -1.27,0.595 -1.6,0.808 -0.33,0.212 -1.86,1.118 -3.4,2.012 -5.055,2.935 -10.904,6.588 -11.691,7.301 -0.424,0.385 -0.955,0.7 -1.179,0.7 -0.223,0 -0.728,0.355 -1.121,0.79 -0.393,0.434 -1.096,0.907 -1.562,1.05 -0.466,0.144 -1.117,0.513 -1.447,0.82 -0.644,0.599 -2.681,2.123 -5.002,3.74 -0.789,0.55 -2.509,1.81 -3.822,2.8 -1.313,0.99 -3.474,2.61 -4.802,3.6 -3.143,2.343 -9.789,7.61 -11.574,9.172 -0.77,0.675 -1.513,1.227 -1.652,1.227 -0.138,0.001 -1.038,0.765 -2,1.7 -0.961,0.934 -2.828,2.589 -4.148,3.678 -2.56,2.112 -5.021,4.331 -8.569,7.728 l -2.2,2.106 2.565,2.294 c 2.843,2.544 20.195,19.888 22.105,22.095 0.666,0.77 2.313,2.57 3.661,4 1.347,1.43 3.417,3.77 4.601,5.2 1.183,1.43 2.281,2.69 2.439,2.8 0.159,0.11 1.748,2 3.531,4.2 1.784,2.2 3.518,4.315 3.855,4.7 0.337,0.385 0.612,0.868 0.612,1.073 0,0.205 0.315,0.481 0.7,0.612 0.385,0.132 1.235,1.089 1.889,2.127 1.444,2.293 6.5,8.564 7.262,9.008 0.302,0.176 0.549,0.657 0.549,1.069 0,0.412 0.421,1.258 0.936,1.88 2.721,3.29 6.264,8.226 6.264,8.728 0,0.317 0.495,1.108 1.1,1.759 0.605,0.65 1.423,1.646 1.819,2.213 1.314,1.885 1.289,1.905 10.083,-7.769 1.5,-1.65 3.688,-4.03 4.863,-5.289 1.174,-1.26 2.135,-2.466 2.135,-2.681 0,-0.214 0.244,-0.534 0.542,-0.71 0.618,-0.365 8.425,-9.831 12.303,-14.92 1.426,-1.87 3.574,-4.687 4.774,-6.26 1.199,-1.574 2.403,-3.194 2.675,-3.6 0.271,-0.407 0.901,-1.327 1.4,-2.044 0.498,-0.717 1.374,-1.977 1.945,-2.8 0.572,-0.823 1.742,-2.553 2.6,-3.845 0.859,-1.292 1.831,-2.755 2.161,-3.251 2.562,-3.851 3.878,-5.922 5.211,-8.2 0.45,-0.77 1.254,-2.12 1.787,-3 0.532,-0.88 1.344,-2.32 1.803,-3.2 0.459,-0.88 1.633,-3.04 2.608,-4.8 0.975,-1.76 2.051,-3.83 2.392,-4.6 0.34,-0.77 0.799,-1.67 1.02,-2 0.221,-0.33 0.515,-0.94 0.652,-1.355 0.137,-0.416 0.672,-1.55 1.188,-2.522 0.517,-0.971 0.939,-2.034 0.939,-2.362 0,-0.329 0.45,-1.443 1,-2.476 0.55,-1.033 1,-2.129 1,-2.435 0,-0.305 0.339,-1.117 0.753,-1.803 0.414,-0.686 0.88,-2.147 1.035,-3.247 0.156,-1.1 0.542,-2.29 0.86,-2.645 0.317,-0.354 0.74,-1.651 0.94,-2.881 0.2,-1.23 0.564,-2.611 0.809,-3.069 0.245,-0.458 0.7,-2.761 1.012,-5.119 0.311,-2.357 0.682,-5.028 0.824,-5.934 0.366,-2.336 -1.25,-11.787 -2.337,-13.672 -1.656,-2.871 -4.665,-6.48 -5.403,-6.48 -0.212,0 -0.814,-0.337 -1.339,-0.749 -3.206,-2.516 -14.387,-4.06 -20.805,-2.874 M 197.6,97.981 c 0,0.448 -5.828,6.145 -6.524,6.378 -0.768,0.257 -4.676,4.171 -4.676,4.684 0,0.258 -0.669,0.983 -1.488,1.613 -0.818,0.629 -1.943,1.668 -2.5,2.308 -0.556,0.64 -2.028,2.26 -3.27,3.6 -5.601,6.042 -8.737,9.674 -8.739,10.122 -0.002,0.267 -0.4,0.698 -0.885,0.958 -0.485,0.259 -1.25,0.915 -1.7,1.457 -0.45,0.541 -1.508,1.73 -2.352,2.642 -0.844,0.911 -1.946,2.287 -2.449,3.057 -0.851,1.303 -2.033,2.681 -5.052,5.89 -0.667,0.71 -1.862,2.24 -2.655,3.4 -0.792,1.161 -2.626,3.57 -4.075,5.355 -2.694,3.319 -3.699,4.656 -7.751,10.319 -3.364,4.703 -4.342,6.115 -5.684,8.208 -0.66,1.03 -1.605,2.382 -2.1,3.004 -0.495,0.623 -0.9,1.34 -0.9,1.593 0,0.55 -1.123,2.805 -2.217,4.454 -1.459,2.2 -1.798,2.775 -2.385,4.05 -0.322,0.7 -0.787,1.397 -1.033,1.548 -0.246,0.152 -0.706,0.84 -1.023,1.528 -0.841,1.827 -4.071,7.88 -4.484,8.403 -0.195,0.246 -0.571,1.123 -0.837,1.948 -0.266,0.825 -0.635,1.5 -0.821,1.5 -0.186,0 -0.555,0.675 -0.82,1.5 -0.264,0.825 -0.714,1.77 -0.999,2.1 -0.285,0.33 -0.653,1.14 -0.818,1.8 -0.164,0.66 -0.627,1.74 -1.029,2.4 -0.402,0.66 -0.732,1.539 -0.733,1.953 0,0.414 -0.345,1.314 -0.764,2 -0.42,0.686 -0.978,2.052 -1.24,3.035 -0.261,0.984 -0.728,2.149 -1.036,2.589 -0.309,0.441 -0.561,1.313 -0.561,1.938 0,0.625 -0.352,1.98 -0.782,3.011 -0.71,1.7 -1.157,3.802 -2.48,11.674 -2.128,12.656 3.882,23.681 14.31,26.251 5.621,1.385 17.087,0.579 22.752,-1.6 0.88,-0.339 2.053,-0.624 2.606,-0.633 0.553,-0.01 1.633,-0.352 2.4,-0.759 0.767,-0.408 2.034,-0.86 2.816,-1.004 0.783,-0.144 2.126,-0.621 2.985,-1.059 0.859,-0.438 1.785,-0.796 2.056,-0.796 0.272,0 1.341,-0.45 2.375,-1 1.035,-0.55 2.102,-1 2.373,-1 0.27,0 0.706,-0.258 0.968,-0.574 0.262,-0.316 1.049,-0.694 1.749,-0.84 0.699,-0.145 1.722,-0.553 2.272,-0.905 0.55,-0.352 2.854,-1.588 5.12,-2.747 2.266,-1.159 4.569,-2.461 5.119,-2.893 0.549,-0.432 1.518,-0.9 2.152,-1.039 0.635,-0.139 1.368,-0.512 1.63,-0.828 0.262,-0.316 0.697,-0.574 0.966,-0.574 0.269,0 0.811,-0.355 1.204,-0.79 0.393,-0.434 1.073,-0.903 1.511,-1.043 0.439,-0.139 1.81,-0.924 3.048,-1.745 1.237,-0.821 3.56,-2.357 5.16,-3.412 1.601,-1.056 2.993,-2.053 3.094,-2.216 0.399,-0.646 0.222,-129.075 -0.179,-130.129 -0.38,-0.997 -1.625,-1.522 -1.625,-0.684 M 212,288.368 c -1.65,0.15 -3.54,0.578 -4.2,0.951 -0.66,0.372 -1.56,0.68 -2,0.686 -2.005,0.024 -5.187,3.02 -7.217,6.795 l -1.183,2.2 -0.117,24.294 c -0.082,16.824 0.015,24.542 0.314,25.1 0.752,1.406 9.468,1.214 10.013,-0.22 0.227,-0.598 0.39,-7.038 0.39,-15.426 0,-17.84 -0.822,-16.041 7.265,-15.89 7.601,0.141 7.217,0.411 7.05,-4.95 l -0.115,-3.708 -7,-0.2 -7,-0.2 -0.119,-2.719 c -0.152,-3.487 1.208,-6.011 3.602,-6.685 0.816,-0.23 1.591,-0.593 1.724,-0.807 0.3,-0.486 4.867,-0.517 5.165,-0.034 0.304,0.492 2.781,0.915 3.576,0.61 1.528,-0.587 2.421,-7.522 1.052,-8.166 -0.33,-0.155 -1.23,-0.572 -2,-0.927 -1.729,-0.797 -5.246,-1.066 -9.2,-0.704 m -79.8,1.352 c -2.63,0.789 -3.868,2.382 -4.1,5.275 -0.189,2.348 0.56,5.004 1.41,5.005 0.16,10e-4 0.813,0.451 1.452,1 3.153,2.712 8.533,0.776 10.066,-3.622 l 0.704,-2.021 -1.093,-2.31 c -1.525,-3.225 -4.662,-4.462 -8.439,-3.327 m -30.229,17.844 c -2.239,0.197 -3.323,0.498 -4.154,1.151 -0.619,0.487 -1.361,0.885 -1.65,0.885 -0.289,0 -1.001,0.44 -1.581,0.978 -0.581,0.538 -1.175,1.033 -1.321,1.1 -0.146,0.067 -0.76,1.049 -1.365,2.181 -3.17,5.933 0.233,15.452 5.975,16.713 0.698,0.154 1.475,0.526 1.725,0.828 0.25,0.302 1.028,0.67 1.728,0.817 0.699,0.148 1.812,0.59 2.472,0.983 0.66,0.393 1.785,0.837 2.5,0.989 0.715,0.151 1.3,0.43 1.3,0.62 0,0.19 0.54,0.665 1.2,1.055 1.521,0.898 1.596,2.616 0.19,4.336 l -0.981,1.2 h -5.304 c -4.66,0 -5.564,-0.112 -7.434,-0.924 -3.413,-1.48 -4.209,-1.18 -4.568,1.724 -0.164,1.32 -0.558,3.05 -0.875,3.845 -0.618,1.547 -0.287,2.355 0.966,2.355 0.348,0 1.695,0.373 2.993,0.829 3.84,1.35 16.698,1.152 18.802,-0.289 0.434,-0.297 1.051,-0.54 1.372,-0.54 1.008,0 4.385,-2.552 4.859,-3.671 0.249,-0.589 0.797,-1.382 1.217,-1.762 0.989,-0.895 1.118,-8.133 0.174,-9.767 -0.318,-0.55 -0.884,-1.575 -1.258,-2.278 -0.374,-0.703 -1.191,-1.489 -1.816,-1.748 -0.626,-0.259 -1.137,-0.618 -1.137,-0.797 0,-0.358 -4.4,-2.555 -6,-2.996 -0.55,-0.152 -1.27,-0.5 -1.6,-0.775 -0.33,-0.274 -1.07,-0.61 -1.644,-0.746 -5.475,-1.297 -7.142,-6.194 -2.556,-7.509 1.625,-0.466 10.414,-0.013 11.843,0.61 0.478,0.209 0.771,-0.057 1.147,-1.04 0.277,-0.727 0.753,-1.888 1.057,-2.581 0.695,-1.586 0.715,-3.908 0.037,-4.471 -1.314,-1.09 -10.446,-1.82 -16.313,-1.305 m 140.384,0.02 c -1.805,0.185 -2.997,0.548 -3.754,1.144 -0.61,0.479 -1.3,0.872 -1.533,0.872 -1.026,0 -5.868,3.939 -5.868,4.773 0,0.249 -0.261,0.552 -0.581,0.675 -0.319,0.122 -0.778,0.822 -1.02,1.555 -0.242,0.733 -0.692,1.542 -1,1.798 -0.308,0.255 -0.682,1.305 -0.831,2.332 -0.15,1.027 -0.535,2.384 -0.856,3.017 -1.663,3.273 1.121,17.14 3.768,18.77 0.286,0.176 0.52,0.541 0.52,0.811 0,0.909 2.836,3.188 5.6,4.501 0.77,0.366 1.67,0.824 2,1.017 1.727,1.015 3.049,1.22 7.876,1.225 4.479,0.005 5.537,-0.117 7,-0.807 0.948,-0.447 2.222,-0.919 2.832,-1.049 1.527,-0.327 7.774,-6.549 8.091,-8.06 0.134,-0.637 0.639,-1.93 1.122,-2.873 1.349,-2.632 1.334,-14.754 -0.021,-16.932 -0.495,-0.796 -0.9,-1.806 -0.9,-2.245 0,-3.793 -8.425,-9.864 -14.589,-10.514 -3.904,-0.411 -3.935,-0.411 -7.856,-0.01 m -112.408,0.447 c -0.415,0.259 -0.527,39.435 -0.115,40.507 0.416,1.085 9.571,0.978 10.158,-0.119 0.278,-0.52 0.383,-7.361 0.314,-20.5 L 140.2,308.2 135.259,308 c -2.718,-0.11 -5.108,-0.096 -5.312,0.031 m 32.853,-0.084 c -0.55,0.139 -1.54,0.545 -2.2,0.902 -0.66,0.357 -1.65,0.788 -2.2,0.957 -1.406,0.433 -5.127,3.397 -5.767,4.594 -0.294,0.55 -1.142,2.17 -1.884,3.6 l -1.349,2.6 v 7.006 7.007 l 1.341,2.726 c 1.521,3.092 5.077,6.922 6.76,7.281 0.605,0.129 1.839,0.582 2.743,1.007 2.178,1.024 8.68,1.091 11.398,0.117 3.311,-1.187 5.185,0.4 3.345,2.832 -0.323,0.428 -0.594,1.148 -0.602,1.6 -0.052,2.864 -4.069,4.782 -9.985,4.77 -3.444,-0.008 -4.697,-0.194 -9.194,-1.366 -2.061,-0.537 -3.643,2.215 -3.754,6.531 l -0.052,2.033 2.4,0.476 c 1.32,0.262 3.03,0.725 3.8,1.028 2.187,0.862 13.328,0.766 15.412,-0.133 0.873,-0.377 2.353,-0.879 3.288,-1.115 0.935,-0.237 1.7,-0.582 1.7,-0.767 0,-0.185 0.578,-0.575 1.284,-0.868 2.232,-0.924 5.207,-4.974 5.703,-7.765 0.157,-0.88 0.493,-1.852 0.749,-2.161 0.471,-0.57 0.938,-38.87 0.495,-40.65 -0.202,-0.815 -0.534,-0.923 -6.631,-2.172 -2.004,-0.411 -15.234,-0.466 -16.8,-0.07 m 107.48,0.306 c -0.275,0.275 1.328,2.7 4.02,6.084 0.935,1.175 1.7,2.35 1.7,2.611 0,0.261 0.315,0.749 0.7,1.085 0.904,0.79 2.411,2.877 4.3,5.954 0.22,0.359 0.999,1.407 1.732,2.33 1.433,1.806 1.356,3.648 -0.207,4.945 -0.549,0.456 -1.731,2.08 -3.125,4.293 -0.22,0.349 -1.525,2.154 -2.9,4.01 -1.375,1.857 -2.5,3.604 -2.5,3.883 0,0.278 -0.315,0.743 -0.7,1.031 -1.129,0.846 -2.582,3.131 -2.359,3.711 0.156,0.406 1.476,0.543 5.505,0.57 l 5.3,0.035 1.138,-1.297 c 0.626,-0.714 1.31,-1.658 1.52,-2.098 0.754,-1.579 4.614,-6.719 5.471,-7.286 0.834,-0.552 0.944,-0.471 2.393,1.754 0.836,1.283 2.276,3.28 3.2,4.438 0.925,1.158 1.784,2.427 1.909,2.82 0.496,1.566 10.691,2.438 11.872,1.015 0.398,-0.48 -0.443,-2.697 -1.141,-3.005 -0.343,-0.152 -0.402,-0.232 -4.246,-5.88 -1.506,-2.212 -2.991,-4.231 -3.3,-4.488 -0.309,-0.256 -0.562,-0.654 -0.562,-0.883 0,-0.23 -0.269,-0.703 -0.598,-1.051 -2.491,-2.64 -3.367,-5.106 -2.101,-5.914 0.276,-0.176 1.032,-1.13 1.68,-2.12 0.648,-0.99 1.528,-2.198 1.955,-2.685 0.426,-0.487 0.975,-1.226 1.22,-1.643 0.244,-0.417 0.984,-1.532 1.644,-2.479 1.361,-1.951 2.06,-2.97 3.182,-4.633 0.43,-0.638 1.465,-1.995 2.3,-3.016 0.835,-1.02 1.518,-1.965 1.518,-2.1 0,-0.832 -11.885,-0.217 -12.65,0.656 -1.174,1.337 -2.95,4.083 -2.95,4.56 0,0.229 -0.363,0.744 -0.806,1.145 -0.443,0.401 -1.442,1.688 -2.219,2.86 l -1.414,2.13 -1.22,-0.898 c -0.67,-0.493 -1.495,-1.428 -1.832,-2.077 -0.337,-0.65 -0.814,-1.404 -1.061,-1.677 -0.246,-0.272 -0.898,-1.143 -1.448,-1.936 -0.55,-0.792 -1.495,-2.087 -2.1,-2.878 -0.605,-0.792 -1.1,-1.594 -1.1,-1.784 0,-0.392 -11.331,-0.481 -11.72,-0.092 m -96.103,8.312 1.352,0.564 0.014,8.736 c 0.016,9.575 -0.066,9.957 -2.377,11.152 -3.976,2.057 -10.318,0.391 -11.508,-3.023 -0.234,-0.67 -0.702,-1.495 -1.041,-1.834 -2.091,-2.091 -0.108,-11.004 3.144,-14.132 1.989,-1.914 7.488,-2.687 10.416,-1.463 m 77.813,1.935 c 3.648,3.704 5.181,10.82 3.21,14.9 -0.425,0.88 -0.779,1.89 -0.786,2.245 -0.024,1.138 -2.3,3.566 -4.287,4.574 -4.547,2.307 -9.207,-10e-4 -11.748,-5.819 -1.704,-3.903 0.6,-15.368 3.258,-16.212 0.367,-0.116 1.077,-0.566 1.577,-1 0.724,-0.628 1.497,-0.788 3.808,-0.788 h 2.899 l 2.069,2.1"
       inkscape:connector-curvature="0"
       style="fill:#321a8b;fill-rule:evenodd;stroke:none" />
    <path
       id="path1"
       d="m 80.8,32.152 c -1.21,0.28 -3.55,1.146 -5.2,1.925 -1.65,0.779 -3.187,1.486 -3.415,1.57 -0.729,0.269 -3.652,3.702 -4.387,5.153 -0.39,0.77 -0.863,1.5 -1.05,1.621 -0.409,0.266 -1.897,5.708 -2.4,8.779 -0.485,2.962 -0.07,7.753 1.092,12.6 0.528,2.2 0.959,4.426 0.959,4.946 0.001,1.211 1.039,4.479 2.254,7.094 0.521,1.122 0.947,2.227 0.947,2.456 0,0.229 0.356,1.201 0.791,2.16 0.435,0.959 0.795,2.213 0.8,2.786 0.005,0.572 0.459,1.527 1.009,2.12 0.55,0.594 1,1.322 1,1.62 0,0.297 1.055,2.673 2.344,5.279 1.289,2.606 2.481,5.189 2.647,5.739 0.167,0.55 0.548,1.279 0.846,1.62 0.298,0.341 1.199,1.871 2.002,3.4 0.803,1.529 1.708,3.064 2.011,3.411 0.302,0.348 0.55,0.816 0.55,1.04 0,0.225 0.537,1.201 1.193,2.169 0.656,0.968 1.196,2.069 1.2,2.446 0.004,0.377 0.35,0.869 0.769,1.094 0.68,0.364 1.632,1.678 4.238,5.849 2.337,3.741 4.306,6.571 4.572,6.571 0.165,0 0.511,0.463 0.769,1.03 0.258,0.566 0.992,1.691 1.631,2.5 0.64,0.808 1.493,2.031 1.895,2.717 0.403,0.685 2.083,2.883 3.733,4.884 1.65,2.001 3.63,4.487 4.4,5.525 0.77,1.039 2.253,2.816 3.295,3.949 1.042,1.134 2.302,2.615 2.8,3.292 2.553,3.47 4.76,6.217 5.964,7.423 0.737,0.739 2.457,2.589 3.821,4.112 11.064,12.349 10.64,12.135 13.888,7.011 1.355,-2.138 2.266,-3.457 5.716,-8.279 3.94,-5.505 5.016,-6.934 8.157,-10.828 1.673,-2.073 3.293,-4.257 3.6,-4.853 0.308,-0.596 1.319,-1.893 2.248,-2.883 3.644,-3.883 4.649,-5.057 5.576,-6.514 0.529,-0.832 1.552,-2.092 2.273,-2.8 0.721,-0.707 1.616,-1.777 1.99,-2.378 0.374,-0.6 1.21,-1.366 1.858,-1.701 0.881,-0.455 1.242,-0.987 1.431,-2.108 0.408,-2.421 0.605,-2.899 1.192,-2.899 0.716,0 2.454,-1.738 2.787,-2.787 0.142,-0.447 0.521,-0.813 0.844,-0.813 0.322,0 0.682,-0.254 0.801,-0.564 0.12,-0.31 0.67,-0.678 1.224,-0.817 0.64,-0.16 0.93,-0.455 0.795,-0.807 -0.117,-0.304 0.057,-0.777 0.387,-1.051 0.33,-0.273 0.858,-1.118 1.175,-1.876 0.458,-1.095 0.747,-1.334 1.407,-1.162 0.516,0.135 1.122,-0.074 1.601,-0.553 0.76,-0.76 0.76,-0.77 -0.03,-0.77 -0.44,0 -0.8,-0.18 -0.8,-0.4 0,-0.22 0.18,-0.4 0.4,-0.4 0.22,0 0.4,-0.356 0.4,-0.792 0,-0.892 2.788,-2.541 3.702,-2.19 0.657,0.252 2.08,-1.199 1.731,-1.765 -0.135,-0.219 -0.082,-0.499 0.119,-0.623 0.201,-0.124 0.76,-0.983 1.242,-1.909 0.483,-0.926 1.688,-2.397 2.679,-3.268 1.54,-1.356 1.768,-1.749 1.574,-2.716 -0.149,-0.746 -0.067,-1.097 0.24,-1.033 0.687,0.142 0.848,-1.174 0.24,-1.965 -1.211,-1.574 -4.949,-5.043 -5.771,-5.356 -0.488,-0.185 -1.108,-0.948 -1.378,-1.694 -0.32,-0.884 -0.889,-1.506 -1.634,-1.788 -0.629,-0.237 -1.144,-0.717 -1.144,-1.066 0,-0.349 -0.266,-0.635 -0.592,-0.635 -0.326,0 -1.975,-1.26 -3.664,-2.8 -1.689,-1.54 -3.284,-2.8 -3.543,-2.8 -0.259,0 -1.21,-0.765 -2.112,-1.7 -0.903,-0.935 -2.113,-2.031 -2.689,-2.437 -0.576,-0.405 -1.206,-1.153 -1.4,-1.663 -0.219,-0.577 -0.815,-1.028 -1.58,-1.196 -0.676,-0.148 -1.451,-0.482 -1.724,-0.741 -0.273,-0.26 -1.486,-1.29 -2.696,-2.29 -2.131,-1.761 -2.802,-2.249 -6.009,-4.373 -4.678,-3.098 -7.829,-5.372 -8.111,-5.853 -0.176,-0.301 -0.543,-0.547 -0.816,-0.547 -0.606,0 -6.437,-3.647 -7.645,-4.782 C 141.34,52.368 140.679,52 140.35,52 c -0.33,0 -0.948,-0.315 -1.375,-0.7 -1.288,-1.163 -3.912,-2.802 -4.975,-3.107 -0.55,-0.158 -1.27,-0.524 -1.601,-0.812 -0.33,-0.289 -1.05,-0.719 -1.6,-0.956 -0.549,-0.237 -1.899,-0.961 -2.999,-1.607 -1.1,-0.647 -3.171,-1.54 -4.603,-1.985 -1.431,-0.445 -3.411,-1.321 -4.4,-1.948 -0.988,-0.626 -2.415,-1.354 -3.171,-1.617 -0.756,-0.263 -1.656,-0.722 -2,-1.02 -0.344,-0.298 -1.427,-0.663 -2.406,-0.812 -0.979,-0.149 -1.989,-0.445 -2.245,-0.657 C 108.346,36.257 101.78,34 100.89,34 100.498,34 99.823,33.761 99.389,33.47 98.652,32.975 92.949,32.278 86,31.834 c -1.736,-0.111 -3.927,0.023 -5.2,0.318 m 115.867,65.715 c -0.461,0.46 -0.292,0.933 0.333,0.933 0.33,0 0.6,-0.27 0.6,-0.6 0,-0.625 -0.473,-0.794 -0.933,-0.333 m 6.701,7.582 c -0.092,0.303 -0.254,0.824 -0.358,1.158 -0.191,0.609 1.171,3.61 1.82,4.012 0.566,0.349 2.37,-1.05 2.37,-1.837 0,-1.99 -3.351,-4.904 -3.832,-3.333 m 8.526,7.19 c -0.36,0.361 0.136,1.39 0.548,1.135 0.197,-0.122 0.358,-0.481 0.358,-0.798 0,-0.589 -0.477,-0.766 -0.906,-0.337 m -6.815,114.815 c -1.632,1.633 1.178,3.369 3.571,2.207 2.127,-1.034 2.009,-1.471 -0.496,-1.847 -1.021,-0.153 -2.068,-0.359 -2.326,-0.459 -0.258,-0.099 -0.595,-0.054 -0.749,0.099"
       inkscape:connector-curvature="0"
       style="fill:#22acfa;fill-rule:evenodd;stroke:none" />
    <path
       id="path2"
       d="M 0,200 V 400 H 200 400 V 200 0 H 200 0 V 200 M 91.4,31.218 c 4.18,0.454 7.96,0.996 8.4,1.205 0.44,0.209 1.744,0.555 2.899,0.768 1.154,0.213 2.899,0.753 3.878,1.198 0.978,0.446 1.921,0.811 2.093,0.811 0.361,0 4.385,1.519 5.425,2.047 0.382,0.194 0.915,0.353 1.185,0.353 0.27,0 2.693,1.08 5.384,2.4 2.691,1.32 5.148,2.4 5.46,2.4 0.313,0 0.997,0.322 1.522,0.716 0.525,0.394 1.404,0.942 1.954,1.219 0.55,0.277 1.72,0.944 2.6,1.481 1.93,1.18 4.03,2.184 4.567,2.184 0.216,0 0.537,0.225 0.713,0.5 0.176,0.275 0.95,0.817 1.72,1.205 0.77,0.387 1.94,1.057 2.6,1.488 0.66,0.432 1.83,1.146 2.6,1.588 0.77,0.442 2.12,1.34 3,1.995 0.88,0.656 2.174,1.456 2.876,1.778 1.373,0.629 5.344,3.466 6.572,4.694 0.414,0.414 0.944,0.752 1.179,0.752 0.414,0 2.968,1.773 3.773,2.621 0.22,0.231 1.21,0.949 2.2,1.594 1.91,1.245 4.624,3.254 5.519,4.085 0.296,0.275 0.693,0.5 0.883,0.5 0.189,0 0.453,0.342 0.585,0.76 0.133,0.418 0.648,0.863 1.145,0.987 0.497,0.125 1.886,1.149 3.086,2.275 1.2,1.127 2.659,2.353 3.243,2.725 0.583,0.372 1.843,1.353 2.8,2.18 1.622,1.401 3.879,3.288 7.982,6.673 0.933,0.77 3.298,2.93 5.254,4.8 5.144,4.917 4.867,4.85 7.942,1.929 3.914,-3.716 7.41,-6.729 7.809,-6.729 0.198,0 0.584,-0.36 0.859,-0.8 0.275,-0.44 0.756,-0.8 1.069,-0.8 0.314,0 0.684,-0.36 0.824,-0.8 0.14,-0.44 0.503,-0.8 0.807,-0.8 0.304,0 0.697,-0.245 0.873,-0.545 0.392,-0.669 5.55,-5.055 5.945,-5.055 0.156,0 0.685,-0.405 1.175,-0.9 1.272,-1.284 4.417,-3.896 6.38,-5.3 0.923,-0.66 1.993,-1.515 2.378,-1.9 0.384,-0.385 0.851,-0.7 1.037,-0.7 0.185,0 0.757,-0.36 1.271,-0.799 2.541,-2.174 3.363,-2.8 3.678,-2.801 0.19,0 1.18,-0.681 2.2,-1.512 2.485,-2.025 4.994,-3.688 5.563,-3.688 0.256,0 0.651,-0.348 0.879,-0.773 0.227,-0.425 0.808,-0.898 1.29,-1.051 0.483,-0.153 1.732,-0.93 2.777,-1.727 2.372,-1.809 5.323,-3.649 5.85,-3.649 0.219,0 0.632,-0.28 0.916,-0.623 0.285,-0.343 1.072,-0.889 1.749,-1.214 0.678,-0.325 1.952,-1.032 2.832,-1.571 0.88,-0.539 2.32,-1.354 3.2,-1.811 2.36,-1.224 3.878,-2.102 4.989,-2.884 0.544,-0.384 1.285,-0.697 1.646,-0.697 0.361,0 1.101,-0.349 1.643,-0.775 0.542,-0.427 1.466,-0.896 2.054,-1.044 0.587,-0.147 1.068,-0.406 1.068,-0.576 0,-0.169 0.585,-0.524 1.3,-0.787 0.715,-0.264 2.218,-0.916 3.34,-1.449 1.122,-0.533 2.278,-0.969 2.568,-0.969 0.291,0 0.836,-0.278 1.211,-0.617 0.375,-0.34 1.379,-0.724 2.231,-0.854 0.853,-0.131 1.82,-0.466 2.15,-0.746 0.33,-0.28 1.41,-0.714 2.4,-0.965 0.99,-0.251 2.643,-0.808 3.674,-1.237 1.031,-0.43 2.345,-0.781 2.92,-0.781 0.575,0 1.532,-0.249 2.126,-0.553 3.765,-1.926 20.778,-2.13 23.904,-0.286 0.782,0.462 1.585,0.839 1.785,0.839 0.693,0 3.833,2.208 5.12,3.6 0.711,0.77 1.542,1.67 1.846,2 0.304,0.33 0.791,1.14 1.084,1.8 0.292,0.66 0.77,1.386 1.063,1.614 0.292,0.228 0.634,1.218 0.76,2.2 0.125,0.982 0.518,2.326 0.872,2.986 0.933,1.741 0.916,11.979 -0.025,14.8 -0.367,1.1 -0.789,3.08 -0.938,4.4 -0.15,1.32 -0.447,2.728 -0.661,3.128 -0.214,0.401 -0.652,1.741 -0.974,2.978 -0.322,1.236 -0.733,2.438 -0.913,2.671 -0.18,0.233 -0.545,1.323 -0.811,2.423 -0.266,1.1 -0.719,2.363 -1.006,2.806 -0.286,0.443 -0.647,1.38 -0.801,2.081 -0.154,0.702 -0.602,1.689 -0.995,2.194 -0.393,0.506 -0.837,1.589 -0.988,2.408 -0.151,0.819 -0.501,1.629 -0.778,1.8 -0.277,0.171 -0.727,1.076 -1,2.011 -0.273,0.935 -0.662,1.7 -0.865,1.7 -0.202,0 -0.572,0.758 -0.822,1.684 -0.249,0.926 -0.686,1.871 -0.971,2.1 -0.285,0.229 -0.732,1.091 -0.993,1.916 -0.261,0.825 -0.614,1.5 -0.783,1.5 -0.17,0 -0.61,0.675 -0.978,1.5 -0.787,1.764 -2.344,4.608 -3.447,6.3 -0.43,0.66 -1.159,1.83 -1.62,2.6 -0.461,0.77 -1.269,2.12 -1.797,3 -0.527,0.88 -1.329,2.275 -1.781,3.1 -0.453,0.825 -1,1.5 -1.215,1.5 -0.216,0 -0.392,0.245 -0.392,0.545 0,0.484 -1.404,2.566 -2.875,4.26 -0.289,0.334 -0.74,1.084 -1.002,1.669 -0.477,1.062 -1.301,2.188 -2.623,3.586 -0.385,0.407 -0.7,0.897 -0.7,1.089 0,0.529 -9.195,12.705 -11.281,14.938 -0.616,0.659 -1.119,1.348 -1.119,1.533 0,0.184 -0.347,0.578 -0.771,0.875 -0.424,0.297 -0.993,1.027 -1.264,1.622 -0.271,0.596 -0.618,1.083 -0.77,1.083 -0.152,0 -1.15,1.111 -2.216,2.468 -1.066,1.357 -2.398,2.968 -2.959,3.578 -0.561,0.611 -1.2,1.348 -1.42,1.639 -0.22,0.291 -2.02,2.324 -4,4.518 -1.98,2.194 -4.14,4.607 -4.8,5.361 -0.66,0.754 -2.01,2.199 -3,3.211 -3.494,3.571 -3.374,3.317 -2.498,5.293 0.422,0.953 1.067,1.979 1.433,2.281 0.366,0.302 0.665,0.775 0.665,1.051 0,0.276 0.253,0.712 0.563,0.969 0.31,0.257 0.867,1.045 1.237,1.749 0.371,0.705 1.534,2.902 2.586,4.882 1.051,1.98 3.292,6.39 4.979,9.8 1.686,3.41 3.397,6.83 3.801,7.6 0.403,0.77 0.867,2.015 1.03,2.767 0.163,0.751 0.635,1.921 1.049,2.6 0.414,0.678 0.753,1.688 0.754,2.244 0,0.556 0.277,1.405 0.614,1.886 0.677,0.967 2.072,5.884 2.638,9.303 0.201,1.21 0.537,2.65 0.747,3.2 2.012,5.271 0.857,17.113 -2.222,22.774 -4.252,7.82 -15.986,11.594 -27.521,8.853 -1.79,-0.426 -4.155,-0.899 -5.255,-1.052 -1.1,-0.154 -2.45,-0.501 -3,-0.773 -0.55,-0.273 -1.72,-0.625 -2.6,-0.785 -0.88,-0.159 -2.355,-0.633 -3.278,-1.053 -0.923,-0.42 -1.991,-0.764 -2.374,-0.764 -0.382,0 -1.517,-0.38 -2.522,-0.844 -1.004,-0.464 -2.816,-1.293 -4.026,-1.841 -1.21,-0.549 -3.118,-1.429 -4.24,-1.957 -1.122,-0.527 -2.326,-0.958 -2.676,-0.958 -0.35,0 -0.743,-0.171 -0.872,-0.381 -0.129,-0.209 -2.435,-1.485 -5.124,-2.835 -2.688,-1.35 -5.714,-2.934 -6.723,-3.519 -1.01,-0.586 -2.437,-1.401 -3.171,-1.812 -0.735,-0.411 -2.172,-1.335 -3.194,-2.053 -1.022,-0.718 -2.385,-1.603 -3.029,-1.965 -0.644,-0.363 -1.642,-0.969 -2.217,-1.347 -0.575,-0.378 -1.849,-1.182 -2.83,-1.785 l -1.785,-1.098 -1.601,0.774 c -0.88,0.425 -1.833,1.054 -2.118,1.397 -0.285,0.343 -0.834,0.624 -1.22,0.624 -0.386,0 -0.949,0.298 -1.251,0.662 -0.302,0.364 -1.134,0.906 -1.849,1.205 -0.715,0.299 -1.3,0.707 -1.3,0.907 0,0.2 -0.63,0.572 -1.4,0.826 -0.77,0.254 -1.4,0.637 -1.4,0.851 0,0.215 -0.599,0.64 -1.332,0.946 -0.732,0.306 -1.555,0.826 -1.827,1.154 -0.273,0.329 -1.024,0.713 -1.669,0.855 -0.644,0.142 -1.172,0.404 -1.172,0.582 0,0.179 -0.675,0.623 -1.5,0.987 -0.825,0.364 -3.554,1.734 -6.065,3.044 -2.511,1.309 -4.782,2.381 -5.047,2.381 -0.264,0 -0.909,0.337 -1.434,0.748 -0.525,0.411 -1.527,0.873 -2.226,1.026 -0.7,0.152 -1.483,0.531 -1.741,0.841 -0.257,0.31 -1.124,0.687 -1.927,0.837 -0.803,0.15 -1.91,0.588 -2.46,0.973 -0.55,0.385 -1.64,0.809 -2.422,0.941 -0.783,0.133 -2.126,0.6 -2.985,1.038 -0.859,0.438 -1.951,0.796 -2.427,0.796 -0.475,0 -1.652,0.342 -2.615,0.761 -0.963,0.418 -2.737,0.89 -3.941,1.05 -1.205,0.159 -2.618,0.569 -3.141,0.912 -1.409,0.923 -15.387,0.876 -17.259,-0.058 -0.71,-0.354 -1.904,-0.759 -2.655,-0.9 -0.75,-0.141 -1.464,-0.418 -1.587,-0.616 -0.122,-0.198 -0.885,-0.701 -1.695,-1.118 -2.589,-1.332 -7.273,-6.487 -7.273,-8.005 0,-0.292 -0.405,-1.183 -0.9,-1.979 -1.369,-2.2 -1.362,-18.499 0.009,-22.349 0.49,-1.375 0.895,-2.905 0.9,-3.4 0.005,-0.494 0.345,-1.638 0.755,-2.542 0.411,-0.904 0.871,-2.379 1.023,-3.277 0.151,-0.898 0.513,-1.83 0.802,-2.07 0.29,-0.241 0.651,-1.096 0.802,-1.901 0.151,-0.805 0.613,-2.103 1.026,-2.886 0.414,-0.782 0.85,-1.904 0.968,-2.494 0.119,-0.59 0.447,-1.31 0.73,-1.6 0.283,-0.29 0.74,-1.293 1.015,-2.228 0.276,-0.935 0.661,-1.7 0.854,-1.7 0.194,0 0.469,-0.532 0.612,-1.181 0.143,-0.65 0.596,-1.609 1.007,-2.132 0.411,-0.522 0.873,-1.476 1.026,-2.119 0.153,-0.642 0.492,-1.438 0.752,-1.768 0.261,-0.33 1.089,-1.825 1.84,-3.323 0.751,-1.497 1.684,-3.01 2.073,-3.362 0.388,-0.351 0.706,-0.947 0.706,-1.323 0,-0.376 0.36,-1.142 0.8,-1.701 0.44,-0.56 0.8,-1.15 0.8,-1.313 0,-0.414 2.735,-4.491 3.21,-4.784 0.966,-0.597 0.389,-2.778 -1.11,-4.194 -0.825,-0.78 -2.67,-2.754 -4.1,-4.388 -1.43,-1.633 -3.455,-3.879 -4.5,-4.991 -1.044,-1.112 -2.455,-2.786 -3.134,-3.721 -0.679,-0.935 -1.355,-1.702 -1.501,-1.704 -0.146,-0.002 -1.255,-1.265 -2.465,-2.807 -1.21,-1.541 -3.342,-4.014 -4.738,-5.495 -1.395,-1.482 -2.815,-3.234 -3.154,-3.894 -0.739,-1.436 -3.94,-5.58 -6.592,-8.532 -1.054,-1.173 -1.916,-2.36 -1.916,-2.638 0,-0.278 -0.358,-0.83 -0.795,-1.226 -0.438,-0.396 -1.38,-1.639 -2.094,-2.762 -0.714,-1.123 -1.438,-2.222 -1.61,-2.442 -2.13,-2.74 -2.701,-3.584 -2.701,-3.993 0,-0.266 -0.355,-0.805 -0.79,-1.198 -0.434,-0.393 -0.91,-1.096 -1.057,-1.562 -0.147,-0.466 -0.872,-1.586 -1.61,-2.488 -0.739,-0.903 -1.343,-1.82 -1.343,-2.038 0,-0.218 -0.375,-0.736 -0.833,-1.151 -0.458,-0.415 -1.09,-1.297 -1.403,-1.962 -0.314,-0.664 -1.099,-2.108 -1.746,-3.208 -0.646,-1.1 -1.472,-2.54 -1.835,-3.2 -0.364,-0.66 -1.263,-2.28 -1.999,-3.6 -0.736,-1.32 -2.262,-4.29 -3.392,-6.6 -1.13,-2.31 -2.381,-4.83 -2.78,-5.6 -0.399,-0.77 -0.849,-1.985 -1,-2.7 C 72.06,86.585 71.785,86 71.599,86 71.414,86 71.05,85.325 70.791,84.5 70.532,83.675 69.978,82.268 69.56,81.374 69.142,80.479 68.799,79.489 68.799,79.174 68.798,78.858 68.44,78.015 68.004,77.3 67.568,76.584 67.003,75.144 66.748,74.1 66.493,73.055 66.107,71.853 65.89,71.429 65.674,71.005 65.352,69.655 65.176,68.429 65,67.203 64.565,65.21 64.21,64 63.695,62.243 63.593,60.35 63.7,54.6 63.97,40.2 67.458,35.106 79.6,31.376 c 3.734,-1.147 2.801,-1.135 11.8,-0.158 m 127.946,256.369 c 5.721,0.602 7.073,1.849 5.832,5.379 -0.428,1.218 -0.778,2.77 -0.778,3.45 0,2.747 -0.309,2.888 -5.735,2.623 -6.375,-0.312 -7.292,-10e-4 -8.742,2.961 -2.39,4.884 -1.884,5.277 6.653,5.167 7.684,-0.1 7.424,-0.284 7.424,5.247 0,6.076 0.108,5.986 -7.15,5.986 -3.052,0 -6.112,0.113 -6.8,0.25 l -1.25,0.25 v 15.15 c 0,18.38 0.692,16.642 -6.59,16.557 -7.377,-0.087 -6.609,2.765 -6.613,-24.551 -0.004,-24.311 0.095,-25.704 2.126,-30.056 0.98,-2.099 5.184,-6.313 6.66,-6.676 0.559,-0.138 1.456,-0.535 1.993,-0.883 1.725,-1.118 7.096,-1.472 12.97,-0.854 m -81.421,1.081 c 1.251,0.587 2.333,1.212 2.404,1.387 0.071,0.175 0.537,0.919 1.035,1.654 1.426,2.101 1.628,6.578 0.336,7.45 -0.197,0.132 -0.46,0.517 -0.584,0.855 -0.914,2.492 -7.882,4.001 -10.42,2.257 -3.32,-2.282 -3.296,-2.234 -3.296,-6.593 0,-4.284 0.496,-5.311 3.153,-6.525 0.466,-0.213 1.297,-0.647 1.847,-0.964 1.472,-0.849 2.973,-0.719 5.525,0.479 M 110.2,306.029 c 1.1,0.21 3.53,0.64 5.4,0.956 1.87,0.317 3.427,0.585 3.461,0.595 1.17,0.377 0.62,6.887 -0.779,9.22 -1.323,2.206 -1.708,2.286 -4.482,0.933 -3.24,-1.58 -9.729,-1.156 -10.546,0.689 -0.584,1.32 0.179,3.178 1.306,3.178 0.298,0 0.75,0.25 1.003,0.556 0.254,0.305 1.241,0.751 2.193,0.991 0.953,0.24 1.959,0.71 2.237,1.045 0.278,0.334 0.831,0.608 1.23,0.608 1.137,0 2.419,0.651 6.609,3.354 3.019,1.948 4.561,6.913 3.815,12.29 -0.359,2.591 -2.069,6.356 -2.888,6.356 -0.2,0 -0.743,0.435 -1.206,0.968 -0.462,0.532 -1.316,1.086 -1.897,1.231 -0.581,0.145 -1.339,0.518 -1.684,0.829 -3.042,2.74 -24.297,1.317 -25.456,-1.704 -0.251,-0.652 0.538,-5.582 1.008,-6.301 0.152,-0.233 0.456,-1.141 0.676,-2.019 0.396,-1.583 1.589,-2.392 2.161,-1.467 0.142,0.229 1.396,0.6 2.788,0.824 1.392,0.224 2.787,0.62 3.1,0.879 1.033,0.858 8.304,0.7 9.305,-0.202 1.782,-1.605 -0.18,-5.038 -2.879,-5.038 -0.532,0 -1.396,-0.333 -1.921,-0.739 -0.525,-0.406 -1.447,-0.859 -2.05,-1.007 -8.152,-1.99 -12.415,-8.563 -10.801,-16.654 0.329,-1.65 0.837,-3.27 1.13,-3.6 2.56,-2.887 3.348,-3.608 4.567,-4.176 0.77,-0.359 1.85,-0.903 2.4,-1.209 2.542,-1.413 8.504,-2.091 12.2,-1.386 m 139.486,0.127 c 0.943,0.305 2.604,0.667 3.691,0.803 1.088,0.136 2.348,0.582 2.8,0.991 0.453,0.41 1.274,0.851 1.824,0.98 1.834,0.431 6.994,5.999 7.42,8.008 0.147,0.694 0.531,1.561 0.853,1.926 0.322,0.366 0.718,1.626 0.881,2.8 0.162,1.175 0.509,2.529 0.77,3.01 0.66,1.214 0.586,5.93 -0.129,8.29 -0.328,1.08 -0.598,2.43 -0.6,3 -0.002,0.57 -0.446,1.936 -0.987,3.036 -0.541,1.1 -0.99,2.152 -0.996,2.337 -0.051,1.354 -6.352,7.463 -7.699,7.463 -0.307,0 -1.132,0.423 -1.834,0.941 -2.648,1.954 -16.094,2.022 -17.508,0.089 -0.252,-0.345 -1.038,-0.743 -1.747,-0.885 -0.709,-0.142 -1.498,-0.592 -1.753,-1.001 -0.255,-0.409 -0.659,-0.744 -0.896,-0.744 -0.237,0 -0.815,-0.405 -1.284,-0.9 -0.469,-0.495 -1.046,-1.08 -1.281,-1.3 -1.227,-1.145 -2.411,-2.703 -2.411,-3.172 0,-0.291 -0.269,-0.753 -0.597,-1.026 -0.329,-0.272 -0.784,-1.239 -1.012,-2.149 -0.228,-0.909 -0.723,-2.193 -1.101,-2.853 -0.991,-1.73 -1.007,-12.184 -0.023,-14.096 0.367,-0.713 0.793,-1.883 0.947,-2.6 0.302,-1.411 2.511,-5.104 3.053,-5.104 0.183,0 0.337,-0.225 0.342,-0.5 0.004,-0.275 0.655,-1.04 1.445,-1.7 0.789,-0.66 1.731,-1.493 2.091,-1.85 0.36,-0.358 1.105,-0.788 1.655,-0.955 0.55,-0.168 1.403,-0.62 1.895,-1.004 0.493,-0.384 1.709,-0.821 2.702,-0.97 0.994,-0.149 2.301,-0.528 2.905,-0.843 1.396,-0.729 4.375,-0.738 6.584,-0.022 m -70.307,0.768 c 4.134,0.473 5.844,0.836 6.6,1.401 l 1.021,0.762 v 21.615 c 0,19.105 -0.073,21.701 -0.631,22.356 -0.347,0.408 -0.836,1.463 -1.087,2.344 -0.722,2.538 -6.113,7.765 -8.035,7.791 -0.304,0.004 -1.204,0.412 -2,0.907 -1.949,1.212 -18.082,1.397 -20.343,0.233 -0.713,-0.367 -1.883,-0.792 -2.6,-0.945 -1.618,-0.344 -2.83,-1.347 -2.354,-1.949 0.191,-0.241 0.476,-1.786 0.632,-3.432 0.52,-5.464 2.061,-7.311 4.727,-5.663 1.597,0.987 8.647,1.568 13.158,1.085 3.13,-0.335 4.981,-2.055 5.209,-4.838 l 0.124,-1.515 -6.8,0.072 c -5.399,0.057 -7.006,-0.05 -7.8,-0.522 -1.072,-0.637 -1.567,-0.864 -3.32,-1.52 -1.491,-0.559 -4.949,-4.13 -5.28,-5.453 -0.144,-0.579 -0.5,-1.323 -0.791,-1.653 -1.26,-1.431 -2.676,-8.827 -2.259,-11.8 0.582,-4.152 1.599,-8.277 2.213,-8.98 0.298,-0.341 0.672,-1.045 0.83,-1.563 0.414,-1.357 5.591,-6.389 6.901,-6.709 0.608,-0.148 1.518,-0.589 2.022,-0.979 0.541,-0.419 2.013,-0.822 3.6,-0.987 1.476,-0.153 2.954,-0.438 3.284,-0.633 0.777,-0.458 5.96,-0.229 12.979,0.575 m 103.336,0.621 c 0.089,0.266 0.557,0.973 1.04,1.57 0.888,1.096 2.111,2.837 2.845,4.053 0.471,0.778 0.876,1.285 2.747,3.432 l 1.395,1.6 0.404,-1.061 c 0.223,-0.584 0.607,-1.186 0.854,-1.339 0.247,-0.153 0.619,-0.665 0.826,-1.139 0.208,-0.473 1.006,-1.671 1.774,-2.661 0.768,-0.99 1.557,-2.16 1.753,-2.6 0.906,-2.038 1.501,-2.2 8.182,-2.223 3.448,-0.012 6.449,0.089 6.667,0.225 0.701,0.433 0.435,2.15 -0.402,2.598 -0.44,0.235 -0.8,0.647 -0.8,0.914 -10e-4,0.267 -0.446,1.003 -0.989,1.635 -0.544,0.632 -1.095,1.487 -1.227,1.9 -0.131,0.413 -0.396,0.751 -0.589,0.751 -0.193,0 -0.586,0.425 -0.873,0.944 -1.136,2.056 -2.753,4.256 -3.127,4.256 -0.217,0 -0.395,0.206 -0.395,0.459 0,0.661 -2.772,4.741 -3.221,4.741 -0.209,0 -0.379,0.272 -0.379,0.604 0,0.332 -0.34,0.895 -0.756,1.251 -0.801,0.686 -0.286,2.154 1.489,4.248 0.328,0.386 0.792,1.036 1.031,1.443 0.24,0.407 0.976,1.514 1.636,2.461 0.66,0.946 1.47,2.113 1.8,2.593 0.33,0.48 1.14,1.647 1.8,2.593 0.66,0.947 1.412,2.086 1.671,2.532 0.258,0.446 0.753,0.969 1.1,1.163 0.346,0.193 0.629,0.585 0.629,0.87 0,0.285 0.36,0.844 0.8,1.242 0.984,0.89 1.093,3.202 0.167,3.557 -3.978,1.527 -13.163,-0.133 -14.168,-2.561 -0.273,-0.658 -0.625,-1.196 -0.783,-1.196 -0.158,0 -0.513,-0.495 -0.788,-1.1 -0.276,-0.605 -0.759,-1.37 -1.074,-1.7 -1.079,-1.131 -2.954,-3.71 -2.954,-4.064 0,-0.728 -1.938,0.948 -2.408,2.083 -0.269,0.65 -0.617,1.181 -0.773,1.181 -0.156,0 -0.889,0.945 -1.627,2.1 -0.739,1.155 -1.961,2.865 -2.716,3.8 l -1.372,1.7 h -5.876 c -7.191,0 -7.643,-0.19 -6.429,-2.703 0.451,-0.933 0.995,-1.697 1.21,-1.697 0.215,0 0.391,-0.184 0.391,-0.41 0,-0.468 2.408,-4.056 3.364,-5.011 0.35,-0.35 0.636,-0.822 0.636,-1.05 0,-0.371 1.044,-1.852 2.495,-3.539 0.289,-0.336 1.061,-1.483 1.715,-2.549 0.655,-1.067 1.595,-2.343 2.09,-2.836 1.176,-1.171 1.14,-2.601 -0.1,-4.043 -0.549,-0.639 -0.999,-1.378 -1,-1.642 0,-0.264 -0.244,-0.624 -0.542,-0.8 -0.297,-0.176 -0.774,-0.77 -1.058,-1.32 -0.284,-0.55 -1.186,-1.81 -2.005,-2.8 -0.818,-0.99 -1.614,-2.205 -1.768,-2.7 -0.155,-0.495 -0.431,-0.9 -0.614,-0.9 -0.184,0 -0.708,-0.585 -1.164,-1.3 -0.457,-0.715 -1.06,-1.659 -1.34,-2.098 -0.28,-0.439 -1.217,-1.674 -2.082,-2.743 -1.494,-1.846 -1.534,-1.968 -0.8,-2.402 1.591,-0.94 13.389,-1.209 13.688,-0.312 m -141.611,20.943 0.103,21.089 -1.025,0.671 c -1.286,0.843 -10.793,0.512 -11.713,-0.407 -0.707,-0.708 -0.704,-41.276 0.004,-42.128 0.34,-0.411 1.834,-0.508 6.484,-0.423 l 6.043,0.11 0.104,21.088 M 167.4,317.127 c -1.183,0.436 -3.395,1.832 -3.397,2.144 -0.002,0.15 -0.318,0.586 -0.703,0.969 -3.528,3.515 -2.23,14.038 1.9,15.396 0.77,0.253 1.571,0.619 1.78,0.812 0.592,0.548 2.218,0.395 4.62,-0.433 l 2.2,-0.759 0.098,-8.528 c 0.054,-4.69 -0.058,-8.772 -0.249,-9.07 -0.394,-0.614 -4.969,-1.003 -6.249,-0.531 m 76.2,1.191 c -1.737,1.097 -3.2,2.607 -3.2,3.303 0,0.369 -0.36,1.129 -0.8,1.688 -2.127,2.704 -0.664,11.331 2.5,14.745 2.317,2.5 8.159,1.863 10.261,-1.119 2.38,-3.377 2.638,-12.646 0.438,-15.736 -0.439,-0.617 -0.799,-1.311 -0.799,-1.542 0,-1.522 -6.476,-2.554 -8.4,-1.339"
       inkscape:connector-curvature="0"
       style="fill:#fbfbfb;fill-rule:evenodd;stroke:none" />
    <path
       id="path3"
       d="m 316.307,32.29 c 0.719,0.089 1.799,0.087 2.4,-0.004 0.601,-0.091 0.013,-0.164 -1.307,-0.162 -1.32,0.002 -1.812,0.077 -1.093,0.166 M 321.2,33 c 0.55,0.314 1.18,0.572 1.4,0.572 0.22,0 -0.05,-0.258 -0.6,-0.572 -0.55,-0.314 -1.18,-0.572 -1.4,-0.572 -0.22,0 0.05,0.258 0.6,0.572 m -21.2,0.43 -2.2,0.54 2,-0.223 c 1.1,-0.123 2.27,-0.38 2.6,-0.573 0.782,-0.456 0.28,-0.402 -2.4,0.256 m -5.4,1.392 c -0.88,0.416 -1.33,0.754 -1,0.751 0.33,-0.004 1.23,-0.351 2,-0.773 1.796,-0.983 1.092,-0.968 -1,0.022 m 31,0.178 c 0.745,0.55 1.526,1 1.734,1 0.207,0 -0.285,-0.45 -1.096,-1 -0.81,-0.55 -1.591,-1 -1.733,-1 -0.143,0 0.35,0.45 1.095,1 m -49.4,7.027 c -0.66,0.423 -1.02,0.769 -0.8,0.768 0.22,0 0.94,-0.358 1.6,-0.795 0.66,-0.437 1.02,-0.783 0.8,-0.768 -0.22,0.015 -0.94,0.372 -1.6,0.795 m -3.056,1.56 c -1.242,1.035 -0.568,1.047 0.747,0.013 0.559,-0.44 0.833,-0.8 0.607,-0.8 -0.225,0 -0.834,0.354 -1.354,0.787 M 268.6,45.903 C 267.21,46.62 265.356,48 265.783,48 c 0.16,0 0.748,-0.36 1.308,-0.8 0.559,-0.44 1.241,-0.8 1.514,-0.8 0.273,0 0.721,-0.27 0.995,-0.6 0.585,-0.704 0.563,-0.702 -1,0.103 M 334.47,49 c -0.013,0.44 0.125,1.52 0.307,2.4 0.278,1.345 0.331,1.409 0.33,0.4 -0.002,-1.401 -0.599,-4.03 -0.637,-2.8 m -73.97,1.446 c -1.805,1.156 -1.637,1.422 0.2,0.317 1.86,-1.118 1.918,-1.165 1.467,-1.156 -0.202,0.003 -0.952,0.381 -1.667,0.839 m 74.793,4.754 c 0,0.77 0.082,1.085 0.183,0.7 0.1,-0.385 0.1,-1.015 0,-1.4 -0.101,-0.385 -0.183,-0.07 -0.183,0.7 m -0.8,4.4 c 0,0.77 0.082,1.085 0.183,0.7 0.1,-0.385 0.1,-1.015 0,-1.4 -0.101,-0.385 -0.183,-0.07 -0.183,0.7 m -96.85,5.833 c -1.231,0.874 -4.479,3.411 -5.423,4.235 -0.209,0.183 -0.277,0.332 -0.151,0.332 0.203,0 3.58,-2.541 6.331,-4.763 1.366,-1.104 0.903,-0.984 -0.757,0.196 m 95.203,2.606 c -0.245,0.704 -0.434,1.659 -0.419,2.121 0.015,0.462 0.269,-0.06 0.565,-1.16 0.612,-2.279 0.522,-2.876 -0.146,-0.961 M 228.4,72.46 c -0.77,0.675 -1.038,1.045 -0.596,0.821 0.731,-0.37 2.543,-2.103 2.158,-2.065 -0.089,0.009 -0.792,0.569 -1.562,1.244 m -57.23,1.287 c 1.082,1.176 1.296,1.291 1.01,0.544 -0.108,-0.279 -0.597,-0.753 -1.088,-1.052 -0.851,-0.519 -0.847,-0.495 0.078,0.508 m 160.046,-0.366 c -0.265,0.319 -0.422,0.878 -0.349,1.241 0.089,0.441 0.288,0.248 0.598,-0.581 0.517,-1.379 0.464,-1.52 -0.249,-0.66 M 173.6,75.558 c 0,0.402 2.565,2.842 2.988,2.842 0.192,0 0.643,0.225 1.003,0.5 0.865,0.662 -1.132,-1.213 -2.731,-2.564 -0.693,-0.585 -1.26,-0.935 -1.26,-0.778 m 7.47,6.384 c 1.139,1.132 2.309,2.052 2.6,2.045 0.482,-0.011 -0.241,-0.752 -2.329,-2.387 -2.082,-1.63 -2.158,-1.535 -0.271,0.342 m 146.359,2.001 c -0.346,0.669 -0.629,1.444 -0.629,1.722 0,0.277 0.357,-0.197 0.794,-1.053 0.437,-0.857 0.72,-1.631 0.629,-1.722 -0.09,-0.09 -0.447,0.383 -0.794,1.053 M 184.4,84.767 c 0,0.405 1.556,1.415 1.795,1.165 0.07,-0.072 -0.306,-0.455 -0.834,-0.851 -0.529,-0.395 -0.961,-0.536 -0.961,-0.314 m 25.789,2.664 -1.989,1.83 2.1,-1.693 c 1.884,-1.519 2.338,-1.968 1.989,-1.968 -0.061,0 -1.006,0.824 -2.1,1.831 m -23.389,-1.1 c 0,0.894 1.202,2.869 1.746,2.869 0.49,0 4.601,3.794 5.781,5.336 0.608,0.794 0.448,2.11 -0.24,1.968 -0.307,-0.064 -0.389,0.287 -0.24,1.033 0.193,0.963 -0.034,1.362 -1.538,2.697 -0.97,0.861 -2.109,2.196 -2.532,2.966 -0.422,0.77 -1.007,1.697 -1.299,2.06 -0.904,1.126 0.211,1.273 1.183,0.156 0.486,-0.559 1.078,-1.016 1.315,-1.016 0.736,0 5.618,-5.098 5.621,-5.87 0.005,-1.296 2.117,-1.208 2.618,0.108 0.28,0.738 0.409,21.958 0.399,65.527 l -0.016,64.435 -1.299,1.117 -1.299,1.117 1.4,-0.815 c 1.875,-1.093 4.243,-0.456 6,1.614 0.11,0.13 1.398,0.901 2.862,1.715 1.464,0.813 2.881,1.742 3.149,2.065 0.268,0.323 0.721,0.587 1.007,0.587 0.286,0 1.031,0.405 1.654,0.9 1.437,1.14 2.307,1.687 4.428,2.782 0.935,0.482 1.7,1.022 1.7,1.198 0,0.176 0.204,0.32 0.453,0.32 0.397,0 2.187,0.875 9.547,4.669 0.99,0.51 2.001,0.928 2.246,0.929 0.245,0.001 0.882,0.345 1.414,0.763 0.533,0.419 1.719,0.964 2.637,1.211 0.918,0.247 1.762,0.6 1.876,0.784 0.113,0.184 1.018,0.561 2.009,0.839 0.992,0.278 2.008,0.752 2.259,1.055 0.251,0.302 1.008,0.55 1.682,0.55 0.673,0 1.956,0.348 2.851,0.773 1.983,0.943 5.424,1.924 9.426,2.686 1.65,0.314 4.26,0.837 5.8,1.161 4.91,1.035 13.883,0.092 16.6,-1.744 0.55,-0.372 1.207,-0.766 1.461,-0.876 8.094,-3.512 11.837,-19.727 7.525,-32.6 -0.294,-0.88 -0.804,-2.77 -1.132,-4.2 -0.328,-1.43 -0.879,-3.14 -1.223,-3.8 -0.344,-0.66 -0.633,-1.56 -0.641,-2 -0.009,-0.44 -0.283,-1.154 -0.611,-1.588 -0.327,-0.433 -0.781,-1.477 -1.008,-2.32 -0.82,-3.043 -9.794,-21.311 -11.335,-23.073 -0.298,-0.341 -0.672,-1.046 -0.831,-1.567 -0.159,-0.522 -0.79,-1.692 -1.402,-2.6 -4.148,-6.16 -4.288,-6.497 -3.193,-7.663 l 0.833,-0.886 -0.974,0.186 c -0.726,0.139 -1.165,-0.086 -1.722,-0.882 -0.411,-0.588 -1.242,-1.601 -1.847,-2.251 -0.605,-0.651 -1.1,-1.442 -1.1,-1.759 0,-0.502 -3.543,-5.438 -6.264,-8.728 -0.515,-0.622 -0.936,-1.468 -0.936,-1.88 0,-0.412 -0.247,-0.893 -0.549,-1.069 -0.762,-0.444 -5.818,-6.715 -7.262,-9.008 -0.654,-1.038 -1.504,-1.995 -1.889,-2.127 -0.385,-0.131 -0.7,-0.407 -0.7,-0.612 0,-0.205 -0.275,-0.688 -0.612,-1.073 -0.337,-0.385 -2.071,-2.5 -3.855,-4.7 -1.783,-2.2 -3.372,-4.09 -3.531,-4.2 -0.158,-0.11 -1.256,-1.37 -2.439,-2.8 -1.184,-1.43 -3.254,-3.77 -4.601,-5.2 -1.348,-1.43 -2.995,-3.23 -3.661,-4 -1.871,-2.161 -19.22,-19.511 -22.121,-22.122 -2.194,-1.974 -2.49,-2.394 -1.98,-2.806 0.33,-0.267 0.957,-0.932 1.394,-1.479 0.724,-0.906 0.687,-0.896 -0.422,0.107 -1.988,1.799 -2.886,1.51 -6.64,-2.136 -1.833,-1.78 -4.089,-3.763 -5.014,-4.407 -0.925,-0.644 -1.96,-1.568 -2.3,-2.053 -0.34,-0.485 -0.618,-0.653 -0.618,-0.373 m 18.378,5.569 -1.378,1.5 1.5,-1.378 c 1.396,-1.284 1.684,-1.622 1.378,-1.622 -0.066,0 -0.741,0.675 -1.5,1.5 m 115.479,6.6 -0.715,1.3 0.829,-0.944 c 0.716,-0.816 1.079,-1.656 0.715,-1.656 -0.062,0 -0.435,0.585 -0.829,1.3 m -2.102,3.712 c -0.365,0.557 -0.591,1.086 -0.502,1.175 0.089,0.089 0.465,-0.367 0.836,-1.013 0.825,-1.438 0.58,-1.557 -0.334,-0.162 M 206.3,106.666 c 1.306,2.017 0.202,4.986 -1.47,3.953 -0.649,-0.402 -2.011,-3.403 -1.82,-4.012 0.104,-0.334 0.266,-0.855 0.358,-1.158 0.292,-0.953 1.98,-0.253 2.932,1.217 m 110.255,-0.854 c -0.365,0.557 -0.591,1.086 -0.502,1.175 0.089,0.089 0.465,-0.367 0.836,-1.013 0.825,-1.438 0.58,-1.557 -0.334,-0.162 M 184.3,108.428 c -0.96,0.507 -1.5,1.075 -1.5,1.582 0,0.434 -0.18,0.79 -0.4,0.79 -0.22,0 -0.4,0.18 -0.4,0.4 0,1.517 4.195,-0.882 4.474,-2.559 0.177,-1.067 -0.438,-1.128 -2.174,-0.213 m 28.5,4.548 c 0,0.317 -0.161,0.676 -0.358,0.798 -0.412,0.255 -0.908,-0.774 -0.548,-1.135 0.429,-0.429 0.906,-0.252 0.906,0.337 m -32.997,1.156 c -0.306,0.732 -0.835,1.563 -1.175,1.845 -0.341,0.283 -0.504,0.7 -0.363,0.929 0.145,0.234 1.011,-0.418 1.987,-1.497 0.952,-1.052 1.634,-2.069 1.516,-2.261 -0.471,-0.762 -1.438,-0.277 -1.965,0.984 m -3.548,4.468 c -0.126,0.33 -0.493,0.6 -0.815,0.6 -0.323,0 -0.702,0.366 -0.844,0.813 -0.33,1.039 -2.068,2.787 -2.771,2.787 -0.61,0 -1.025,0.857 -1.025,2.117 0,0.661 0.605,0.189 2.7,-2.106 3.851,-4.219 4.29,-4.811 3.572,-4.811 -0.323,0 -0.69,0.27 -0.817,0.6 m 132.068,0.5 c -0.763,0.889 -1.228,1.7 -0.974,1.7 0.108,0 0.581,-0.54 1.051,-1.2 0.932,-1.309 0.884,-1.619 -0.077,-0.5 m -11.647,16.603 c -1.79,2.323 -1.81,2.371 -0.279,0.697 1.469,-1.606 2.628,-3.206 2.317,-3.197 -0.063,0.002 -0.98,1.127 -2.038,2.5 m -19.295,23.597 -1.581,1.7 1.7,-1.581 c 1.581,-1.471 1.884,-1.819 1.581,-1.819 -0.065,0 -0.83,0.765 -1.7,1.7 m -4.181,4.5 c -0.972,0.99 -1.677,1.8 -1.567,1.8 0.11,0 0.995,-0.81 1.967,-1.8 0.972,-0.99 1.677,-1.8 1.567,-1.8 -0.11,0 -0.995,0.81 -1.967,1.8 m -138.8,8.553 c 0,0.66 -0.18,1.311 -0.4,1.447 -0.22,0.136 -0.4,0.457 -0.4,0.713 0,0.661 1.031,-0.935 1.3,-2.013 0.124,-0.494 0.062,-1 -0.138,-1.123 -0.199,-0.123 -0.362,0.316 -0.362,0.976 m -1.604,3.744 c -1.17,1.759 -1.26,2.085 -0.25,0.903 0.891,-1.043 1.291,-1.8 0.95,-1.8 -0.057,0 -0.372,0.404 -0.7,0.897 m -2.096,3.317 c -0.999,1.336 -0.869,1.709 0.146,0.419 0.465,-0.591 0.78,-1.138 0.7,-1.215 -0.08,-0.077 -0.461,0.282 -0.846,0.796 m -12.421,23.76 c -0.373,0.632 -0.678,1.302 -0.678,1.488 0.001,0.186 0.371,-0.267 0.822,-1.007 0.451,-0.74 0.756,-1.409 0.678,-1.488 -0.079,-0.078 -0.449,0.375 -0.822,1.007 m -1.351,3.526 c -0.414,1.328 -0.403,1.411 0.102,0.724 0.478,-0.651 0.809,-2.224 0.468,-2.224 -0.056,0 -0.313,0.675 -0.57,1.5 m -4.063,11.517 c -0.67,1.471 -0.542,1.785 0.182,0.448 0.339,-0.625 0.541,-1.211 0.449,-1.302 -0.091,-0.092 -0.375,0.293 -0.631,0.854 m -1.843,8.005 c -0.15,0.803 -0.194,1.54 -0.096,1.638 0.098,0.097 0.301,-0.479 0.452,-1.282 0.15,-0.803 0.194,-1.54 0.096,-1.638 -0.098,-0.097 -0.301,0.479 -0.452,1.282 m 97.132,1.592 c 2.505,0.376 2.623,0.813 0.496,1.847 -1.703,0.827 -1.841,0.837 -2.82,0.195 -1.364,-0.893 -1.365,-3.024 -0.002,-2.501 0.258,0.1 1.305,0.306 2.326,0.459 m -97.661,1.786 c 0,0.77 0.082,1.085 0.183,0.7 0.1,-0.385 0.1,-1.015 0,-1.4 -0.101,-0.385 -0.183,-0.07 -0.183,0.7 m 81.851,4.023 c -0.894,0.779 -0.898,0.8 -0.066,0.397 0.482,-0.233 0.988,-0.603 1.123,-0.822 0.394,-0.636 -0.038,-0.463 -1.057,0.425 m -5.241,3.277 c -0.518,0.495 -0.663,0.7 -0.323,0.456 0.341,-0.244 0.98,-0.644 1.42,-0.888 0.44,-0.244 0.585,-0.449 0.322,-0.456 -0.262,-0.007 -0.901,0.393 -1.419,0.888 m -6.703,3.7 c -0.745,0.55 -1.175,1 -0.955,1 0.22,0 1.01,-0.45 1.755,-1 0.745,-0.55 1.175,-1 0.955,-1 -0.22,0 -1.01,0.45 -1.755,1 m -69.568,1.254 c -0.017,0.25 0.231,1.06 0.552,1.8 0.322,0.74 0.584,1.076 0.582,0.746 -0.003,-0.739 -1.088,-3.177 -1.134,-2.546 M 173.4,244.4 c -1.564,1.036 -1.008,1.037 0.69,0.001 0.721,-0.439 1.13,-0.797 0.91,-0.797 -0.22,10e-4 -0.94,0.359 -1.6,0.796 m -2.944,1.613 c -1.24,1.033 -0.681,1.022 0.635,-0.013 0.559,-0.44 0.858,-0.794 0.663,-0.787 -0.195,0.008 -0.779,0.368 -1.298,0.8 m -56.615,2.828 c 0.514,0.917 2.243,2.857 3.169,3.554 0.607,0.458 -1.141,-1.633 -3.342,-3.995 -0.102,-0.11 -0.024,0.088 0.173,0.441 m 39.535,4.181 c -0.764,0.612 -0.763,0.616 0.024,0.254 0.44,-0.202 1.07,-0.468 1.4,-0.59 0.518,-0.193 0.515,-0.227 -0.024,-0.254 -0.342,-0.018 -0.972,0.248 -1.4,0.59 m -6.576,2.009 -1,0.602 1,-0.265 c 1.452,-0.384 2.403,-0.944 1.6,-0.942 -0.33,0.001 -1.05,0.273 -1.6,0.605 m 64.3,33.258 c 0.715,0.089 1.885,0.089 2.6,0 0.715,-0.088 0.13,-0.161 -1.3,-0.161 -1.43,0 -2.015,0.073 -1.3,0.161 m -2.804,0.348 c -0.13,0.13 -0.925,0.498 -1.766,0.818 -1.514,0.576 -1.516,0.579 -0.205,0.368 1.262,-0.203 3.517,-1.423 2.631,-1.423 -0.233,0 -0.529,0.107 -0.66,0.237 m 12.68,0.361 c 0.428,0.331 1.08,0.602 1.451,0.602 0.847,0 1.443,0.71 1.68,2 0.163,0.887 0.19,0.86 0.239,-0.232 0.057,-1.291 -0.405,-1.693 -2.946,-2.562 -1.113,-0.381 -1.143,-0.367 -0.424,0.192 m -87.924,0.152 c -0.451,0.177 0.128,0.285 1.46,0.272 1.215,-0.012 2.002,-0.154 1.748,-0.316 -0.575,-0.367 -2.219,-0.344 -3.208,0.044 m 7.348,3.497 c 0,0.22 0.264,0.749 0.587,1.177 0.323,0.427 0.588,0.596 0.588,0.376 0,-0.22 -0.265,-0.749 -0.588,-1.176 -0.323,-0.428 -0.587,-0.597 -0.587,-0.377 m 0.715,4.363 c -0.123,0.435 -0.346,1.15 -0.495,1.59 -0.149,0.44 0.022,0.294 0.38,-0.324 0.358,-0.618 0.581,-1.334 0.495,-1.59 -0.085,-0.256 -0.256,-0.11 -0.38,0.324 m 71.885,0.857 -0.8,0.641 0.8,-0.351 c 0.44,-0.193 1.908,-0.352 3.262,-0.354 1.354,-10e-4 2.379,-0.138 2.277,-0.303 -0.362,-0.584 -4.711,-0.297 -5.539,0.367 m -4.377,3.422 c -0.343,0.489 -0.608,1.254 -0.589,1.7 0.026,0.606 0.12,0.527 0.373,-0.315 0.185,-0.619 0.552,-1.384 0.814,-1.7 0.262,-0.316 0.375,-0.574 0.251,-0.574 -0.125,0 -0.507,0.4 -0.849,0.889 m -74.918,0.998 c 0.609,0.092 1.509,0.09 2,-0.005 0.492,-0.095 -0.005,-0.171 -1.105,-0.168 -1.1,0.003 -1.503,0.081 -0.895,0.173 m 63.188,23.124 c -0.112,26.856 -0.741,24.189 5.706,24.189 2.505,0 4.638,-0.135 4.74,-0.3 0.103,-0.165 -1.891,-0.244 -4.431,-0.175 -3.016,0.082 -4.772,-0.029 -5.063,-0.32 -0.311,-0.311 -0.507,-7.259 -0.652,-23.125 l -0.206,-22.68 -0.094,22.411 m -94.788,-17.924 c 0.609,0.092 1.509,0.09 2,-0.005 0.492,-0.095 -0.005,-0.171 -1.105,-0.168 -1.1,0.003 -1.503,0.081 -0.895,0.173 m 7.6,0 c 0.609,0.092 1.509,0.09 2,-0.005 0.492,-0.095 -0.005,-0.171 -1.105,-0.168 -1.1,0.003 -1.503,0.081 -0.895,0.173 m 58.41,0.009 c 1.273,0.08 3.253,0.079 4.4,-0.002 1.147,-0.08 0.105,-0.145 -2.315,-0.144 -2.42,10e-4 -3.358,0.066 -2.085,0.146 m 74.785,-0.02 c 0.385,0.1 1.015,0.1 1.4,0 0.385,-0.101 0.07,-0.183 -0.7,-0.183 -0.77,0 -1.085,0.082 -0.7,0.183 m 5.805,0.007 c 0.497,0.096 1.217,0.092 1.6,-0.008 0.382,-0.1 -0.025,-0.179 -0.905,-0.174 -0.88,0.004 -1.193,0.086 -0.695,0.182 M 135.9,307.889 c 0.715,0.089 1.885,0.089 2.6,0 0.715,-0.088 0.13,-0.161 -1.3,-0.161 -1.43,0 -2.015,0.073 -1.3,0.161 m 82.407,10e-4 c 0.719,0.089 1.799,0.087 2.4,-0.004 0.601,-0.091 0.013,-0.164 -1.307,-0.162 -1.32,0.002 -1.812,0.077 -1.093,0.166 m 55.01,0.007 c 1.494,0.077 3.834,0.077 5.2,-10e-4 1.365,-0.078 0.143,-0.141 -2.717,-0.141 -2.86,10e-4 -3.978,0.065 -2.483,0.142 m 30.383,-0.006 c 0.825,0.087 2.175,0.087 3,0 0.825,-0.086 0.15,-0.157 -1.5,-0.157 -1.65,0 -2.325,0.071 -1.5,0.157 m -122.1,0.479 c 0.33,0.196 1.32,0.467 2.2,0.601 1.063,0.162 1.331,0.127 0.8,-0.103 -1.176,-0.51 -3.735,-0.934 -3,-0.498 m 40.6,3.83 c 0,2.268 0.135,4.04 0.3,3.938 0.165,-0.102 0.3,-1.874 0.3,-3.938 0,-2.064 -0.135,-3.836 -0.3,-3.938 -0.165,-0.102 -0.3,1.67 -0.3,3.938 m 15.6,-3.373 c -0.66,0.423 -0.995,0.77 -0.744,0.771 0.25,10e-4 0.88,-0.352 1.4,-0.785 1.189,-0.99 0.903,-0.984 -0.656,0.014 M 129.385,328 c 0,10.45 0.051,14.725 0.115,9.5 0.063,-5.225 0.063,-13.775 0,-19 -0.064,-5.225 -0.115,-0.95 -0.115,9.5 m 130.701,-16.199 c 1.037,1.078 1.947,1.879 2.021,1.78 0.074,-0.1 -0.774,-0.982 -1.886,-1.961 l -2.021,-1.78 1.886,1.961 M 272,311.864 c 0,0.218 0.495,0.833 1.1,1.366 l 1.1,0.97 -1,-1.2 c -0.55,-0.66 -1.045,-1.275 -1.1,-1.367 -0.055,-0.091 -0.1,0.012 -0.1,0.231 m -180.307,1.742 c -1.247,2.167 -1.115,2.578 0.15,0.466 0.569,-0.95 0.97,-1.793 0.89,-1.873 -0.081,-0.08 -0.548,0.553 -1.04,1.407 m 94.888,12.994 c 0,8.14 0.053,11.413 0.119,7.274 0.065,-4.14 0.065,-10.8 -10e-4,-14.8 -0.065,-4.001 -0.118,-0.614 -0.118,7.526 m 107.453,-12.047 -0.965,1.247 1.144,-1.088 c 0.63,-0.598 1.064,-1.159 0.966,-1.247 -0.099,-0.088 -0.614,0.402 -1.145,1.088 m -19.39,0.627 c 0.244,0.341 0.644,0.98 0.888,1.42 0.244,0.44 0.449,0.585 0.456,0.322 0.007,-0.262 -0.393,-0.901 -0.888,-1.419 -0.495,-0.518 -0.7,-0.663 -0.456,-0.323 M 106.1,316.291 c 0.825,0.087 2.175,0.087 3,0 0.825,-0.086 0.15,-0.157 -1.5,-0.157 -1.65,0 -2.325,0.071 -1.5,0.157 m 63.4,-0.002 c 0.715,0.089 1.885,0.089 2.6,0 0.715,-0.088 0.13,-0.161 -1.3,-0.161 -1.43,0 -2.015,0.073 -1.3,0.161 m -67.284,1.207 c -0.559,0.603 -0.995,1.458 -0.97,1.9 0.047,0.801 0.048,0.801 0.239,0.004 0.106,-0.44 0.659,-1.295 1.229,-1.9 0.569,-0.605 0.919,-1.1 0.777,-1.1 -0.142,0 -0.716,0.493 -1.275,1.096 M 114.8,317 c 1.826,0.703 2.545,0.693 1,-0.014 -0.66,-0.303 -1.47,-0.544 -1.8,-0.538 -0.33,0.007 0.03,0.255 0.8,0.552 m 49.06,1.1 c -1.142,1.147 -1.232,1.294 -0.277,0.452 0.779,-0.686 1.777,-1.446 2.217,-1.688 0.44,-0.242 0.565,-0.445 0.277,-0.452 -0.288,-0.007 -1.286,0.753 -2.217,1.688 m 10.392,-1.24 c 0.191,0.297 0.554,1.17 0.806,1.94 l 0.458,1.4 0.042,-1.486 c 0.032,-1.131 -0.161,-1.594 -0.806,-1.94 -0.689,-0.369 -0.783,-0.352 -0.5,0.086 m 54.405,0.84 -0.715,1.3 0.829,-0.944 c 0.716,-0.816 1.079,-1.656 0.715,-1.656 -0.062,0 -0.435,0.585 -0.829,1.3 m 18.133,-1.001 c 2.069,0.097 3.239,0.349 3.8,0.82 0.805,0.677 0.806,0.676 0.048,-0.219 -0.68,-0.803 -1.089,-0.891 -3.8,-0.821 l -3.038,0.08 2.99,0.14 m 41.053,0.269 c 0.527,1.373 2.831,2.669 3.417,1.922 0.477,-0.609 0.465,-0.631 -0.1,-0.191 -0.538,0.42 -0.87,0.275 -2.091,-0.911 -0.799,-0.776 -1.351,-1.145 -1.226,-0.82 m -79.425,0.599 c -0.599,1.119 -0.515,1.519 0.133,0.633 0.483,-0.661 1.225,-0.77 6.085,-0.895 7.295,-0.188 7.305,-0.435 0.018,-0.481 -5.381,-0.034 -5.85,0.022 -6.236,0.743 M 90.528,319.6 c 0,1.43 0.073,2.015 0.161,1.3 0.089,-0.715 0.089,-1.885 0,-2.6 -0.088,-0.715 -0.161,-0.13 -0.161,1.3 M 241.4,318.306 c -0.22,0.162 -0.665,0.654 -0.988,1.094 -0.434,0.591 -0.303,0.546 0.5,-0.17 0.979,-0.872 1.277,-1.242 0.988,-1.224 -0.055,0.003 -0.28,0.138 -0.5,0.3 m 10.632,0.294 c 1.049,1.528 2.368,3.059 2.353,2.731 -0.008,-0.182 -0.665,-1.051 -1.458,-1.931 -0.794,-0.88 -1.197,-1.24 -0.895,-0.8 m 24.768,-0.374 c 0,0.455 2.358,3.326 2.384,2.903 0.009,-0.15 -0.216,-0.51 -0.5,-0.8 -0.284,-0.291 -0.824,-0.974 -1.2,-1.518 -0.376,-0.544 -0.684,-0.807 -0.684,-0.585 m -101.664,5.464 c -0.075,1.369 -0.028,3.574 0.103,4.9 0.184,1.853 0.253,1.278 0.3,-2.49 0.064,-5.178 -0.175,-6.608 -0.403,-2.41 m -84.33,0.063 c -0.007,0.416 1.579,3.047 1.837,3.047 0.098,0 -0.09,-0.495 -0.418,-1.1 -0.869,-1.604 -1.412,-2.35 -1.419,-1.947 m 147.287,1.047 c 0,0.77 0.082,1.085 0.183,0.7 0.1,-0.385 0.1,-1.015 0,-1.4 -0.101,-0.385 -0.183,-0.07 -0.183,0.7 m -89.149,2.8 c 0,2.09 0.068,2.945 0.15,1.9 0.082,-1.045 0.082,-2.755 0,-3.8 -0.082,-1.045 -0.15,-0.19 -0.15,1.9 m 133.46,-1.195 c 1.428,1.802 1.298,3.114 -0.512,5.178 L 281,332.6 l 1.088,-0.959 c 1.968,-1.733 2.19,-3.375 0.71,-5.243 -0.696,-0.879 -1.355,-1.598 -1.465,-1.598 -0.11,0 0.372,0.722 1.071,1.605 m -26.727,2.069 c -0.042,1.691 -0.256,3.546 -0.476,4.123 -0.245,0.646 -0.251,0.958 -0.015,0.812 0.589,-0.364 0.877,-2.539 0.715,-5.409 l -0.147,-2.6 -0.077,3.074 m 11.247,-0.274 c 0.002,1.32 0.077,1.812 0.166,1.093 0.089,-0.719 0.087,-1.799 -0.004,-2.4 -0.091,-0.601 -0.164,-0.013 -0.162,1.307 m -40.81,0.4 c 0.003,1.1 0.081,1.503 0.173,0.895 0.092,-0.609 0.09,-1.509 -0.005,-2 -0.095,-0.492 -0.171,0.005 -0.168,1.105 m 70.74,0.342 c -0.029,0.408 0.396,1.277 0.946,1.931 0.55,0.654 1,1.022 1,0.82 0,-0.203 -0.35,-0.686 -0.778,-1.073 -0.427,-0.387 -0.853,-1.09 -0.945,-1.562 -0.136,-0.692 -0.179,-0.715 -0.223,-0.116 m -136.79,0.925 c -0.076,1.499 0.262,2.533 0.828,2.533 0.269,0 0.266,-0.169 -0.01,-0.502 -0.229,-0.275 -0.493,-1.13 -0.585,-1.9 l -0.169,-1.398 -0.064,1.267 M 238.12,332 c 0,1.21 0.075,1.705 0.167,1.1 0.091,-0.605 0.091,-1.595 0,-2.2 -0.092,-0.605 -0.167,-0.11 -0.167,1.1 m -62.92,1.146 c 0,0.937 -0.331,2.001 -0.839,2.7 l -0.839,1.154 1.039,-1.122 c 0.926,-1 1.569,-4.278 0.839,-4.278 -0.11,0 -0.2,0.696 -0.2,1.546 M 266.493,334 c 0,0.77 0.082,1.085 0.183,0.7 0.1,-0.385 0.1,-1.015 0,-1.4 -0.101,-0.385 -0.183,-0.07 -0.183,0.7 M 108.9,336.275 c 0.817,0.92 0.914,2.525 0.2,3.326 -0.425,0.477 -0.396,0.481 0.2,0.031 1.034,-0.783 0.916,-2.907 -0.2,-3.592 -0.876,-0.539 -0.881,-0.532 -0.2,0.235 m 168.401,1.762 c -0.934,1.3 -1.615,2.363 -1.513,2.363 0.274,0 3.507,-4.439 3.348,-4.594 -0.075,-0.073 -0.901,0.931 -1.835,2.231 m -156.4,-0.237 c 0.004,0.88 0.086,1.193 0.182,0.695 0.096,-0.497 0.092,-1.217 -0.008,-1.6 -0.1,-0.382 -0.179,0.025 -0.174,0.905 m 44.243,-0.643 c 0.753,0.672 1.403,0.828 3.2,0.769 l 2.256,-0.074 -2.149,-0.149 c -1.181,-0.081 -2.621,-0.428 -3.2,-0.769 l -1.051,-0.621 0.944,0.844 m 6.456,0.043 c -0.824,0.264 -0.859,0.326 -0.2,0.354 0.44,0.019 1.07,-0.141 1.4,-0.354 0.701,-0.453 0.214,-0.453 -1.2,0 m 68.764,0.733 c 0.216,0.403 0.707,0.988 1.091,1.3 0.432,0.351 0.335,0.071 -0.254,-0.733 -1.05,-1.435 -1.444,-1.702 -0.837,-0.567 m 24.824,0.089 c -0.242,0.452 -0.381,1 -0.308,1.217 0.072,0.218 0.338,-0.152 0.591,-0.822 0.526,-1.392 0.368,-1.612 -0.283,-0.395 m 23.918,0.823 -1.306,1.246 1.345,-1.057 c 1.132,-0.89 1.448,-0.977 2,-0.546 0.584,0.456 0.595,0.436 0.106,-0.188 -0.701,-0.893 -0.612,-0.916 -2.145,0.545 M 152.8,341.2 c 0.697,0.88 1.357,1.6 1.467,1.6 0.11,0 -0.37,-0.72 -1.067,-1.6 -0.697,-0.88 -1.357,-1.6 -1.467,-1.6 -0.11,0 0.37,0.72 1.067,1.6 m -57.2,-0.6 c 0.55,0.314 1.18,0.572 1.4,0.572 0.22,0 -0.05,-0.258 -0.6,-0.572 -0.55,-0.314 -1.18,-0.572 -1.4,-0.572 -0.22,0 0.05,0.258 0.6,0.572 m 148.576,-0.022 c 0.797,0.638 4.415,0.883 4.763,0.322 0.102,-0.165 -0.679,-0.239 -1.736,-0.164 -1.057,0.075 -2.345,-0.07 -2.862,-0.322 -0.896,-0.436 -0.904,-0.428 -0.165,0.164 M 100.5,341.496 c 1.265,0.079 3.335,0.079 4.6,0 1.265,-0.08 0.23,-0.145 -2.3,-0.145 -2.53,0 -3.565,0.065 -2.3,0.145 m 205.064,0.437 c 0.216,0.403 0.707,0.988 1.091,1.3 0.432,0.351 0.335,0.071 -0.254,-0.733 -1.05,-1.435 -1.444,-1.702 -0.837,-0.567 M 119.196,344.1 c -0.436,0.715 -0.794,1.465 -0.795,1.667 -10e-4,0.456 0.055,0.381 1.113,-1.467 1.052,-1.837 0.783,-2.006 -0.318,-0.2 m 141.785,0.8 -1.581,1.7 1.7,-1.581 c 1.581,-1.471 1.884,-1.819 1.581,-1.819 -0.065,0 -0.83,0.765 -1.7,1.7 m -102.512,0.291 c 0.587,0.178 1.307,0.446 1.6,0.596 0.292,0.15 0.182,-0.011 -0.245,-0.357 -0.428,-0.347 -1.148,-0.615 -1.6,-0.596 -0.661,0.028 -0.613,0.099 0.245,0.357 m 15.631,0.285 c 0.684,0.178 0.891,0.787 0.764,2.247 -0.035,0.398 0.117,0.612 0.337,0.477 1.203,-0.744 0.14,-3.1 -1.334,-2.954 -0.257,0.026 -0.152,0.129 0.233,0.23 m 96.879,1.347 c -0.799,0.883 -0.484,1.985 0.65,2.276 0.331,0.086 0.277,-0.039 -0.129,-0.296 -0.875,-0.554 -0.886,-1.134 -0.038,-2.072 0.364,-0.402 0.572,-0.731 0.462,-0.731 -0.11,0 -0.535,0.371 -0.945,0.823 M 165.107,346.69 c 0.719,0.089 1.799,0.087 2.4,-0.004 0.601,-0.091 0.013,-0.164 -1.307,-0.162 -1.32,0.002 -1.812,0.077 -1.093,0.166 m -52.531,2.297 c -1.01,0.764 -0.572,0.772 0.878,0.015 0.63,-0.328 0.865,-0.598 0.522,-0.6 -0.342,-10e-4 -0.972,0.262 -1.4,0.585 m 141.6,0 c -0.994,0.752 -0.285,0.761 1.024,0.013 0.641,-0.366 0.776,-0.577 0.376,-0.586 -0.342,-0.008 -0.972,0.25 -1.4,0.573 M 135,349.2 l -4.8,0.239 4.676,0.081 c 2.777,0.047 4.777,-0.083 4.924,-0.32 0.136,-0.22 0.192,-0.364 0.124,-0.32 -0.068,0.045 -2.284,0.189 -4.924,0.32 m 166.905,-0.117 c 0.497,0.096 1.217,0.092 1.6,-0.008 0.382,-0.1 -0.025,-0.179 -0.905,-0.174 -0.88,0.004 -1.193,0.086 -0.695,0.182 m -204.2,1.204 c 0.609,0.092 1.509,0.09 2,-0.005 0.492,-0.095 -0.005,-0.171 -1.105,-0.168 -1.1,0.003 -1.503,0.081 -0.895,0.173 m 5.408,0.008 c 1.163,0.081 2.963,0.081 4,-0.002 1.038,-0.082 0.087,-0.148 -2.113,-0.147 -2.2,10e-4 -3.049,0.068 -1.887,0.149 M 243.1,350.282 c 0.495,0.096 1.305,0.096 1.8,0 0.495,-0.095 0.09,-0.173 -0.9,-0.173 -0.99,0 -1.395,0.078 -0.9,0.173 m 5.405,0.005 c 0.609,0.092 1.509,0.09 2,-0.005 0.492,-0.095 -0.005,-0.171 -1.105,-0.168 -1.1,0.003 -1.503,0.081 -0.895,0.173 M 173.2,351.86 c -0.55,0.762 -1.36,1.544 -1.8,1.738 -0.589,0.259 -0.633,0.358 -0.167,0.377 0.583,0.023 3.425,-3.054 3.107,-3.365 -0.077,-0.075 -0.59,0.487 -1.14,1.25 m -12.8,2.937 c 0.541,0.353 3.964,0.602 3.567,0.259 -0.092,-0.079 -1.067,-0.257 -2.167,-0.397 -1.365,-0.173 -1.81,-0.129 -1.4,0.138 m 6.8,0.003 c -0.824,0.264 -0.859,0.326 -0.2,0.354 0.44,0.019 1.07,-0.141 1.4,-0.354 0.701,-0.453 0.214,-0.453 -1.2,0 m -11.254,8.616 c 0.74,0.321 1.55,0.577 1.8,0.568 0.25,-0.008 -0.152,-0.278 -0.892,-0.6 -0.74,-0.321 -1.55,-0.577 -1.8,-0.568 -0.25,0.008 0.152,0.278 0.892,0.6"
       inkscape:connector-curvature="0"
       style="fill:#7f41e3;fill-rule:evenodd;stroke:none" />
    <path
       id="path4"
       d="M 79.6,31.376 C 67.458,35.106 63.97,40.2 63.7,54.6 c -0.107,5.75 -0.005,7.643 0.51,9.4 0.355,1.21 0.79,3.203 0.966,4.429 0.176,1.226 0.498,2.576 0.714,3 0.217,0.424 0.603,1.626 0.858,2.671 0.255,1.044 0.82,2.484 1.256,3.2 0.436,0.715 0.794,1.558 0.795,1.874 0,0.315 0.343,1.305 0.761,2.2 0.418,0.894 0.972,2.301 1.231,3.126 0.259,0.825 0.623,1.5 0.808,1.5 0.186,0 0.461,0.585 0.613,1.3 0.151,0.715 0.601,1.93 1,2.7 0.399,0.77 1.65,3.29 2.78,5.6 1.13,2.31 2.656,5.28 3.392,6.6 0.736,1.32 1.635,2.94 1.999,3.6 0.363,0.66 1.189,2.1 1.835,3.2 0.647,1.1 1.432,2.544 1.746,3.208 0.313,0.665 0.945,1.547 1.403,1.962 0.458,0.415 0.833,0.933 0.833,1.151 0,0.218 0.604,1.135 1.343,2.038 0.738,0.902 1.463,2.022 1.61,2.488 0.147,0.466 0.623,1.169 1.057,1.562 0.435,0.393 0.79,0.932 0.79,1.198 0,0.409 0.571,1.253 2.701,3.993 0.172,0.22 0.896,1.319 1.61,2.442 0.714,1.123 1.656,2.366 2.094,2.762 0.437,0.396 0.795,0.948 0.795,1.226 0,0.278 0.862,1.465 1.916,2.638 2.652,2.952 5.853,7.096 6.592,8.532 0.339,0.66 1.759,2.412 3.154,3.894 1.396,1.481 3.528,3.954 4.738,5.495 1.21,1.542 2.319,2.805 2.465,2.807 0.146,0.002 0.822,0.769 1.501,1.704 0.679,0.935 2.09,2.609 3.134,3.721 1.045,1.112 3.07,3.358 4.5,4.991 1.43,1.634 3.275,3.608 4.1,4.388 1.499,1.416 2.076,3.597 1.11,4.194 -0.475,0.293 -3.21,4.37 -3.21,4.784 0,0.163 -0.36,0.753 -0.8,1.313 -0.44,0.559 -0.8,1.325 -0.8,1.701 0,0.376 -0.318,0.972 -0.706,1.323 -0.389,0.352 -1.322,1.865 -2.073,3.362 -0.751,1.498 -1.579,2.993 -1.84,3.323 -0.26,0.33 -0.599,1.126 -0.752,1.768 -0.153,0.643 -0.615,1.597 -1.026,2.119 -0.411,0.523 -0.864,1.482 -1.007,2.132 -0.143,0.649 -0.418,1.181 -0.612,1.181 -0.193,0 -0.578,0.765 -0.854,1.7 -0.275,0.935 -0.732,1.938 -1.015,2.228 -0.283,0.29 -0.611,1.01 -0.73,1.6 -0.118,0.59 -0.554,1.712 -0.968,2.494 -0.413,0.783 -0.875,2.081 -1.026,2.886 -0.151,0.805 -0.512,1.66 -0.802,1.901 -0.289,0.24 -0.651,1.172 -0.802,2.07 -0.152,0.898 -0.612,2.373 -1.023,3.277 -0.41,0.904 -0.75,2.048 -0.755,2.542 -0.005,0.495 -0.41,2.025 -0.9,3.4 -1.371,3.85 -1.378,20.149 -0.009,22.349 0.495,0.796 0.9,1.687 0.9,1.979 0,1.518 4.684,6.673 7.273,8.005 0.81,0.417 1.573,0.92 1.695,1.118 0.123,0.198 0.837,0.475 1.587,0.616 0.751,0.141 1.945,0.546 2.655,0.9 1.872,0.934 15.85,0.981 17.259,0.058 0.523,-0.343 1.936,-0.753 3.141,-0.912 1.204,-0.16 2.978,-0.632 3.941,-1.05 0.963,-0.419 2.14,-0.761 2.615,-0.761 0.476,0 1.568,-0.358 2.427,-0.796 0.859,-0.438 2.202,-0.905 2.985,-1.038 0.782,-0.132 1.872,-0.556 2.422,-0.941 0.55,-0.385 1.657,-0.823 2.46,-0.973 0.803,-0.15 1.67,-0.527 1.927,-0.837 0.258,-0.31 1.041,-0.689 1.741,-0.841 0.699,-0.153 1.701,-0.615 2.226,-1.026 0.525,-0.411 1.17,-0.748 1.434,-0.748 0.265,0 2.536,-1.072 5.047,-2.381 2.511,-1.31 5.24,-2.68 6.065,-3.044 0.825,-0.364 1.5,-0.808 1.5,-0.987 0,-0.178 0.528,-0.44 1.172,-0.582 0.645,-0.142 1.396,-0.526 1.669,-0.855 0.272,-0.328 1.095,-0.848 1.827,-1.154 0.733,-0.306 1.332,-0.731 1.332,-0.946 0,-0.214 0.63,-0.597 1.4,-0.851 0.77,-0.254 1.4,-0.626 1.4,-0.826 0,-0.2 0.585,-0.608 1.3,-0.907 0.715,-0.299 1.547,-0.841 1.849,-1.205 0.302,-0.364 0.865,-0.662 1.251,-0.662 0.386,0 0.935,-0.281 1.22,-0.624 0.285,-0.343 1.238,-0.972 2.118,-1.397 l 1.601,-0.774 1.785,1.098 c 0.981,0.603 2.255,1.407 2.83,1.785 0.575,0.378 1.573,0.984 2.217,1.347 0.644,0.362 2.007,1.247 3.029,1.965 1.022,0.718 2.459,1.642 3.194,2.053 0.734,0.411 2.161,1.226 3.171,1.812 1.009,0.585 4.035,2.169 6.723,3.519 2.689,1.35 4.995,2.626 5.124,2.835 0.129,0.21 0.522,0.381 0.872,0.381 0.35,0 1.554,0.431 2.676,0.958 1.122,0.528 3.03,1.408 4.24,1.957 1.21,0.548 3.022,1.377 4.026,1.841 1.005,0.464 2.14,0.844 2.522,0.844 0.383,0 1.451,0.344 2.374,0.764 0.923,0.42 2.398,0.894 3.278,1.053 0.88,0.16 2.05,0.512 2.6,0.785 0.55,0.272 1.9,0.619 3,0.773 1.1,0.153 3.465,0.626 5.255,1.052 11.535,2.741 23.269,-1.033 27.521,-8.853 3.079,-5.661 4.234,-17.503 2.222,-22.774 -0.21,-0.55 -0.546,-1.99 -0.747,-3.2 -0.566,-3.419 -1.961,-8.336 -2.638,-9.303 -0.337,-0.481 -0.614,-1.33 -0.614,-1.886 -10e-4,-0.556 -0.34,-1.566 -0.754,-2.244 -0.414,-0.679 -0.886,-1.849 -1.049,-2.6 -0.163,-0.752 -0.627,-1.997 -1.03,-2.767 -0.404,-0.77 -2.115,-4.19 -3.801,-7.6 -1.687,-3.41 -3.928,-7.82 -4.979,-9.8 -1.052,-1.98 -2.215,-4.177 -2.586,-4.882 -0.37,-0.704 -0.927,-1.492 -1.237,-1.749 -0.31,-0.257 -0.563,-0.693 -0.563,-0.969 0,-0.276 -0.299,-0.749 -0.665,-1.051 -0.366,-0.302 -1.011,-1.328 -1.433,-2.281 -0.876,-1.976 -0.996,-1.722 2.498,-5.293 0.99,-1.012 2.34,-2.457 3,-3.211 0.66,-0.754 2.82,-3.167 4.8,-5.361 1.98,-2.194 3.78,-4.227 4,-4.518 0.22,-0.291 0.859,-1.028 1.42,-1.639 0.561,-0.61 1.893,-2.221 2.959,-3.578 1.066,-1.357 2.064,-2.468 2.216,-2.468 0.152,0 0.499,-0.487 0.77,-1.083 0.271,-0.595 0.84,-1.325 1.264,-1.622 0.424,-0.297 0.771,-0.691 0.771,-0.875 0,-0.185 0.503,-0.874 1.119,-1.533 2.086,-2.233 11.281,-14.409 11.281,-14.938 0,-0.192 0.315,-0.682 0.7,-1.089 1.322,-1.398 2.146,-2.524 2.623,-3.586 0.262,-0.585 0.713,-1.335 1.002,-1.669 1.471,-1.694 2.875,-3.776 2.875,-4.26 0,-0.3 0.176,-0.545 0.392,-0.545 0.215,0 0.762,-0.675 1.215,-1.5 0.452,-0.825 1.254,-2.22 1.781,-3.1 0.528,-0.88 1.336,-2.23 1.797,-3 0.461,-0.77 1.19,-1.94 1.62,-2.6 1.103,-1.692 2.66,-4.536 3.447,-6.3 0.368,-0.825 0.808,-1.5 0.978,-1.5 0.169,0 0.522,-0.675 0.783,-1.5 0.261,-0.825 0.708,-1.687 0.993,-1.916 0.285,-0.229 0.722,-1.174 0.971,-2.1 0.25,-0.926 0.62,-1.684 0.822,-1.684 0.203,0 0.592,-0.765 0.865,-1.7 0.273,-0.935 0.723,-1.84 1,-2.011 0.277,-0.171 0.627,-0.981 0.778,-1.8 0.151,-0.819 0.595,-1.902 0.988,-2.408 0.393,-0.505 0.841,-1.492 0.995,-2.194 0.154,-0.701 0.515,-1.638 0.801,-2.081 0.287,-0.443 0.74,-1.706 1.006,-2.806 0.266,-1.1 0.631,-2.19 0.811,-2.423 0.18,-0.233 0.591,-1.435 0.913,-2.671 0.322,-1.237 0.76,-2.577 0.974,-2.978 0.214,-0.4 0.511,-1.808 0.661,-3.128 0.149,-1.32 0.571,-3.3 0.938,-4.4 0.941,-2.821 0.958,-13.059 0.025,-14.8 -0.354,-0.66 -0.747,-2.004 -0.872,-2.986 -0.126,-0.982 -0.468,-1.972 -0.76,-2.2 -0.293,-0.228 -0.771,-0.954 -1.063,-1.614 -0.293,-0.66 -0.78,-1.47 -1.084,-1.8 -0.304,-0.33 -1.135,-1.23 -1.846,-2 -1.287,-1.392 -4.427,-3.6 -5.12,-3.6 -0.2,0 -1.003,-0.377 -1.785,-0.839 -3.126,-1.844 -20.139,-1.64 -23.904,0.286 -0.594,0.304 -1.551,0.553 -2.126,0.553 -0.575,0 -1.889,0.351 -2.92,0.781 -1.031,0.429 -2.684,0.986 -3.674,1.237 -0.99,0.251 -2.07,0.685 -2.4,0.965 -0.33,0.28 -1.297,0.615 -2.15,0.746 -0.852,0.13 -1.856,0.514 -2.231,0.854 -0.375,0.339 -0.92,0.617 -1.211,0.617 -0.29,0 -1.446,0.436 -2.568,0.969 -1.122,0.533 -2.625,1.185 -3.34,1.449 -0.715,0.263 -1.3,0.618 -1.3,0.787 0,0.17 -0.481,0.429 -1.068,0.576 -0.588,0.148 -1.512,0.617 -2.054,1.044 -0.542,0.426 -1.282,0.775 -1.643,0.775 -0.361,0 -1.102,0.313 -1.646,0.697 -1.111,0.782 -2.629,1.66 -4.989,2.884 -0.88,0.457 -2.32,1.272 -3.2,1.811 -0.88,0.539 -2.154,1.246 -2.832,1.571 -0.677,0.325 -1.464,0.871 -1.749,1.214 -0.284,0.343 -0.697,0.623 -0.916,0.623 -0.527,0 -3.478,1.84 -5.85,3.649 -1.045,0.797 -2.294,1.574 -2.777,1.727 -0.482,0.153 -1.063,0.626 -1.29,1.051 -0.228,0.425 -0.623,0.773 -0.879,0.773 -0.569,0 -3.078,1.663 -5.563,3.688 -1.02,0.831 -2.01,1.512 -2.2,1.512 -0.315,10e-4 -1.137,0.627 -3.678,2.801 -0.514,0.439 -1.086,0.799 -1.271,0.799 -0.186,0 -0.653,0.315 -1.037,0.7 -0.385,0.385 -1.455,1.24 -2.378,1.9 -1.963,1.404 -5.108,4.016 -6.38,5.3 -0.49,0.495 -1.019,0.9 -1.175,0.9 -0.395,0 -5.553,4.386 -5.945,5.055 -0.176,0.3 -0.569,0.545 -0.873,0.545 -0.304,0 -0.667,0.36 -0.807,0.8 -0.14,0.44 -0.51,0.8 -0.824,0.8 -0.313,0 -0.794,0.36 -1.069,0.8 -0.275,0.44 -0.661,0.8 -0.859,0.8 -0.399,0 -3.895,3.013 -7.809,6.729 -3.075,2.921 -2.798,2.988 -7.942,-1.929 -1.956,-1.87 -4.321,-4.03 -5.254,-4.8 -4.103,-3.385 -6.36,-5.272 -7.982,-6.673 -0.957,-0.827 -2.217,-1.808 -2.8,-2.18 -0.584,-0.372 -2.043,-1.598 -3.243,-2.725 -1.2,-1.126 -2.589,-2.15 -3.086,-2.275 -0.497,-0.124 -1.012,-0.569 -1.145,-0.987 -0.132,-0.418 -0.396,-0.76 -0.585,-0.76 -0.19,0 -0.587,-0.225 -0.883,-0.5 C 168.624,69.469 165.91,67.46 164,66.215 163.01,65.57 162.02,64.852 161.8,64.621 160.995,63.773 158.441,62 158.027,62 c -0.235,0 -0.765,-0.338 -1.179,-0.752 -1.228,-1.228 -5.199,-4.065 -6.572,-4.694 -0.702,-0.322 -1.996,-1.122 -2.876,-1.778 -0.88,-0.655 -2.23,-1.553 -3,-1.995 -0.77,-0.442 -1.94,-1.156 -2.6,-1.588 -0.66,-0.431 -1.83,-1.101 -2.6,-1.488 -0.77,-0.388 -1.544,-0.93 -1.72,-1.205 -0.176,-0.275 -0.497,-0.5 -0.713,-0.5 -0.537,0 -2.637,-1.004 -4.567,-2.184 -0.88,-0.537 -2.05,-1.204 -2.6,-1.481 -0.55,-0.277 -1.429,-0.825 -1.954,-1.219 -0.525,-0.394 -1.209,-0.716 -1.522,-0.716 -0.312,0 -2.769,-1.08 -5.46,-2.4 -2.691,-1.32 -5.114,-2.4 -5.384,-2.4 -0.27,0 -0.803,-0.159 -1.185,-0.353 -1.04,-0.528 -5.064,-2.047 -5.425,-2.047 -0.172,0 -1.115,-0.365 -2.093,-0.811 -0.979,-0.445 -2.724,-0.985 -3.878,-1.198 -1.155,-0.213 -2.459,-0.559 -2.899,-0.768 -0.716,-0.34 -15.119,-2.074 -16.6,-1.999 -0.33,0.017 -1.95,0.445 -3.6,0.952 m 14.2,1.107 c 2.64,0.251 5.155,0.695 5.589,0.987 0.434,0.291 1.109,0.53 1.501,0.53 0.89,0 7.456,2.257 8.085,2.779 0.256,0.212 1.266,0.508 2.245,0.657 0.979,0.149 2.062,0.514 2.406,0.812 0.344,0.298 1.244,0.757 2,1.02 0.756,0.263 2.183,0.991 3.171,1.617 0.989,0.627 2.969,1.503 4.4,1.948 1.432,0.445 3.503,1.338 4.603,1.985 1.1,0.646 2.45,1.37 2.999,1.607 0.55,0.237 1.27,0.667 1.6,0.956 0.331,0.288 1.051,0.654 1.601,0.812 1.063,0.305 3.687,1.944 4.975,3.107 0.427,0.385 1.045,0.7 1.375,0.7 0.329,0 0.99,0.368 1.469,0.818 1.208,1.135 7.039,4.782 7.645,4.782 0.273,0 0.64,0.246 0.816,0.547 0.176,0.302 2.544,2.057 5.262,3.9 2.718,1.844 5.328,3.617 5.8,3.941 0.472,0.323 2.118,1.602 3.658,2.842 1.54,1.24 3.232,2.391 3.759,2.558 0.528,0.167 1.709,1.048 2.625,1.958 0.916,0.91 2.359,2.194 3.205,2.854 0.847,0.66 2.288,1.83 3.202,2.6 0.914,0.77 2.272,1.85 3.018,2.4 1.399,1.032 4.884,3.998 6.991,5.949 0.66,0.611 1.83,1.572 2.6,2.137 0.77,0.564 2.808,2.395 4.53,4.07 3.71,3.609 4.463,3.777 6.894,1.539 1.473,-1.356 6.887,-6.187 10.827,-9.66 5.885,-5.188 20.447,-16.638 25.48,-20.035 1.14,-0.77 3.063,-2.121 4.271,-3.002 1.209,-0.881 2.489,-1.781 2.846,-2 0.356,-0.219 1.976,-1.28 3.6,-2.357 1.623,-1.078 3.726,-2.473 4.672,-3.1 0.946,-0.628 1.795,-1.141 1.887,-1.141 0.091,0 1.567,-0.858 3.28,-1.908 4.402,-2.697 4.535,-2.775 6.313,-3.699 0.88,-0.457 3.04,-1.623 4.8,-2.591 4.248,-2.335 8.876,-4.602 9.397,-4.602 0.231,0 1.901,-0.701 3.711,-1.558 1.811,-0.857 4.102,-1.826 5.092,-2.154 1.975,-0.654 3.56,-1.208 6.6,-2.306 1.1,-0.397 2.63,-0.841 3.4,-0.986 0.77,-0.145 2.922,-0.622 4.781,-1.06 5.158,-1.216 16.834,-0.915 20.019,0.515 8.306,3.731 12.132,10.069 12.48,20.675 0.147,4.455 -2.062,16.062 -3.836,20.161 -0.354,0.818 -0.646,1.808 -0.648,2.2 -0.002,0.392 -0.446,1.613 -0.987,2.713 -0.541,1.1 -0.99,2.25 -0.996,2.556 -0.007,0.306 -0.36,1.296 -0.785,2.2 -0.424,0.904 -1.241,2.724 -1.815,4.044 -0.574,1.32 -1.217,2.715 -1.429,3.1 -0.893,1.626 -1.205,2.247 -2.568,5.1 -0.789,1.65 -1.605,3.27 -1.814,3.6 -0.209,0.33 -1.389,2.4 -2.62,4.6 -2.21,3.945 -4.934,8.587 -5.744,9.786 -0.228,0.338 -2.152,3.222 -4.276,6.41 -2.123,3.188 -4.213,6.248 -4.645,6.8 -0.432,0.552 -1.657,2.264 -2.723,3.804 -6.8,9.823 -19.389,24.887 -33.925,40.596 -2.074,2.241 -2.132,2.024 2.334,8.656 0.612,0.908 1.243,2.078 1.402,2.6 0.159,0.521 0.533,1.226 0.831,1.567 1.541,1.762 10.515,20.03 11.335,23.073 0.227,0.843 0.681,1.887 1.008,2.32 0.328,0.434 0.602,1.148 0.611,1.588 0.008,0.44 0.297,1.34 0.641,2 0.344,0.66 0.895,2.37 1.223,3.8 0.328,1.43 0.838,3.32 1.132,4.2 4.312,12.873 0.569,29.088 -7.525,32.6 -0.254,0.11 -0.911,0.504 -1.461,0.876 -2.717,1.836 -11.69,2.779 -16.6,1.744 -1.54,-0.324 -4.15,-0.847 -5.8,-1.161 -4.002,-0.762 -7.443,-1.743 -9.426,-2.686 -0.895,-0.425 -2.178,-0.773 -2.851,-0.773 -0.674,0 -1.431,-0.248 -1.682,-0.55 -0.251,-0.303 -1.267,-0.777 -2.259,-1.055 -0.991,-0.278 -1.896,-0.655 -2.009,-0.839 -0.114,-0.184 -0.958,-0.537 -1.876,-0.784 -0.918,-0.247 -2.104,-0.792 -2.637,-1.211 -0.532,-0.418 -1.169,-0.762 -1.414,-0.763 -0.245,-0.001 -1.256,-0.419 -2.246,-0.929 -7.36,-3.794 -9.15,-4.669 -9.547,-4.669 -0.249,0 -0.453,-0.144 -0.453,-0.32 0,-0.176 -0.765,-0.716 -1.7,-1.198 -2.121,-1.095 -2.991,-1.642 -4.428,-2.782 -0.623,-0.495 -1.368,-0.9 -1.654,-0.9 -0.286,0 -0.739,-0.264 -1.007,-0.587 -0.268,-0.323 -1.685,-1.252 -3.149,-2.065 -1.464,-0.814 -2.752,-1.585 -2.862,-1.715 -2.48,-2.92 -4.198,-2.844 -9.2,0.409 -2.09,1.359 -4.43,2.868 -5.2,3.354 -0.77,0.485 -2.39,1.519 -3.6,2.297 -1.21,0.778 -2.83,1.712 -3.6,2.076 -0.77,0.363 -2.3,1.161 -3.4,1.773 -1.1,0.611 -3.481,1.875 -5.29,2.807 -1.81,0.933 -3.387,1.852 -3.505,2.043 -0.118,0.19 -0.797,0.473 -1.51,0.627 -0.712,0.155 -1.925,0.616 -2.695,1.025 -2.322,1.234 -5.845,2.756 -6.377,2.756 -0.275,0 -0.977,0.266 -1.561,0.591 -2.638,1.469 -11.344,4.009 -17.865,5.213 -6.877,1.27 -17.026,0.28 -20.458,-1.996 -4.82,-3.195 -6.447,-5.119 -8.468,-10.008 -2.102,-5.086 -1.369,-19.939 1.312,-26.6 0.31,-0.77 0.682,-2.12 0.826,-3 0.144,-0.88 0.427,-1.799 0.628,-2.043 0.202,-0.244 0.709,-1.414 1.127,-2.6 1.688,-4.784 2.095,-5.839 2.992,-7.757 1.503,-3.213 6.748,-13.615 7.913,-15.693 0.588,-1.049 1.359,-2.447 1.714,-3.107 0.355,-0.66 1.082,-1.92 1.616,-2.8 4.201,-6.922 4.535,-7.558 4.569,-8.692 0.024,-0.821 -0.197,-1.15 -0.888,-1.324 -0.506,-0.127 -2.531,-2.057 -4.5,-4.29 -3.795,-4.304 -6.721,-7.5 -8.921,-9.748 -1.208,-1.233 -3.467,-4.055 -5.964,-7.449 -0.498,-0.677 -1.758,-2.158 -2.8,-3.292 -1.042,-1.133 -2.525,-2.91 -3.295,-3.949 -0.77,-1.038 -2.75,-3.524 -4.4,-5.525 -1.65,-2.001 -3.33,-4.199 -3.733,-4.884 -0.402,-0.686 -1.255,-1.909 -1.895,-2.717 -0.639,-0.809 -1.373,-1.934 -1.631,-2.5 -0.258,-0.567 -0.604,-1.03 -0.769,-1.03 -0.266,0 -2.235,-2.83 -4.572,-6.571 -2.606,-4.171 -3.558,-5.485 -4.238,-5.849 -0.419,-0.225 -0.765,-0.717 -0.769,-1.094 -0.004,-0.377 -0.544,-1.478 -1.2,-2.446 -0.656,-0.968 -1.193,-1.944 -1.193,-2.169 0,-0.224 -0.248,-0.692 -0.55,-1.04 -0.303,-0.347 -1.208,-1.882 -2.011,-3.411 -0.803,-1.529 -1.704,-3.059 -2.002,-3.4 C 78.739,99.279 78.358,98.55 78.191,98 78.025,97.45 76.833,94.867 75.544,92.261 74.255,89.655 73.2,87.279 73.2,86.982 c 0,-0.298 -0.45,-1.026 -1,-1.62 -0.55,-0.593 -1.004,-1.548 -1.009,-2.12 -0.005,-0.573 -0.365,-1.827 -0.8,-2.786 C 69.956,79.497 69.6,78.525 69.6,78.296 69.6,78.067 69.174,76.962 68.653,75.84 67.438,73.225 66.4,69.957 66.399,68.746 66.399,68.226 65.968,66 65.44,63.8 64.278,58.953 63.863,54.162 64.348,51.2 c 0.503,-3.071 1.991,-8.513 2.4,-8.779 0.187,-0.121 0.66,-0.851 1.05,-1.621 0.735,-1.451 3.658,-4.884 4.387,-5.153 0.228,-0.084 1.765,-0.791 3.415,-1.57 5.404,-2.551 6.836,-2.676 18.2,-1.594 M 209.376,287.56 c -1.112,0.136 -2.462,0.533 -3,0.881 -0.537,0.348 -1.434,0.745 -1.993,0.883 -1.476,0.363 -5.68,4.577 -6.66,6.676 -2.031,4.352 -2.13,5.745 -2.126,30.056 0.004,27.316 -0.764,24.464 6.613,24.551 7.282,0.085 6.59,1.823 6.59,-16.557 V 318.9 l 1.25,-0.25 c 0.688,-0.137 3.748,-0.25 6.8,-0.25 7.258,0 7.15,0.09 7.15,-5.986 0,-5.531 0.26,-5.347 -7.424,-5.247 -8.537,0.11 -9.043,-0.283 -6.653,-5.167 1.45,-2.962 2.367,-3.273 8.742,-2.961 5.426,0.265 5.735,0.124 5.735,-2.623 0,-0.68 0.35,-2.232 0.778,-3.45 0.911,-2.591 0.848,-2.867 -0.938,-4.086 -2.022,-1.38 -9.178,-2.015 -14.864,-1.32 m -76.976,0.629 c -0.55,0.317 -1.381,0.751 -1.847,0.964 -2.657,1.214 -3.153,2.241 -3.153,6.525 0,4.359 -0.024,4.311 3.296,6.593 2.538,1.744 9.506,0.235 10.42,-2.257 0.124,-0.338 0.387,-0.723 0.584,-0.855 1.292,-0.872 1.09,-5.349 -0.336,-7.45 -0.498,-0.735 -0.964,-1.479 -1.035,-1.654 -0.615,-1.521 -6.235,-2.844 -7.929,-1.866 m 88.45,0.414 c 3.595,1.238 3.653,1.303 3.355,3.783 -0.705,5.869 -1.31,6.543 -5.088,5.671 -6.253,-1.444 -10.476,1.047 -10.969,6.468 -0.299,3.29 -0.331,3.275 7.138,3.275 7.955,0 7.517,-0.252 7.501,4.324 -0.018,5.189 0.261,4.993 -7.357,5.167 -8.273,0.189 -7.43,-1.651 -7.43,16.212 0,17.613 0.509,16.097 -5.405,16.097 -6.512,0 -5.877,2.871 -5.723,-25.873 L 197,299.8 l 1.34,-2.786 c 1.752,-3.641 4.651,-6.5 7.511,-7.405 0.632,-0.2 1.869,-0.636 2.749,-0.969 2.197,-0.83 9.879,-0.854 12.25,-0.037 m -83.309,1.048 c 6.05,2.514 4.978,11.553 -1.493,12.588 -2.578,0.412 -4.189,-0.101 -6.203,-1.977 L 128,298.544 v -2.993 c 0,-5.24 4.473,-8.006 9.541,-5.9 M 101.8,306.262 c -1.54,0.328 -3.25,0.847 -3.8,1.153 -0.55,0.306 -1.63,0.85 -2.4,1.209 -1.219,0.568 -2.007,1.289 -4.567,4.176 -0.293,0.33 -0.801,1.95 -1.13,3.6 -1.614,8.091 2.649,14.664 10.801,16.654 0.603,0.148 1.525,0.601 2.05,1.007 0.525,0.406 1.389,0.739 1.921,0.739 2.699,0 4.661,3.433 2.879,5.038 -1.001,0.902 -8.272,1.06 -9.305,0.202 -0.313,-0.259 -1.708,-0.655 -3.1,-0.879 -1.392,-0.224 -2.646,-0.595 -2.788,-0.824 -0.572,-0.925 -1.765,-0.116 -2.161,1.467 -0.22,0.878 -0.524,1.786 -0.676,2.019 -0.47,0.719 -1.259,5.649 -1.008,6.301 1.159,3.021 22.414,4.444 25.456,1.704 0.345,-0.311 1.103,-0.684 1.684,-0.829 0.581,-0.145 1.435,-0.699 1.897,-1.231 0.463,-0.533 1.006,-0.968 1.206,-0.968 0.819,0 2.529,-3.765 2.888,-6.356 0.746,-5.377 -0.796,-10.342 -3.815,-12.29 -4.19,-2.703 -5.472,-3.354 -6.609,-3.354 -0.399,0 -0.952,-0.274 -1.23,-0.608 -0.278,-0.335 -1.284,-0.805 -2.237,-1.045 -0.952,-0.24 -1.939,-0.686 -2.193,-0.991 -0.253,-0.306 -0.705,-0.556 -1.003,-0.556 -1.127,0 -1.89,-1.858 -1.306,-3.178 0.817,-1.845 7.306,-2.269 10.546,-0.689 2.774,1.353 3.159,1.273 4.482,-0.933 1.399,-2.333 1.949,-8.843 0.779,-9.22 -0.034,-0.01 -1.591,-0.278 -3.461,-0.595 -1.87,-0.316 -4.3,-0.746 -5.4,-0.956 -2.777,-0.529 -5.129,-0.464 -8.4,0.233 m 141.302,-0.084 c -0.604,0.315 -1.911,0.694 -2.905,0.843 -0.993,0.149 -2.209,0.586 -2.702,0.97 -0.492,0.384 -1.345,0.836 -1.895,1.004 -0.55,0.167 -1.295,0.597 -1.655,0.955 -0.36,0.357 -1.302,1.19 -2.091,1.85 -0.79,0.66 -1.441,1.425 -1.445,1.7 -0.005,0.275 -0.159,0.5 -0.342,0.5 -0.542,0 -2.751,3.693 -3.053,5.104 -0.154,0.717 -0.58,1.887 -0.947,2.6 -0.984,1.912 -0.968,12.366 0.023,14.096 0.378,0.66 0.873,1.944 1.101,2.853 0.228,0.91 0.683,1.877 1.012,2.149 0.328,0.273 0.597,0.735 0.597,1.026 0,0.469 1.184,2.027 2.411,3.172 0.235,0.22 0.812,0.805 1.281,1.3 0.469,0.495 1.047,0.9 1.284,0.9 0.237,0 0.641,0.335 0.896,0.744 0.255,0.409 1.044,0.859 1.753,1.001 0.709,0.142 1.495,0.54 1.747,0.885 0.446,0.609 5.314,1.523 8.028,1.507 4.254,-0.024 8.266,-0.7 9.48,-1.596 0.702,-0.518 1.527,-0.941 1.834,-0.941 1.347,0 7.648,-6.109 7.699,-7.463 0.006,-0.185 0.455,-1.237 0.996,-2.337 0.541,-1.1 0.985,-2.466 0.987,-3.036 0.002,-0.57 0.272,-1.92 0.6,-3 0.715,-2.36 0.789,-7.076 0.129,-8.29 -0.261,-0.481 -0.608,-1.835 -0.77,-3.01 -0.163,-1.174 -0.559,-2.434 -0.881,-2.8 -0.322,-0.365 -0.706,-1.232 -0.853,-1.926 -0.426,-2.009 -5.586,-7.577 -7.42,-8.008 -0.55,-0.129 -1.371,-0.57 -1.824,-0.98 -0.452,-0.409 -1.712,-0.855 -2.8,-0.991 -1.087,-0.136 -2.748,-0.498 -3.691,-0.803 -2.209,-0.716 -5.188,-0.707 -6.584,0.022 m -76.702,0.171 c -0.33,0.195 -1.808,0.48 -3.284,0.633 -1.587,0.165 -3.059,0.568 -3.6,0.987 -0.504,0.39 -1.414,0.831 -2.022,0.979 -1.31,0.32 -6.487,5.352 -6.901,6.709 -0.158,0.518 -0.532,1.222 -0.83,1.563 -0.614,0.703 -1.631,4.828 -2.213,8.98 -0.417,2.973 0.999,10.369 2.259,11.8 0.291,0.33 0.647,1.074 0.791,1.653 0.331,1.323 3.789,4.894 5.28,5.453 1.753,0.656 2.248,0.883 3.32,1.52 0.794,0.472 2.401,0.579 7.8,0.522 l 6.8,-0.072 -0.124,1.515 c -0.228,2.783 -2.079,4.503 -5.209,4.838 -4.511,0.483 -11.561,-0.098 -13.158,-1.085 -2.666,-1.648 -4.207,0.199 -4.727,5.663 -0.156,1.646 -0.441,3.191 -0.632,3.432 -0.476,0.602 0.736,1.605 2.354,1.949 0.717,0.153 1.887,0.578 2.6,0.945 2.261,1.164 18.394,0.979 20.343,-0.233 0.796,-0.495 1.696,-0.903 2,-0.907 1.922,-0.026 7.313,-5.253 8.035,-7.791 0.251,-0.881 0.74,-1.936 1.087,-2.344 0.558,-0.655 0.631,-3.251 0.631,-22.356 v -21.615 l -1.021,-0.762 c -1.614,-1.206 -18.071,-2.867 -19.579,-1.976 m 105.8,0.851 c -3.951,0.329 -4.26,0.727 -2.373,3.059 0.865,1.069 1.802,2.304 2.082,2.743 0.28,0.439 0.883,1.383 1.34,2.098 0.456,0.715 0.98,1.3 1.164,1.3 0.183,0 0.459,0.405 0.614,0.9 0.154,0.495 0.95,1.71 1.768,2.7 0.819,0.99 1.721,2.25 2.005,2.8 0.284,0.55 0.761,1.144 1.058,1.32 0.298,0.176 0.542,0.536 0.542,0.8 0.001,0.264 0.451,1.003 1,1.642 1.24,1.442 1.276,2.872 0.1,4.043 -0.495,0.493 -1.435,1.769 -2.09,2.836 -0.654,1.066 -1.426,2.213 -1.715,2.549 -1.451,1.687 -2.495,3.168 -2.495,3.539 0,0.228 -0.286,0.7 -0.636,1.05 -0.956,0.955 -3.364,4.543 -3.364,5.011 0,0.226 -0.176,0.41 -0.391,0.41 -0.215,0 -0.759,0.764 -1.21,1.697 -1.214,2.513 -0.762,2.703 6.429,2.703 h 5.876 l 1.372,-1.7 c 0.755,-0.935 1.977,-2.645 2.716,-3.8 0.738,-1.155 1.471,-2.1 1.627,-2.1 0.156,0 0.504,-0.531 0.773,-1.181 0.47,-1.135 2.408,-2.811 2.408,-2.083 0,0.354 1.875,2.933 2.954,4.064 0.315,0.33 0.798,1.095 1.074,1.7 0.275,0.605 0.63,1.1 0.788,1.1 0.158,0 0.51,0.538 0.783,1.196 1.005,2.428 10.19,4.088 14.168,2.561 0.926,-0.355 0.817,-2.667 -0.167,-3.557 -0.44,-0.398 -0.8,-0.957 -0.8,-1.242 0,-0.285 -0.283,-0.677 -0.629,-0.87 -0.347,-0.194 -0.842,-0.717 -1.1,-1.163 -0.259,-0.446 -1.011,-1.585 -1.671,-2.532 -0.66,-0.946 -1.47,-2.113 -1.8,-2.593 -0.33,-0.48 -1.14,-1.647 -1.8,-2.593 -0.66,-0.947 -1.396,-2.054 -1.636,-2.461 -0.239,-0.407 -0.703,-1.057 -1.031,-1.443 -1.775,-2.094 -2.29,-3.562 -1.489,-4.248 0.416,-0.356 0.756,-0.919 0.756,-1.251 0,-0.332 0.17,-0.604 0.379,-0.604 0.449,0 3.221,-4.08 3.221,-4.741 0,-0.253 0.178,-0.459 0.395,-0.459 0.374,0 1.991,-2.2 3.127,-4.256 0.287,-0.519 0.68,-0.944 0.873,-0.944 0.193,0 0.458,-0.338 0.589,-0.751 0.132,-0.413 0.683,-1.268 1.227,-1.9 0.543,-0.632 0.988,-1.368 0.989,-1.635 0,-0.267 0.36,-0.679 0.8,-0.914 0.837,-0.448 1.103,-2.165 0.402,-2.598 -0.218,-0.136 -3.219,-0.237 -6.667,-0.225 -6.681,0.023 -7.276,0.185 -8.182,2.223 -0.196,0.44 -0.985,1.61 -1.753,2.6 -0.768,0.99 -1.566,2.188 -1.774,2.661 -0.207,0.474 -0.579,0.986 -0.826,1.139 -0.247,0.153 -0.631,0.755 -0.854,1.339 l -0.404,1.061 -1.395,-1.6 c -1.871,-2.147 -2.276,-2.654 -2.747,-3.432 -0.734,-1.216 -1.957,-2.957 -2.845,-4.053 -0.483,-0.597 -0.951,-1.304 -1.04,-1.57 -0.174,-0.522 -6.073,-0.715 -10.515,-0.345 m -155.364,0.776 c 1.644,0.488 2.491,1.893 2.138,3.547 -0.232,1.091 -2.176,6.077 -2.369,6.077 -0.057,0 -0.87,-0.27 -1.805,-0.6 -6.343,-2.238 -15.061,0.253 -12.882,3.681 0.51,0.802 3.833,2.904 4.603,2.912 0.396,0.004 1.386,0.36 2.2,0.792 0.813,0.432 2.717,1.342 4.23,2.023 6.039,2.72 7.961,5.428 7.988,11.254 0.029,6.139 -1.711,8.68 -7.939,11.596 -3.154,1.477 -16.704,1.389 -20.721,-0.135 -3.452,-1.309 -3.32,-1.113 -2.567,-3.82 0.352,-1.267 0.792,-3.113 0.976,-4.103 0.385,-2.065 1.276,-2.244 4.61,-0.923 1.202,0.476 3.26,0.717 7.001,0.82 l 5.299,0.146 1.001,-1.08 c 1.709,-1.844 0.092,-5.744 -2.39,-5.767 -0.225,-0.002 -1.309,-0.446 -2.409,-0.987 -1.1,-0.541 -2.27,-0.991 -2.6,-0.999 -0.33,-0.008 -1.14,-0.373 -1.8,-0.81 -0.66,-0.437 -1.495,-0.796 -1.856,-0.797 -1.018,-0.004 -4.322,-2.934 -5.702,-5.055 -3.231,-4.967 -0.715,-14.846 4.161,-16.338 0.548,-0.167 1.313,-0.582 1.698,-0.92 1.453,-1.276 15.319,-1.649 19.135,-0.514 m 11.637,-0.263 c -0.708,0.852 -0.711,41.42 -0.004,42.128 0.92,0.919 10.427,1.25 11.713,0.407 l 1.025,-0.671 -0.103,-21.089 L 141,307.4 l -6.043,-0.11 c -4.65,-0.085 -6.144,0.012 -6.484,0.423 m 53.571,0.496 c 4.139,0.871 4.247,0.966 4.574,4.017 0.56,5.233 -0.035,36.999 -0.726,38.774 -0.343,0.88 -0.743,2.14 -0.888,2.8 -0.329,1.488 -2.736,5.176 -3.922,6.008 -5.42,3.802 -7.608,4.392 -16.282,4.392 -5.749,0 -7.305,-0.125 -8.708,-0.7 -0.94,-0.385 -2.21,-0.7 -2.824,-0.7 -2.046,0 -2.44,-0.679 -2.036,-3.506 0.441,-3.08 1.924,-6.362 2.77,-6.13 0.834,0.228 5.674,1.13 8.872,1.653 5.748,0.939 10.364,-1.357 11.708,-5.824 0.939,-3.12 -0.223,-4.43 -2.743,-3.093 -1.752,0.93 -9.462,0.95 -11.669,0.03 -0.864,-0.36 -2.146,-0.869 -2.849,-1.132 -2.232,-0.834 -5.176,-4.064 -6.807,-7.469 l -1.498,-3.129 -0.007,-6.6 -0.007,-6.6 1.593,-3.2 c 1.901,-3.817 5.437,-7.561 7.725,-8.18 0.814,-0.22 1.908,-0.701 2.431,-1.068 2.013,-1.415 15.189,-1.627 21.293,-0.343 m 72.356,-0.223 c 4.832,2.205 10.4,7.39 10.4,9.685 0,0.298 0.368,1.228 0.819,2.068 2.007,3.746 1.875,13.564 -0.257,19.054 -2.937,7.563 -9.257,11.407 -18.754,11.407 H 241 l -3,-1.493 c -7.36,-3.663 -10.531,-8.677 -11.829,-18.707 -0.372,-2.871 1.176,-10.243 2.658,-12.659 2.708,-4.414 3.992,-5.691 8.008,-7.964 3.761,-2.128 14.145,-2.951 17.563,-1.391 m -114.7,-0.147 c 0.831,0.255 1.105,39.457 0.286,40.987 -0.578,1.08 -8.883,1.172 -10.055,0.112 -1.006,-0.91 -1.151,-40.263 -0.15,-40.823 0.664,-0.372 8.863,-0.6 9.919,-0.276 m 142.744,0.961 c 0.438,0.55 1.231,1.63 1.762,2.4 3.549,5.145 4.541,6.443 5.492,7.191 l 1.071,0.843 0.968,-1.517 c 0.532,-0.834 1.484,-2.183 2.115,-2.997 0.631,-0.814 1.572,-2.181 2.09,-3.039 0.518,-0.858 1.445,-2.098 2.06,-2.755 l 1.117,-1.196 5.665,-0.033 c 5.613,-0.032 7.357,0.427 5.644,1.486 -0.269,0.166 -0.791,0.757 -1.159,1.313 -1.065,1.61 -4.593,6.705 -5.469,7.9 -0.44,0.601 -1.158,1.612 -1.595,2.248 -0.437,0.636 -0.977,1.37 -1.2,1.632 -0.223,0.262 -0.855,1.129 -1.405,1.928 -0.55,0.798 -1.388,1.939 -1.861,2.535 -0.998,1.257 -0.876,2.832 0.303,3.899 0.417,0.377 0.758,0.838 0.758,1.023 0,0.185 1.17,1.888 2.6,3.784 1.43,1.896 2.6,3.594 2.6,3.773 0,0.178 0.237,0.563 0.526,0.853 0.29,0.291 1.207,1.519 2.038,2.729 0.831,1.21 1.634,2.29 1.783,2.4 3.095,2.283 1.699,3.582 -3.963,3.689 -5.418,0.102 -6.107,-0.086 -7.381,-2.021 -0.532,-0.807 -1.696,-2.458 -2.586,-3.668 -0.89,-1.21 -2.079,-2.889 -2.643,-3.732 -1.438,-2.15 -2.87,-1.025 -6.53,5.132 -2.446,4.114 -2.833,4.301 -8.899,4.316 -6.643,0.015 -6.9,-0.198 -4.21,-3.5 1.026,-1.259 1.865,-2.483 1.865,-2.719 0,-0.236 0.281,-0.715 0.624,-1.063 0.546,-0.556 1.527,-1.916 5.453,-7.562 0.508,-0.73 1.333,-1.841 1.833,-2.47 1.772,-2.223 1.912,-3.402 0.605,-5.097 -0.638,-0.828 -1.826,-2.495 -2.639,-3.705 -2.853,-4.243 -6.128,-8.79 -6.998,-9.717 -0.483,-0.514 -0.878,-1.05 -0.878,-1.191 0,-0.141 -0.451,-0.92 -1.001,-1.732 -1.619,-2.386 -1.07,-2.644 5.298,-2.49 5.155,0.125 5.379,0.166 6.147,1.13 M 165.8,316.865 c -6.754,3.719 -7.618,15.815 -1.4,19.582 2.935,1.777 8.349,1.361 10.026,-0.771 1.02,-1.297 1.042,-17.391 0.025,-18.615 -0.654,-0.787 -7.304,-0.938 -8.651,-0.196 m 7.849,0.793 c 0.191,0.298 0.303,4.38 0.249,9.07 l -0.098,8.528 -2.2,0.759 c -2.402,0.828 -4.028,0.981 -4.62,0.433 -0.209,-0.193 -1.01,-0.559 -1.78,-0.812 -4.13,-1.358 -5.428,-11.881 -1.9,-15.396 0.385,-0.383 0.701,-0.819 0.703,-0.969 0.002,-0.312 2.214,-1.708 3.397,-2.144 1.28,-0.472 5.855,-0.083 6.249,0.531 m 68.459,0.577 c -3.096,2.595 -3.861,4.727 -3.826,10.664 l 0.03,5.099 1.562,2.501 c 2.486,3.979 6.24,5.278 10.175,3.518 6.464,-2.889 7.572,-15.43 1.875,-21.217 l -1.968,-2 -3.078,0.008 c -2.936,0.007 -3.156,0.073 -4.77,1.427 m 8.093,0.207 c 0.989,0.437 1.799,0.984 1.799,1.215 0,0.231 0.36,0.925 0.799,1.542 2.2,3.09 1.942,12.359 -0.438,15.736 -2.102,2.982 -7.944,3.619 -10.261,1.119 -3.164,-3.414 -4.627,-12.041 -2.5,-14.745 0.44,-0.559 0.8,-1.319 0.8,-1.688 0,-0.696 1.463,-2.206 3.2,-3.303 1.398,-0.883 4.456,-0.825 6.601,0.124"
       inkscape:connector-curvature="0"
       style="fill:#9ba0c7;fill-rule:evenodd;stroke:none" />
  </g>
</svg>
